M48
;GenerationSoftware,Autodesk,EAGLE,9.6.2*%
;CreationDate,2023-03-21T18:21:38Z*%
FMAT,2
ICI,OFF
METRIC,TZ,000.000
T3C0.350
T2C0.813
T1C1.016
%
G90
M71
T1
X45720Y7620
X96520Y33020
X96520Y30480
X96520Y27940
X96520Y25400
X96520Y22860
X96520Y20320
X96520Y17780
X31750Y77470
X29210Y77470
X16510Y77470
X16510Y74930
X11430Y77470
X11430Y74930
X5080Y77470
X5080Y74930
X38096Y3907
X35564Y3713
X48260Y7620
T2
X34290Y35560
X20320Y34290
X20320Y31750
X20320Y44450
X20320Y41910
X20320Y36830
X20320Y39370
X27940Y31750
X27940Y34290
X27940Y36830
X27940Y39370
X27940Y41910
X27940Y44450
X27940Y46990
X27940Y49530
X6350Y22860
X6350Y20320
X6350Y7620
X6350Y5080
X6350Y17780
X6350Y15240
X6350Y10160
X6350Y12700
X13970Y5080
X13970Y7620
X13970Y10160
X13970Y12700
X13970Y15240
X13970Y17780
X13970Y20320
X13970Y22860
X19050Y24130
X19050Y21590
X19050Y8890
X19050Y6350
X19050Y19050
X19050Y16510
X19050Y11430
X19050Y13970
X26670Y8890
X26670Y11430
X26670Y13970
X26670Y16510
X26670Y19050
X26670Y21590
X26670Y24130
X86360Y77470
X86360Y74930
X86360Y62230
X93980Y62230
X86360Y72390
X86360Y69850
X86360Y64770
X86360Y67310
X93980Y64770
X93980Y67310
X54610Y53340
X93980Y69850
X93980Y72390
X93980Y74930
X93980Y77470
X58420Y33020
X58420Y30480
X58420Y17780
X58420Y15240
X58420Y27940
X58420Y25400
X58420Y20320
X58420Y22860
X66040Y15240
X66040Y17780
X66040Y20320
X66040Y22860
X66040Y25400
X66040Y27940
X66040Y30480
X66040Y33020
X26670Y6350
X57150Y3810
X59690Y3810
X72390Y3810
X72390Y11430
X62230Y3810
X64770Y3810
X69850Y3810
X67310Y3810
X69850Y11430
X67310Y11430
X64770Y11430
X62230Y11430
X59690Y11430
X57150Y11430
X34290Y50800
X34290Y48260
X34290Y33020
X34290Y45720
X34290Y43180
X34290Y38100
X34290Y40640
X41910Y33020
X41910Y35560
X41910Y38100
X41910Y40640
X41910Y43180
X41910Y45720
X41910Y48260
X41910Y50800
X73660Y54610
X73660Y52070
X73660Y39370
X73660Y36830
X73660Y49530
X73660Y46990
X73660Y41910
X73660Y44450
X81280Y36830
X81280Y39370
X81280Y41910
X81280Y44450
X81280Y46990
X81280Y49530
X81280Y52070
X81280Y54610
X34290Y73660
X34290Y71120
X34290Y58420
X41910Y58420
X34290Y68580
X34290Y66040
X34290Y60960
X34290Y63500
X41910Y60960
X41910Y63500
X41910Y66040
X41910Y68580
X41910Y71120
X41910Y73660
X33020Y25400
X33020Y22860
X33020Y10160
X40640Y10160
X33020Y20320
X33020Y17780
X33020Y12700
X33020Y15240
X40640Y12700
X40640Y15240
X40640Y17780
X40640Y20320
X40640Y22860
X40640Y25400
X60960Y53340
X60960Y50800
X60960Y38100
X68580Y38100
X60960Y48260
X60960Y45720
X60960Y40640
X60960Y43180
X68580Y40640
X68580Y43180
X68580Y45720
X68580Y48260
X68580Y50800
X68580Y53340
X71120Y33020
X71120Y30480
X71120Y17780
X78740Y17780
X71120Y27940
X71120Y25400
X71120Y20320
X71120Y22860
X78740Y20320
X78740Y22860
X78740Y25400
X78740Y27940
X78740Y30480
X78740Y33020
X60960Y76200
X60960Y73660
X60960Y60960
X68580Y60960
X60960Y71120
X60960Y68580
X60960Y63500
X60960Y66040
X68580Y63500
X68580Y66040
X68580Y68580
X68580Y71120
X68580Y73660
X68580Y76200
X46990Y53340
X46990Y50800
X46990Y38100
X54610Y38100
X46990Y48260
X46990Y45720
X46990Y40640
X46990Y43180
X54610Y40640
X54610Y43180
X54610Y45720
X54610Y48260
X54610Y50800
X6350Y45720
X87630Y57150
X87630Y54610
X87630Y41910
X95250Y41910
X87630Y52070
X87630Y49530
X87630Y44450
X87630Y46990
X95250Y44450
X95250Y46990
X95250Y49530
X95250Y52070
X95250Y54610
X95250Y57150
X73660Y76200
X73660Y73660
X73660Y60960
X81280Y60960
X73660Y71120
X73660Y68580
X73660Y63500
X73660Y66040
X81280Y63500
X81280Y66040
X81280Y68580
X81280Y71120
X81280Y73660
X81280Y76200
X6350Y68580
X6350Y66040
X6350Y53340
X13970Y53340
X6350Y63500
X6350Y60960
X6350Y55880
X6350Y58420
X13970Y55880
X13970Y58420
X13970Y60960
X13970Y63500
X13970Y66040
X13970Y68580
X45720Y29210
X45720Y26670
X45720Y13970
X53340Y13970
X45720Y24130
X45720Y21590
X45720Y16510
X45720Y19050
X53340Y16510
X53340Y19050
X53340Y21590
X53340Y24130
X53340Y26670
X53340Y29210
X80010Y3810
X82550Y3810
X95250Y3810
X95250Y11430
X85090Y3810
X87630Y3810
X92710Y3810
X90170Y3810
X92710Y11430
X90170Y11430
X87630Y11430
X85090Y11430
X82550Y11430
X80010Y11430
X48260Y74930
X48260Y72390
X48260Y59690
X55880Y59690
X48260Y69850
X48260Y67310
X48260Y62230
X48260Y64770
X55880Y62230
X55880Y64770
X55880Y67310
X55880Y69850
X55880Y72390
X55880Y74930
X83820Y31750
X83820Y29210
X83820Y16510
X91440Y16510
X83820Y26670
X83820Y24130
X83820Y19050
X83820Y21590
X91440Y19050
X91440Y21590
X91440Y24130
X91440Y26670
X91440Y29210
X91440Y31750
X20320Y72390
X20320Y69850
X20320Y57150
X27940Y57150
X20320Y67310
X20320Y64770
X20320Y59690
X20320Y62230
X27940Y59690
X27940Y62230
X27940Y64770
X27940Y67310
X27940Y69850
X27940Y72390
X6350Y43180
X6350Y30480
X6350Y27940
X6350Y40640
X6350Y38100
X6350Y33020
X6350Y35560
X13970Y27940
X13970Y30480
X13970Y33020
X13970Y35560
X13970Y38100
X13970Y40640
X13970Y43180
X13970Y45720
X20320Y49530
X20320Y46990
T3
X44501Y37186
X63246Y13106
X24841Y22555
X52730Y55169
X14478Y31699
X61570Y19660
X58979Y53035
X39014Y51664
X60655Y19660
X32309Y65837
X56236Y28499
X53645Y30785
X59893Y31394
X52578Y31394
X33833Y29718
X56083Y1981
X64160Y1981
X79858Y6706
X46330Y74828
X58064Y57150
X63246Y53645
X71476Y45110
X57607Y6858
X75286Y18136
X78638Y24079
X79553Y48768
X31090Y21946
X50444Y23165
X61417Y32004
X69647Y32004
X74066Y18136
X36424Y12192
X58674Y14021
X63551Y18440
X38100Y62332
X58369Y53797
X58369Y45872
X63094Y14326
X24994Y9601
X50902Y10516
X52426Y12040
X55778Y12040
X69190Y19507
X34595Y19507
X32004Y64160
X88240Y21031
X70561Y73304
X89154Y32461
X85192Y36424
X83668Y36424
X64313Y28651
X37643Y33985
X49682Y33528
X44196Y40081
X80467Y8230
X66751Y26670
X62941Y34138
X73000Y31090
X77267Y44806
X83668Y42215
X85649Y24841
X49073Y37643
X42215Y62179
X37948Y21031
X37338Y22860
X39167Y33680
X97993Y21641
X88849Y23165
X63551Y52730
X85496Y13564
X76810Y27432
X75590Y28651
X69190Y30632
X56845Y39929
X45720Y39472
X32918Y30175
X71933Y24079
X85039Y57302
X94640Y21336
X78791Y62179
X72085Y67666
X55016Y49530
X80467Y57455
X44196Y70256
X96164Y69647
X40386Y26670
X66142Y68580
X61265Y25603
X72847Y19660
X56236Y17526
X54712Y17526
X43282Y19660
X37338Y23774
X83820Y8230
X25451Y25603
X52883Y33528
M30