G04 EAGLE Gerber RS-274X export*
G75*
%MOMM*%
%FSLAX34Y34*%
%LPD*%
%INSilkscreen Top*%
%IPPOS*%
%AMOC8*
5,1,8,0,0,1.08239X$1,22.5*%
G01*
%ADD10C,0.152400*%
%ADD11C,0.127000*%


D10*
X736600Y105410D02*
X558800Y105410D01*
X558800Y46990D02*
X736600Y46990D01*
X736600Y105410D01*
X558800Y105410D02*
X558800Y86360D01*
X558800Y66040D02*
X558800Y46990D01*
X558800Y66040D02*
X559047Y66043D01*
X559295Y66052D01*
X559542Y66067D01*
X559788Y66088D01*
X560034Y66115D01*
X560279Y66148D01*
X560524Y66187D01*
X560767Y66232D01*
X561009Y66283D01*
X561250Y66340D01*
X561489Y66402D01*
X561727Y66471D01*
X561963Y66545D01*
X562197Y66625D01*
X562429Y66710D01*
X562659Y66802D01*
X562887Y66898D01*
X563112Y67001D01*
X563335Y67108D01*
X563555Y67222D01*
X563772Y67340D01*
X563987Y67464D01*
X564198Y67593D01*
X564406Y67727D01*
X564611Y67866D01*
X564812Y68010D01*
X565010Y68158D01*
X565204Y68312D01*
X565394Y68470D01*
X565580Y68633D01*
X565762Y68800D01*
X565940Y68972D01*
X566114Y69148D01*
X566284Y69328D01*
X566449Y69513D01*
X566609Y69701D01*
X566765Y69893D01*
X566917Y70089D01*
X567063Y70288D01*
X567205Y70491D01*
X567341Y70698D01*
X567473Y70907D01*
X567599Y71120D01*
X567720Y71336D01*
X567836Y71554D01*
X567946Y71776D01*
X568051Y72000D01*
X568151Y72226D01*
X568245Y72455D01*
X568333Y72686D01*
X568416Y72920D01*
X568493Y73155D01*
X568564Y73392D01*
X568630Y73630D01*
X568689Y73870D01*
X568743Y74112D01*
X568791Y74355D01*
X568833Y74598D01*
X568869Y74843D01*
X568899Y75089D01*
X568923Y75335D01*
X568941Y75582D01*
X568953Y75829D01*
X568959Y76076D01*
X568959Y76324D01*
X568953Y76571D01*
X568941Y76818D01*
X568923Y77065D01*
X568899Y77311D01*
X568869Y77557D01*
X568833Y77802D01*
X568791Y78045D01*
X568743Y78288D01*
X568689Y78530D01*
X568630Y78770D01*
X568564Y79008D01*
X568493Y79245D01*
X568416Y79480D01*
X568333Y79714D01*
X568245Y79945D01*
X568151Y80174D01*
X568051Y80400D01*
X567946Y80624D01*
X567836Y80846D01*
X567720Y81064D01*
X567599Y81280D01*
X567473Y81493D01*
X567341Y81702D01*
X567205Y81909D01*
X567063Y82112D01*
X566917Y82311D01*
X566765Y82507D01*
X566609Y82699D01*
X566449Y82887D01*
X566284Y83072D01*
X566114Y83252D01*
X565940Y83428D01*
X565762Y83600D01*
X565580Y83767D01*
X565394Y83930D01*
X565204Y84088D01*
X565010Y84242D01*
X564812Y84390D01*
X564611Y84534D01*
X564406Y84673D01*
X564198Y84807D01*
X563987Y84936D01*
X563772Y85060D01*
X563555Y85178D01*
X563335Y85292D01*
X563112Y85399D01*
X562887Y85502D01*
X562659Y85598D01*
X562429Y85690D01*
X562197Y85775D01*
X561963Y85855D01*
X561727Y85929D01*
X561489Y85998D01*
X561250Y86060D01*
X561009Y86117D01*
X560767Y86168D01*
X560524Y86213D01*
X560279Y86252D01*
X560034Y86285D01*
X559788Y86312D01*
X559542Y86333D01*
X559295Y86348D01*
X559047Y86357D01*
X558800Y86360D01*
D11*
X554355Y47625D02*
X542925Y47625D01*
X554355Y46355D02*
X554355Y48895D01*
X542925Y48895D02*
X542925Y46355D01*
X554355Y56097D02*
X554355Y58637D01*
X554355Y56097D02*
X554353Y55997D01*
X554347Y55898D01*
X554337Y55798D01*
X554324Y55700D01*
X554306Y55601D01*
X554285Y55504D01*
X554260Y55408D01*
X554231Y55312D01*
X554198Y55218D01*
X554162Y55125D01*
X554122Y55034D01*
X554078Y54944D01*
X554031Y54856D01*
X553981Y54770D01*
X553927Y54686D01*
X553870Y54604D01*
X553810Y54525D01*
X553746Y54447D01*
X553680Y54373D01*
X553611Y54301D01*
X553539Y54232D01*
X553465Y54166D01*
X553387Y54102D01*
X553308Y54042D01*
X553226Y53985D01*
X553142Y53931D01*
X553056Y53881D01*
X552968Y53834D01*
X552878Y53790D01*
X552787Y53750D01*
X552694Y53714D01*
X552600Y53681D01*
X552504Y53652D01*
X552408Y53627D01*
X552311Y53606D01*
X552212Y53588D01*
X552114Y53575D01*
X552014Y53565D01*
X551915Y53559D01*
X551815Y53557D01*
X545465Y53557D01*
X545365Y53559D01*
X545266Y53565D01*
X545166Y53575D01*
X545068Y53588D01*
X544969Y53606D01*
X544872Y53627D01*
X544776Y53652D01*
X544680Y53681D01*
X544586Y53714D01*
X544493Y53750D01*
X544402Y53790D01*
X544312Y53834D01*
X544224Y53881D01*
X544138Y53931D01*
X544054Y53985D01*
X543972Y54042D01*
X543893Y54102D01*
X543815Y54166D01*
X543741Y54232D01*
X543669Y54301D01*
X543600Y54373D01*
X543534Y54447D01*
X543470Y54525D01*
X543410Y54604D01*
X543353Y54686D01*
X543299Y54770D01*
X543249Y54856D01*
X543202Y54944D01*
X543158Y55034D01*
X543118Y55125D01*
X543082Y55218D01*
X543049Y55312D01*
X543020Y55408D01*
X542995Y55504D01*
X542974Y55601D01*
X542956Y55700D01*
X542943Y55798D01*
X542933Y55898D01*
X542927Y55997D01*
X542925Y56097D01*
X542925Y58637D01*
X545465Y63119D02*
X542925Y66294D01*
X554355Y66294D01*
X554355Y63119D02*
X554355Y69469D01*
D10*
X410210Y317500D02*
X410210Y520700D01*
X351790Y520700D02*
X351790Y317500D01*
X410210Y317500D01*
X410210Y520700D02*
X391160Y520700D01*
X370840Y520700D02*
X351790Y520700D01*
X370840Y520700D02*
X370843Y520453D01*
X370852Y520205D01*
X370867Y519958D01*
X370888Y519712D01*
X370915Y519466D01*
X370948Y519221D01*
X370987Y518976D01*
X371032Y518733D01*
X371083Y518491D01*
X371140Y518250D01*
X371202Y518011D01*
X371271Y517773D01*
X371345Y517537D01*
X371425Y517303D01*
X371510Y517071D01*
X371602Y516841D01*
X371698Y516613D01*
X371801Y516388D01*
X371908Y516165D01*
X372022Y515945D01*
X372140Y515728D01*
X372264Y515513D01*
X372393Y515302D01*
X372527Y515094D01*
X372666Y514889D01*
X372810Y514688D01*
X372958Y514490D01*
X373112Y514296D01*
X373270Y514106D01*
X373433Y513920D01*
X373600Y513738D01*
X373772Y513560D01*
X373948Y513386D01*
X374128Y513216D01*
X374313Y513051D01*
X374501Y512891D01*
X374693Y512735D01*
X374889Y512583D01*
X375088Y512437D01*
X375291Y512295D01*
X375498Y512159D01*
X375707Y512027D01*
X375920Y511901D01*
X376136Y511780D01*
X376354Y511664D01*
X376576Y511554D01*
X376800Y511449D01*
X377026Y511349D01*
X377255Y511255D01*
X377486Y511167D01*
X377720Y511084D01*
X377955Y511007D01*
X378192Y510936D01*
X378430Y510870D01*
X378670Y510811D01*
X378912Y510757D01*
X379155Y510709D01*
X379398Y510667D01*
X379643Y510631D01*
X379889Y510601D01*
X380135Y510577D01*
X380382Y510559D01*
X380629Y510547D01*
X380876Y510541D01*
X381124Y510541D01*
X381371Y510547D01*
X381618Y510559D01*
X381865Y510577D01*
X382111Y510601D01*
X382357Y510631D01*
X382602Y510667D01*
X382845Y510709D01*
X383088Y510757D01*
X383330Y510811D01*
X383570Y510870D01*
X383808Y510936D01*
X384045Y511007D01*
X384280Y511084D01*
X384514Y511167D01*
X384745Y511255D01*
X384974Y511349D01*
X385200Y511449D01*
X385424Y511554D01*
X385646Y511664D01*
X385864Y511780D01*
X386080Y511901D01*
X386293Y512027D01*
X386502Y512159D01*
X386709Y512295D01*
X386912Y512437D01*
X387111Y512583D01*
X387307Y512735D01*
X387499Y512891D01*
X387687Y513051D01*
X387872Y513216D01*
X388052Y513386D01*
X388228Y513560D01*
X388400Y513738D01*
X388567Y513920D01*
X388730Y514106D01*
X388888Y514296D01*
X389042Y514490D01*
X389190Y514688D01*
X389334Y514889D01*
X389473Y515094D01*
X389607Y515302D01*
X389736Y515513D01*
X389860Y515728D01*
X389978Y515945D01*
X390092Y516165D01*
X390199Y516388D01*
X390302Y516613D01*
X390398Y516841D01*
X390490Y517071D01*
X390575Y517303D01*
X390655Y517537D01*
X390729Y517773D01*
X390798Y518011D01*
X390860Y518250D01*
X390917Y518491D01*
X390968Y518733D01*
X391013Y518976D01*
X391052Y519221D01*
X391085Y519466D01*
X391112Y519712D01*
X391133Y519958D01*
X391148Y520205D01*
X391157Y520453D01*
X391160Y520700D01*
D11*
X353695Y525145D02*
X353695Y536575D01*
X352425Y525145D02*
X354965Y525145D01*
X354965Y536575D02*
X352425Y536575D01*
X362167Y525145D02*
X364707Y525145D01*
X362167Y525145D02*
X362067Y525147D01*
X361968Y525153D01*
X361868Y525163D01*
X361770Y525176D01*
X361671Y525194D01*
X361574Y525215D01*
X361478Y525240D01*
X361382Y525269D01*
X361288Y525302D01*
X361195Y525338D01*
X361104Y525378D01*
X361014Y525422D01*
X360926Y525469D01*
X360840Y525519D01*
X360756Y525573D01*
X360674Y525630D01*
X360595Y525690D01*
X360517Y525754D01*
X360443Y525820D01*
X360371Y525889D01*
X360302Y525961D01*
X360236Y526035D01*
X360172Y526113D01*
X360112Y526192D01*
X360055Y526274D01*
X360001Y526358D01*
X359951Y526444D01*
X359904Y526532D01*
X359860Y526622D01*
X359820Y526713D01*
X359784Y526806D01*
X359751Y526900D01*
X359722Y526996D01*
X359697Y527092D01*
X359676Y527189D01*
X359658Y527288D01*
X359645Y527386D01*
X359635Y527486D01*
X359629Y527585D01*
X359627Y527685D01*
X359627Y534035D01*
X359629Y534135D01*
X359635Y534234D01*
X359645Y534334D01*
X359658Y534432D01*
X359676Y534531D01*
X359697Y534628D01*
X359722Y534724D01*
X359751Y534820D01*
X359784Y534914D01*
X359820Y535007D01*
X359860Y535098D01*
X359904Y535188D01*
X359951Y535276D01*
X360001Y535362D01*
X360055Y535446D01*
X360112Y535528D01*
X360172Y535607D01*
X360236Y535685D01*
X360302Y535759D01*
X360371Y535831D01*
X360443Y535900D01*
X360517Y535966D01*
X360595Y536030D01*
X360674Y536090D01*
X360756Y536147D01*
X360840Y536201D01*
X360926Y536251D01*
X361014Y536298D01*
X361104Y536342D01*
X361195Y536382D01*
X361288Y536418D01*
X361382Y536451D01*
X361478Y536480D01*
X361574Y536505D01*
X361671Y536526D01*
X361770Y536544D01*
X361868Y536557D01*
X361968Y536567D01*
X362067Y536573D01*
X362167Y536575D01*
X364707Y536575D01*
X369189Y534035D02*
X372364Y536575D01*
X372364Y525145D01*
X369189Y525145D02*
X375539Y525145D01*
X380619Y530860D02*
X380622Y531085D01*
X380630Y531310D01*
X380643Y531534D01*
X380662Y531758D01*
X380686Y531982D01*
X380715Y532205D01*
X380750Y532427D01*
X380790Y532648D01*
X380836Y532868D01*
X380886Y533087D01*
X380942Y533305D01*
X381003Y533522D01*
X381069Y533737D01*
X381140Y533950D01*
X381217Y534161D01*
X381298Y534371D01*
X381384Y534579D01*
X381475Y534784D01*
X381571Y534987D01*
X381571Y534988D02*
X381603Y535076D01*
X381639Y535163D01*
X381678Y535249D01*
X381721Y535333D01*
X381767Y535415D01*
X381816Y535495D01*
X381868Y535573D01*
X381924Y535649D01*
X381982Y535723D01*
X382044Y535794D01*
X382108Y535863D01*
X382175Y535929D01*
X382244Y535992D01*
X382316Y536053D01*
X382390Y536111D01*
X382467Y536165D01*
X382545Y536217D01*
X382626Y536265D01*
X382708Y536310D01*
X382793Y536352D01*
X382879Y536390D01*
X382966Y536425D01*
X383054Y536457D01*
X383144Y536484D01*
X383235Y536509D01*
X383327Y536529D01*
X383419Y536546D01*
X383513Y536559D01*
X383606Y536568D01*
X383700Y536574D01*
X383794Y536576D01*
X383888Y536574D01*
X383982Y536568D01*
X384075Y536559D01*
X384169Y536546D01*
X384261Y536529D01*
X384353Y536509D01*
X384444Y536484D01*
X384534Y536457D01*
X384622Y536425D01*
X384709Y536390D01*
X384795Y536352D01*
X384880Y536310D01*
X384962Y536265D01*
X385043Y536217D01*
X385121Y536165D01*
X385198Y536111D01*
X385272Y536053D01*
X385344Y535992D01*
X385413Y535929D01*
X385480Y535863D01*
X385544Y535794D01*
X385606Y535723D01*
X385664Y535649D01*
X385720Y535573D01*
X385772Y535495D01*
X385821Y535415D01*
X385867Y535333D01*
X385910Y535249D01*
X385949Y535163D01*
X385985Y535076D01*
X386017Y534988D01*
X386017Y534987D02*
X386113Y534784D01*
X386204Y534579D01*
X386290Y534371D01*
X386371Y534161D01*
X386448Y533950D01*
X386519Y533737D01*
X386585Y533522D01*
X386646Y533305D01*
X386702Y533087D01*
X386752Y532868D01*
X386798Y532648D01*
X386838Y532427D01*
X386873Y532205D01*
X386902Y531982D01*
X386926Y531758D01*
X386945Y531534D01*
X386958Y531310D01*
X386966Y531085D01*
X386969Y530860D01*
X380619Y530860D02*
X380622Y530635D01*
X380630Y530410D01*
X380643Y530186D01*
X380662Y529962D01*
X380686Y529738D01*
X380715Y529515D01*
X380750Y529293D01*
X380790Y529072D01*
X380836Y528852D01*
X380886Y528633D01*
X380942Y528415D01*
X381003Y528198D01*
X381069Y527983D01*
X381140Y527770D01*
X381217Y527559D01*
X381298Y527349D01*
X381384Y527141D01*
X381475Y526936D01*
X381571Y526733D01*
X381603Y526645D01*
X381639Y526558D01*
X381678Y526472D01*
X381721Y526388D01*
X381767Y526306D01*
X381816Y526226D01*
X381868Y526148D01*
X381924Y526072D01*
X381982Y525998D01*
X382044Y525927D01*
X382108Y525858D01*
X382175Y525792D01*
X382244Y525729D01*
X382316Y525668D01*
X382390Y525610D01*
X382467Y525556D01*
X382545Y525504D01*
X382626Y525456D01*
X382708Y525411D01*
X382793Y525369D01*
X382879Y525331D01*
X382966Y525296D01*
X383054Y525264D01*
X383144Y525237D01*
X383235Y525212D01*
X383327Y525192D01*
X383419Y525175D01*
X383513Y525162D01*
X383606Y525153D01*
X383700Y525147D01*
X383794Y525145D01*
X386017Y526733D02*
X386113Y526936D01*
X386204Y527141D01*
X386290Y527349D01*
X386371Y527559D01*
X386448Y527770D01*
X386519Y527983D01*
X386585Y528198D01*
X386646Y528415D01*
X386702Y528633D01*
X386752Y528852D01*
X386798Y529072D01*
X386838Y529293D01*
X386873Y529515D01*
X386902Y529738D01*
X386926Y529962D01*
X386945Y530186D01*
X386958Y530410D01*
X386966Y530635D01*
X386969Y530860D01*
X386017Y526733D02*
X385985Y526645D01*
X385949Y526558D01*
X385910Y526472D01*
X385867Y526388D01*
X385821Y526306D01*
X385772Y526226D01*
X385720Y526148D01*
X385664Y526072D01*
X385606Y525998D01*
X385544Y525927D01*
X385480Y525858D01*
X385413Y525792D01*
X385344Y525729D01*
X385272Y525668D01*
X385198Y525610D01*
X385121Y525556D01*
X385043Y525504D01*
X384962Y525456D01*
X384880Y525411D01*
X384795Y525369D01*
X384709Y525331D01*
X384622Y525296D01*
X384534Y525264D01*
X384444Y525237D01*
X384353Y525212D01*
X384261Y525192D01*
X384169Y525175D01*
X384075Y525162D01*
X383982Y525153D01*
X383888Y525147D01*
X383794Y525145D01*
X381254Y527685D02*
X386334Y534035D01*
D10*
X803910Y558800D02*
X803910Y355600D01*
X745490Y355600D02*
X745490Y558800D01*
X745490Y355600D02*
X803910Y355600D01*
X803910Y558800D02*
X784860Y558800D01*
X764540Y558800D02*
X745490Y558800D01*
X764540Y558800D02*
X764543Y558553D01*
X764552Y558305D01*
X764567Y558058D01*
X764588Y557812D01*
X764615Y557566D01*
X764648Y557321D01*
X764687Y557076D01*
X764732Y556833D01*
X764783Y556591D01*
X764840Y556350D01*
X764902Y556111D01*
X764971Y555873D01*
X765045Y555637D01*
X765125Y555403D01*
X765210Y555171D01*
X765302Y554941D01*
X765398Y554713D01*
X765501Y554488D01*
X765608Y554265D01*
X765722Y554045D01*
X765840Y553828D01*
X765964Y553613D01*
X766093Y553402D01*
X766227Y553194D01*
X766366Y552989D01*
X766510Y552788D01*
X766658Y552590D01*
X766812Y552396D01*
X766970Y552206D01*
X767133Y552020D01*
X767300Y551838D01*
X767472Y551660D01*
X767648Y551486D01*
X767828Y551316D01*
X768013Y551151D01*
X768201Y550991D01*
X768393Y550835D01*
X768589Y550683D01*
X768788Y550537D01*
X768991Y550395D01*
X769198Y550259D01*
X769407Y550127D01*
X769620Y550001D01*
X769836Y549880D01*
X770054Y549764D01*
X770276Y549654D01*
X770500Y549549D01*
X770726Y549449D01*
X770955Y549355D01*
X771186Y549267D01*
X771420Y549184D01*
X771655Y549107D01*
X771892Y549036D01*
X772130Y548970D01*
X772370Y548911D01*
X772612Y548857D01*
X772855Y548809D01*
X773098Y548767D01*
X773343Y548731D01*
X773589Y548701D01*
X773835Y548677D01*
X774082Y548659D01*
X774329Y548647D01*
X774576Y548641D01*
X774824Y548641D01*
X775071Y548647D01*
X775318Y548659D01*
X775565Y548677D01*
X775811Y548701D01*
X776057Y548731D01*
X776302Y548767D01*
X776545Y548809D01*
X776788Y548857D01*
X777030Y548911D01*
X777270Y548970D01*
X777508Y549036D01*
X777745Y549107D01*
X777980Y549184D01*
X778214Y549267D01*
X778445Y549355D01*
X778674Y549449D01*
X778900Y549549D01*
X779124Y549654D01*
X779346Y549764D01*
X779564Y549880D01*
X779780Y550001D01*
X779993Y550127D01*
X780202Y550259D01*
X780409Y550395D01*
X780612Y550537D01*
X780811Y550683D01*
X781007Y550835D01*
X781199Y550991D01*
X781387Y551151D01*
X781572Y551316D01*
X781752Y551486D01*
X781928Y551660D01*
X782100Y551838D01*
X782267Y552020D01*
X782430Y552206D01*
X782588Y552396D01*
X782742Y552590D01*
X782890Y552788D01*
X783034Y552989D01*
X783173Y553194D01*
X783307Y553402D01*
X783436Y553613D01*
X783560Y553828D01*
X783678Y554045D01*
X783792Y554265D01*
X783899Y554488D01*
X784002Y554713D01*
X784098Y554941D01*
X784190Y555171D01*
X784275Y555403D01*
X784355Y555637D01*
X784429Y555873D01*
X784498Y556111D01*
X784560Y556350D01*
X784617Y556591D01*
X784668Y556833D01*
X784713Y557076D01*
X784752Y557321D01*
X784785Y557566D01*
X784812Y557812D01*
X784833Y558058D01*
X784848Y558305D01*
X784857Y558553D01*
X784860Y558800D01*
D11*
X747395Y563245D02*
X747395Y574675D01*
X746125Y563245D02*
X748665Y563245D01*
X748665Y574675D02*
X746125Y574675D01*
X755867Y563245D02*
X758407Y563245D01*
X755867Y563245D02*
X755767Y563247D01*
X755668Y563253D01*
X755568Y563263D01*
X755470Y563276D01*
X755371Y563294D01*
X755274Y563315D01*
X755178Y563340D01*
X755082Y563369D01*
X754988Y563402D01*
X754895Y563438D01*
X754804Y563478D01*
X754714Y563522D01*
X754626Y563569D01*
X754540Y563619D01*
X754456Y563673D01*
X754374Y563730D01*
X754295Y563790D01*
X754217Y563854D01*
X754143Y563920D01*
X754071Y563989D01*
X754002Y564061D01*
X753936Y564135D01*
X753872Y564213D01*
X753812Y564292D01*
X753755Y564374D01*
X753701Y564458D01*
X753651Y564544D01*
X753604Y564632D01*
X753560Y564722D01*
X753520Y564813D01*
X753484Y564906D01*
X753451Y565000D01*
X753422Y565096D01*
X753397Y565192D01*
X753376Y565289D01*
X753358Y565388D01*
X753345Y565486D01*
X753335Y565586D01*
X753329Y565685D01*
X753327Y565785D01*
X753327Y572135D01*
X753329Y572235D01*
X753335Y572334D01*
X753345Y572434D01*
X753358Y572532D01*
X753376Y572631D01*
X753397Y572728D01*
X753422Y572824D01*
X753451Y572920D01*
X753484Y573014D01*
X753520Y573107D01*
X753560Y573198D01*
X753604Y573288D01*
X753651Y573376D01*
X753701Y573462D01*
X753755Y573546D01*
X753812Y573628D01*
X753872Y573707D01*
X753936Y573785D01*
X754002Y573859D01*
X754071Y573931D01*
X754143Y574000D01*
X754217Y574066D01*
X754295Y574130D01*
X754374Y574190D01*
X754456Y574247D01*
X754540Y574301D01*
X754626Y574351D01*
X754714Y574398D01*
X754804Y574442D01*
X754895Y574482D01*
X754988Y574518D01*
X755082Y574551D01*
X755178Y574580D01*
X755274Y574605D01*
X755371Y574626D01*
X755470Y574644D01*
X755568Y574657D01*
X755668Y574667D01*
X755767Y574673D01*
X755867Y574675D01*
X758407Y574675D01*
X762889Y572135D02*
X766064Y574675D01*
X766064Y563245D01*
X762889Y563245D02*
X769239Y563245D01*
X774319Y572135D02*
X777494Y574675D01*
X777494Y563245D01*
X774319Y563245D02*
X780669Y563245D01*
D10*
X410210Y571500D02*
X410210Y749300D01*
X351790Y749300D02*
X351790Y571500D01*
X410210Y571500D01*
X410210Y749300D02*
X391160Y749300D01*
X370840Y749300D02*
X351790Y749300D01*
X370840Y749300D02*
X370843Y749053D01*
X370852Y748805D01*
X370867Y748558D01*
X370888Y748312D01*
X370915Y748066D01*
X370948Y747821D01*
X370987Y747576D01*
X371032Y747333D01*
X371083Y747091D01*
X371140Y746850D01*
X371202Y746611D01*
X371271Y746373D01*
X371345Y746137D01*
X371425Y745903D01*
X371510Y745671D01*
X371602Y745441D01*
X371698Y745213D01*
X371801Y744988D01*
X371908Y744765D01*
X372022Y744545D01*
X372140Y744328D01*
X372264Y744113D01*
X372393Y743902D01*
X372527Y743694D01*
X372666Y743489D01*
X372810Y743288D01*
X372958Y743090D01*
X373112Y742896D01*
X373270Y742706D01*
X373433Y742520D01*
X373600Y742338D01*
X373772Y742160D01*
X373948Y741986D01*
X374128Y741816D01*
X374313Y741651D01*
X374501Y741491D01*
X374693Y741335D01*
X374889Y741183D01*
X375088Y741037D01*
X375291Y740895D01*
X375498Y740759D01*
X375707Y740627D01*
X375920Y740501D01*
X376136Y740380D01*
X376354Y740264D01*
X376576Y740154D01*
X376800Y740049D01*
X377026Y739949D01*
X377255Y739855D01*
X377486Y739767D01*
X377720Y739684D01*
X377955Y739607D01*
X378192Y739536D01*
X378430Y739470D01*
X378670Y739411D01*
X378912Y739357D01*
X379155Y739309D01*
X379398Y739267D01*
X379643Y739231D01*
X379889Y739201D01*
X380135Y739177D01*
X380382Y739159D01*
X380629Y739147D01*
X380876Y739141D01*
X381124Y739141D01*
X381371Y739147D01*
X381618Y739159D01*
X381865Y739177D01*
X382111Y739201D01*
X382357Y739231D01*
X382602Y739267D01*
X382845Y739309D01*
X383088Y739357D01*
X383330Y739411D01*
X383570Y739470D01*
X383808Y739536D01*
X384045Y739607D01*
X384280Y739684D01*
X384514Y739767D01*
X384745Y739855D01*
X384974Y739949D01*
X385200Y740049D01*
X385424Y740154D01*
X385646Y740264D01*
X385864Y740380D01*
X386080Y740501D01*
X386293Y740627D01*
X386502Y740759D01*
X386709Y740895D01*
X386912Y741037D01*
X387111Y741183D01*
X387307Y741335D01*
X387499Y741491D01*
X387687Y741651D01*
X387872Y741816D01*
X388052Y741986D01*
X388228Y742160D01*
X388400Y742338D01*
X388567Y742520D01*
X388730Y742706D01*
X388888Y742896D01*
X389042Y743090D01*
X389190Y743288D01*
X389334Y743489D01*
X389473Y743694D01*
X389607Y743902D01*
X389736Y744113D01*
X389860Y744328D01*
X389978Y744545D01*
X390092Y744765D01*
X390199Y744988D01*
X390302Y745213D01*
X390398Y745441D01*
X390490Y745671D01*
X390575Y745903D01*
X390655Y746137D01*
X390729Y746373D01*
X390798Y746611D01*
X390860Y746850D01*
X390917Y747091D01*
X390968Y747333D01*
X391013Y747576D01*
X391052Y747821D01*
X391085Y748066D01*
X391112Y748312D01*
X391133Y748558D01*
X391148Y748805D01*
X391157Y749053D01*
X391160Y749300D01*
D11*
X352425Y753745D02*
X352425Y765175D01*
X351155Y753745D02*
X353695Y753745D01*
X353695Y765175D02*
X351155Y765175D01*
X360897Y753745D02*
X363437Y753745D01*
X360897Y753745D02*
X360797Y753747D01*
X360698Y753753D01*
X360598Y753763D01*
X360500Y753776D01*
X360401Y753794D01*
X360304Y753815D01*
X360208Y753840D01*
X360112Y753869D01*
X360018Y753902D01*
X359925Y753938D01*
X359834Y753978D01*
X359744Y754022D01*
X359656Y754069D01*
X359570Y754119D01*
X359486Y754173D01*
X359404Y754230D01*
X359325Y754290D01*
X359247Y754354D01*
X359173Y754420D01*
X359101Y754489D01*
X359032Y754561D01*
X358966Y754635D01*
X358902Y754713D01*
X358842Y754792D01*
X358785Y754874D01*
X358731Y754958D01*
X358681Y755044D01*
X358634Y755132D01*
X358590Y755222D01*
X358550Y755313D01*
X358514Y755406D01*
X358481Y755500D01*
X358452Y755596D01*
X358427Y755692D01*
X358406Y755789D01*
X358388Y755888D01*
X358375Y755986D01*
X358365Y756086D01*
X358359Y756185D01*
X358357Y756285D01*
X358357Y762635D01*
X358359Y762735D01*
X358365Y762834D01*
X358375Y762934D01*
X358388Y763032D01*
X358406Y763131D01*
X358427Y763228D01*
X358452Y763324D01*
X358481Y763420D01*
X358514Y763514D01*
X358550Y763607D01*
X358590Y763698D01*
X358634Y763788D01*
X358681Y763876D01*
X358731Y763962D01*
X358785Y764046D01*
X358842Y764128D01*
X358902Y764207D01*
X358966Y764285D01*
X359032Y764359D01*
X359101Y764431D01*
X359173Y764500D01*
X359247Y764566D01*
X359325Y764630D01*
X359404Y764690D01*
X359486Y764747D01*
X359570Y764801D01*
X359656Y764851D01*
X359744Y764898D01*
X359834Y764942D01*
X359925Y764982D01*
X360018Y765018D01*
X360112Y765051D01*
X360208Y765080D01*
X360304Y765105D01*
X360401Y765126D01*
X360500Y765144D01*
X360598Y765157D01*
X360698Y765167D01*
X360797Y765173D01*
X360897Y765175D01*
X363437Y765175D01*
X367919Y762635D02*
X371094Y765175D01*
X371094Y753745D01*
X367919Y753745D02*
X374269Y753745D01*
X385699Y762318D02*
X385697Y762422D01*
X385691Y762527D01*
X385682Y762631D01*
X385669Y762734D01*
X385651Y762837D01*
X385631Y762939D01*
X385606Y763041D01*
X385578Y763141D01*
X385546Y763241D01*
X385510Y763339D01*
X385471Y763436D01*
X385429Y763531D01*
X385383Y763625D01*
X385333Y763717D01*
X385281Y763807D01*
X385225Y763895D01*
X385165Y763981D01*
X385103Y764065D01*
X385038Y764146D01*
X384970Y764225D01*
X384898Y764302D01*
X384825Y764375D01*
X384748Y764447D01*
X384669Y764515D01*
X384588Y764580D01*
X384504Y764642D01*
X384418Y764702D01*
X384330Y764758D01*
X384240Y764810D01*
X384148Y764860D01*
X384054Y764906D01*
X383959Y764948D01*
X383862Y764987D01*
X383764Y765023D01*
X383664Y765055D01*
X383564Y765083D01*
X383462Y765108D01*
X383360Y765128D01*
X383257Y765146D01*
X383154Y765159D01*
X383050Y765168D01*
X382945Y765174D01*
X382841Y765176D01*
X382841Y765175D02*
X382723Y765173D01*
X382604Y765167D01*
X382486Y765158D01*
X382369Y765145D01*
X382252Y765127D01*
X382135Y765107D01*
X382019Y765082D01*
X381904Y765054D01*
X381791Y765021D01*
X381678Y764986D01*
X381566Y764946D01*
X381456Y764904D01*
X381347Y764857D01*
X381239Y764807D01*
X381134Y764754D01*
X381030Y764697D01*
X380928Y764637D01*
X380828Y764574D01*
X380730Y764507D01*
X380634Y764438D01*
X380541Y764365D01*
X380450Y764289D01*
X380361Y764211D01*
X380275Y764129D01*
X380192Y764045D01*
X380111Y763959D01*
X380034Y763869D01*
X379959Y763778D01*
X379887Y763684D01*
X379818Y763587D01*
X379753Y763489D01*
X379690Y763388D01*
X379631Y763285D01*
X379575Y763181D01*
X379523Y763075D01*
X379474Y762967D01*
X379429Y762858D01*
X379387Y762747D01*
X379349Y762635D01*
X384747Y760096D02*
X384823Y760171D01*
X384898Y760250D01*
X384969Y760331D01*
X385038Y760415D01*
X385103Y760501D01*
X385165Y760589D01*
X385225Y760679D01*
X385281Y760771D01*
X385334Y760866D01*
X385383Y760962D01*
X385429Y761060D01*
X385472Y761159D01*
X385511Y761260D01*
X385546Y761362D01*
X385578Y761465D01*
X385606Y761569D01*
X385631Y761674D01*
X385652Y761781D01*
X385669Y761887D01*
X385682Y761994D01*
X385691Y762102D01*
X385697Y762210D01*
X385699Y762318D01*
X384746Y760095D02*
X379349Y753745D01*
X385699Y753745D01*
D10*
X397510Y266700D02*
X397510Y88900D01*
X339090Y88900D02*
X339090Y266700D01*
X339090Y88900D02*
X397510Y88900D01*
X397510Y266700D02*
X378460Y266700D01*
X358140Y266700D02*
X339090Y266700D01*
X358140Y266700D02*
X358143Y266453D01*
X358152Y266205D01*
X358167Y265958D01*
X358188Y265712D01*
X358215Y265466D01*
X358248Y265221D01*
X358287Y264976D01*
X358332Y264733D01*
X358383Y264491D01*
X358440Y264250D01*
X358502Y264011D01*
X358571Y263773D01*
X358645Y263537D01*
X358725Y263303D01*
X358810Y263071D01*
X358902Y262841D01*
X358998Y262613D01*
X359101Y262388D01*
X359208Y262165D01*
X359322Y261945D01*
X359440Y261728D01*
X359564Y261513D01*
X359693Y261302D01*
X359827Y261094D01*
X359966Y260889D01*
X360110Y260688D01*
X360258Y260490D01*
X360412Y260296D01*
X360570Y260106D01*
X360733Y259920D01*
X360900Y259738D01*
X361072Y259560D01*
X361248Y259386D01*
X361428Y259216D01*
X361613Y259051D01*
X361801Y258891D01*
X361993Y258735D01*
X362189Y258583D01*
X362388Y258437D01*
X362591Y258295D01*
X362798Y258159D01*
X363007Y258027D01*
X363220Y257901D01*
X363436Y257780D01*
X363654Y257664D01*
X363876Y257554D01*
X364100Y257449D01*
X364326Y257349D01*
X364555Y257255D01*
X364786Y257167D01*
X365020Y257084D01*
X365255Y257007D01*
X365492Y256936D01*
X365730Y256870D01*
X365970Y256811D01*
X366212Y256757D01*
X366455Y256709D01*
X366698Y256667D01*
X366943Y256631D01*
X367189Y256601D01*
X367435Y256577D01*
X367682Y256559D01*
X367929Y256547D01*
X368176Y256541D01*
X368424Y256541D01*
X368671Y256547D01*
X368918Y256559D01*
X369165Y256577D01*
X369411Y256601D01*
X369657Y256631D01*
X369902Y256667D01*
X370145Y256709D01*
X370388Y256757D01*
X370630Y256811D01*
X370870Y256870D01*
X371108Y256936D01*
X371345Y257007D01*
X371580Y257084D01*
X371814Y257167D01*
X372045Y257255D01*
X372274Y257349D01*
X372500Y257449D01*
X372724Y257554D01*
X372946Y257664D01*
X373164Y257780D01*
X373380Y257901D01*
X373593Y258027D01*
X373802Y258159D01*
X374009Y258295D01*
X374212Y258437D01*
X374411Y258583D01*
X374607Y258735D01*
X374799Y258891D01*
X374987Y259051D01*
X375172Y259216D01*
X375352Y259386D01*
X375528Y259560D01*
X375700Y259738D01*
X375867Y259920D01*
X376030Y260106D01*
X376188Y260296D01*
X376342Y260490D01*
X376490Y260688D01*
X376634Y260889D01*
X376773Y261094D01*
X376907Y261302D01*
X377036Y261513D01*
X377160Y261728D01*
X377278Y261945D01*
X377392Y262165D01*
X377499Y262388D01*
X377602Y262613D01*
X377698Y262841D01*
X377790Y263071D01*
X377875Y263303D01*
X377955Y263537D01*
X378029Y263773D01*
X378098Y264011D01*
X378160Y264250D01*
X378217Y264491D01*
X378268Y264733D01*
X378313Y264976D01*
X378352Y265221D01*
X378385Y265466D01*
X378412Y265712D01*
X378433Y265958D01*
X378448Y266205D01*
X378457Y266453D01*
X378460Y266700D01*
D11*
X339725Y271145D02*
X339725Y282575D01*
X338455Y271145D02*
X340995Y271145D01*
X340995Y282575D02*
X338455Y282575D01*
X348197Y271145D02*
X350737Y271145D01*
X348197Y271145D02*
X348097Y271147D01*
X347998Y271153D01*
X347898Y271163D01*
X347800Y271176D01*
X347701Y271194D01*
X347604Y271215D01*
X347508Y271240D01*
X347412Y271269D01*
X347318Y271302D01*
X347225Y271338D01*
X347134Y271378D01*
X347044Y271422D01*
X346956Y271469D01*
X346870Y271519D01*
X346786Y271573D01*
X346704Y271630D01*
X346625Y271690D01*
X346547Y271754D01*
X346473Y271820D01*
X346401Y271889D01*
X346332Y271961D01*
X346266Y272035D01*
X346202Y272113D01*
X346142Y272192D01*
X346085Y272274D01*
X346031Y272358D01*
X345981Y272444D01*
X345934Y272532D01*
X345890Y272622D01*
X345850Y272713D01*
X345814Y272806D01*
X345781Y272900D01*
X345752Y272996D01*
X345727Y273092D01*
X345706Y273189D01*
X345688Y273288D01*
X345675Y273386D01*
X345665Y273486D01*
X345659Y273585D01*
X345657Y273685D01*
X345657Y280035D01*
X345659Y280135D01*
X345665Y280234D01*
X345675Y280334D01*
X345688Y280432D01*
X345706Y280531D01*
X345727Y280628D01*
X345752Y280724D01*
X345781Y280820D01*
X345814Y280914D01*
X345850Y281007D01*
X345890Y281098D01*
X345934Y281188D01*
X345981Y281276D01*
X346031Y281362D01*
X346085Y281446D01*
X346142Y281528D01*
X346202Y281607D01*
X346266Y281685D01*
X346332Y281759D01*
X346401Y281831D01*
X346473Y281900D01*
X346547Y281966D01*
X346625Y282030D01*
X346704Y282090D01*
X346786Y282147D01*
X346870Y282201D01*
X346956Y282251D01*
X347044Y282298D01*
X347134Y282342D01*
X347225Y282382D01*
X347318Y282418D01*
X347412Y282451D01*
X347508Y282480D01*
X347604Y282505D01*
X347701Y282526D01*
X347800Y282544D01*
X347898Y282557D01*
X347998Y282567D01*
X348097Y282573D01*
X348197Y282575D01*
X350737Y282575D01*
X355219Y280035D02*
X358394Y282575D01*
X358394Y271145D01*
X355219Y271145D02*
X361569Y271145D01*
X366649Y271145D02*
X369824Y271145D01*
X369935Y271147D01*
X370045Y271153D01*
X370156Y271162D01*
X370266Y271176D01*
X370375Y271193D01*
X370484Y271214D01*
X370592Y271239D01*
X370699Y271268D01*
X370805Y271300D01*
X370910Y271336D01*
X371013Y271376D01*
X371115Y271419D01*
X371216Y271466D01*
X371315Y271517D01*
X371412Y271570D01*
X371506Y271627D01*
X371599Y271688D01*
X371690Y271751D01*
X371779Y271818D01*
X371865Y271888D01*
X371948Y271961D01*
X372030Y272036D01*
X372108Y272114D01*
X372183Y272196D01*
X372256Y272279D01*
X372326Y272365D01*
X372393Y272454D01*
X372456Y272545D01*
X372517Y272638D01*
X372574Y272732D01*
X372627Y272829D01*
X372678Y272928D01*
X372725Y273029D01*
X372768Y273131D01*
X372808Y273234D01*
X372844Y273339D01*
X372876Y273445D01*
X372905Y273552D01*
X372930Y273660D01*
X372951Y273769D01*
X372968Y273878D01*
X372982Y273988D01*
X372991Y274099D01*
X372997Y274209D01*
X372999Y274320D01*
X372997Y274431D01*
X372991Y274541D01*
X372982Y274652D01*
X372968Y274762D01*
X372951Y274871D01*
X372930Y274980D01*
X372905Y275088D01*
X372876Y275195D01*
X372844Y275301D01*
X372808Y275406D01*
X372768Y275509D01*
X372725Y275611D01*
X372678Y275712D01*
X372627Y275811D01*
X372574Y275907D01*
X372517Y276002D01*
X372456Y276095D01*
X372393Y276186D01*
X372326Y276275D01*
X372256Y276361D01*
X372183Y276444D01*
X372108Y276526D01*
X372030Y276604D01*
X371948Y276679D01*
X371865Y276752D01*
X371779Y276822D01*
X371690Y276889D01*
X371599Y276952D01*
X371506Y277013D01*
X371412Y277070D01*
X371315Y277123D01*
X371216Y277174D01*
X371115Y277221D01*
X371013Y277264D01*
X370910Y277304D01*
X370805Y277340D01*
X370699Y277372D01*
X370592Y277401D01*
X370484Y277426D01*
X370375Y277447D01*
X370266Y277464D01*
X370156Y277478D01*
X370045Y277487D01*
X369935Y277493D01*
X369824Y277495D01*
X370459Y282575D02*
X366649Y282575D01*
X370459Y282575D02*
X370559Y282573D01*
X370658Y282567D01*
X370758Y282557D01*
X370856Y282544D01*
X370955Y282526D01*
X371052Y282505D01*
X371148Y282480D01*
X371244Y282451D01*
X371338Y282418D01*
X371431Y282382D01*
X371522Y282342D01*
X371612Y282298D01*
X371700Y282251D01*
X371786Y282201D01*
X371870Y282147D01*
X371952Y282090D01*
X372031Y282030D01*
X372109Y281966D01*
X372183Y281900D01*
X372255Y281831D01*
X372324Y281759D01*
X372390Y281685D01*
X372454Y281607D01*
X372514Y281528D01*
X372571Y281446D01*
X372625Y281362D01*
X372675Y281276D01*
X372722Y281188D01*
X372766Y281098D01*
X372806Y281007D01*
X372842Y280914D01*
X372875Y280820D01*
X372904Y280724D01*
X372929Y280628D01*
X372950Y280531D01*
X372968Y280432D01*
X372981Y280334D01*
X372991Y280234D01*
X372997Y280135D01*
X372999Y280035D01*
X372997Y279935D01*
X372991Y279836D01*
X372981Y279736D01*
X372968Y279638D01*
X372950Y279539D01*
X372929Y279442D01*
X372904Y279346D01*
X372875Y279250D01*
X372842Y279156D01*
X372806Y279063D01*
X372766Y278972D01*
X372722Y278882D01*
X372675Y278794D01*
X372625Y278708D01*
X372571Y278624D01*
X372514Y278542D01*
X372454Y278463D01*
X372390Y278385D01*
X372324Y278311D01*
X372255Y278239D01*
X372183Y278170D01*
X372109Y278104D01*
X372031Y278040D01*
X371952Y277980D01*
X371870Y277923D01*
X371786Y277869D01*
X371700Y277819D01*
X371612Y277772D01*
X371522Y277728D01*
X371431Y277688D01*
X371338Y277652D01*
X371244Y277619D01*
X371148Y277590D01*
X371052Y277565D01*
X370955Y277544D01*
X370856Y277526D01*
X370758Y277513D01*
X370658Y277503D01*
X370559Y277497D01*
X370459Y277495D01*
X367919Y277495D01*
D10*
X676910Y368300D02*
X676910Y546100D01*
X618490Y546100D02*
X618490Y368300D01*
X676910Y368300D01*
X676910Y546100D02*
X657860Y546100D01*
X637540Y546100D02*
X618490Y546100D01*
X637540Y546100D02*
X637543Y545853D01*
X637552Y545605D01*
X637567Y545358D01*
X637588Y545112D01*
X637615Y544866D01*
X637648Y544621D01*
X637687Y544376D01*
X637732Y544133D01*
X637783Y543891D01*
X637840Y543650D01*
X637902Y543411D01*
X637971Y543173D01*
X638045Y542937D01*
X638125Y542703D01*
X638210Y542471D01*
X638302Y542241D01*
X638398Y542013D01*
X638501Y541788D01*
X638608Y541565D01*
X638722Y541345D01*
X638840Y541128D01*
X638964Y540913D01*
X639093Y540702D01*
X639227Y540494D01*
X639366Y540289D01*
X639510Y540088D01*
X639658Y539890D01*
X639812Y539696D01*
X639970Y539506D01*
X640133Y539320D01*
X640300Y539138D01*
X640472Y538960D01*
X640648Y538786D01*
X640828Y538616D01*
X641013Y538451D01*
X641201Y538291D01*
X641393Y538135D01*
X641589Y537983D01*
X641788Y537837D01*
X641991Y537695D01*
X642198Y537559D01*
X642407Y537427D01*
X642620Y537301D01*
X642836Y537180D01*
X643054Y537064D01*
X643276Y536954D01*
X643500Y536849D01*
X643726Y536749D01*
X643955Y536655D01*
X644186Y536567D01*
X644420Y536484D01*
X644655Y536407D01*
X644892Y536336D01*
X645130Y536270D01*
X645370Y536211D01*
X645612Y536157D01*
X645855Y536109D01*
X646098Y536067D01*
X646343Y536031D01*
X646589Y536001D01*
X646835Y535977D01*
X647082Y535959D01*
X647329Y535947D01*
X647576Y535941D01*
X647824Y535941D01*
X648071Y535947D01*
X648318Y535959D01*
X648565Y535977D01*
X648811Y536001D01*
X649057Y536031D01*
X649302Y536067D01*
X649545Y536109D01*
X649788Y536157D01*
X650030Y536211D01*
X650270Y536270D01*
X650508Y536336D01*
X650745Y536407D01*
X650980Y536484D01*
X651214Y536567D01*
X651445Y536655D01*
X651674Y536749D01*
X651900Y536849D01*
X652124Y536954D01*
X652346Y537064D01*
X652564Y537180D01*
X652780Y537301D01*
X652993Y537427D01*
X653202Y537559D01*
X653409Y537695D01*
X653612Y537837D01*
X653811Y537983D01*
X654007Y538135D01*
X654199Y538291D01*
X654387Y538451D01*
X654572Y538616D01*
X654752Y538786D01*
X654928Y538960D01*
X655100Y539138D01*
X655267Y539320D01*
X655430Y539506D01*
X655588Y539696D01*
X655742Y539890D01*
X655890Y540088D01*
X656034Y540289D01*
X656173Y540494D01*
X656307Y540702D01*
X656436Y540913D01*
X656560Y541128D01*
X656678Y541345D01*
X656792Y541565D01*
X656899Y541788D01*
X657002Y542013D01*
X657098Y542241D01*
X657190Y542471D01*
X657275Y542703D01*
X657355Y542937D01*
X657429Y543173D01*
X657498Y543411D01*
X657560Y543650D01*
X657617Y543891D01*
X657668Y544133D01*
X657713Y544376D01*
X657752Y544621D01*
X657785Y544866D01*
X657812Y545112D01*
X657833Y545358D01*
X657848Y545605D01*
X657857Y545853D01*
X657860Y546100D01*
D11*
X619125Y550545D02*
X619125Y561975D01*
X617855Y550545D02*
X620395Y550545D01*
X620395Y561975D02*
X617855Y561975D01*
X627597Y550545D02*
X630137Y550545D01*
X627597Y550545D02*
X627497Y550547D01*
X627398Y550553D01*
X627298Y550563D01*
X627200Y550576D01*
X627101Y550594D01*
X627004Y550615D01*
X626908Y550640D01*
X626812Y550669D01*
X626718Y550702D01*
X626625Y550738D01*
X626534Y550778D01*
X626444Y550822D01*
X626356Y550869D01*
X626270Y550919D01*
X626186Y550973D01*
X626104Y551030D01*
X626025Y551090D01*
X625947Y551154D01*
X625873Y551220D01*
X625801Y551289D01*
X625732Y551361D01*
X625666Y551435D01*
X625602Y551513D01*
X625542Y551592D01*
X625485Y551674D01*
X625431Y551758D01*
X625381Y551844D01*
X625334Y551932D01*
X625290Y552022D01*
X625250Y552113D01*
X625214Y552206D01*
X625181Y552300D01*
X625152Y552396D01*
X625127Y552492D01*
X625106Y552589D01*
X625088Y552688D01*
X625075Y552786D01*
X625065Y552886D01*
X625059Y552985D01*
X625057Y553085D01*
X625057Y559435D01*
X625059Y559535D01*
X625065Y559634D01*
X625075Y559734D01*
X625088Y559832D01*
X625106Y559931D01*
X625127Y560028D01*
X625152Y560124D01*
X625181Y560220D01*
X625214Y560314D01*
X625250Y560407D01*
X625290Y560498D01*
X625334Y560588D01*
X625381Y560676D01*
X625431Y560762D01*
X625485Y560846D01*
X625542Y560928D01*
X625602Y561007D01*
X625666Y561085D01*
X625732Y561159D01*
X625801Y561231D01*
X625873Y561300D01*
X625947Y561366D01*
X626025Y561430D01*
X626104Y561490D01*
X626186Y561547D01*
X626270Y561601D01*
X626356Y561651D01*
X626444Y561698D01*
X626534Y561742D01*
X626625Y561782D01*
X626718Y561818D01*
X626812Y561851D01*
X626908Y561880D01*
X627004Y561905D01*
X627101Y561926D01*
X627200Y561944D01*
X627298Y561957D01*
X627398Y561967D01*
X627497Y561973D01*
X627597Y561975D01*
X630137Y561975D01*
X634619Y559435D02*
X637794Y561975D01*
X637794Y550545D01*
X634619Y550545D02*
X640969Y550545D01*
X646049Y553085D02*
X648589Y561975D01*
X646049Y553085D02*
X652399Y553085D01*
X650494Y555625D02*
X650494Y550545D01*
D10*
X778510Y342900D02*
X778510Y165100D01*
X720090Y165100D02*
X720090Y342900D01*
X720090Y165100D02*
X778510Y165100D01*
X778510Y342900D02*
X759460Y342900D01*
X739140Y342900D02*
X720090Y342900D01*
X739140Y342900D02*
X739143Y342653D01*
X739152Y342405D01*
X739167Y342158D01*
X739188Y341912D01*
X739215Y341666D01*
X739248Y341421D01*
X739287Y341176D01*
X739332Y340933D01*
X739383Y340691D01*
X739440Y340450D01*
X739502Y340211D01*
X739571Y339973D01*
X739645Y339737D01*
X739725Y339503D01*
X739810Y339271D01*
X739902Y339041D01*
X739998Y338813D01*
X740101Y338588D01*
X740208Y338365D01*
X740322Y338145D01*
X740440Y337928D01*
X740564Y337713D01*
X740693Y337502D01*
X740827Y337294D01*
X740966Y337089D01*
X741110Y336888D01*
X741258Y336690D01*
X741412Y336496D01*
X741570Y336306D01*
X741733Y336120D01*
X741900Y335938D01*
X742072Y335760D01*
X742248Y335586D01*
X742428Y335416D01*
X742613Y335251D01*
X742801Y335091D01*
X742993Y334935D01*
X743189Y334783D01*
X743388Y334637D01*
X743591Y334495D01*
X743798Y334359D01*
X744007Y334227D01*
X744220Y334101D01*
X744436Y333980D01*
X744654Y333864D01*
X744876Y333754D01*
X745100Y333649D01*
X745326Y333549D01*
X745555Y333455D01*
X745786Y333367D01*
X746020Y333284D01*
X746255Y333207D01*
X746492Y333136D01*
X746730Y333070D01*
X746970Y333011D01*
X747212Y332957D01*
X747455Y332909D01*
X747698Y332867D01*
X747943Y332831D01*
X748189Y332801D01*
X748435Y332777D01*
X748682Y332759D01*
X748929Y332747D01*
X749176Y332741D01*
X749424Y332741D01*
X749671Y332747D01*
X749918Y332759D01*
X750165Y332777D01*
X750411Y332801D01*
X750657Y332831D01*
X750902Y332867D01*
X751145Y332909D01*
X751388Y332957D01*
X751630Y333011D01*
X751870Y333070D01*
X752108Y333136D01*
X752345Y333207D01*
X752580Y333284D01*
X752814Y333367D01*
X753045Y333455D01*
X753274Y333549D01*
X753500Y333649D01*
X753724Y333754D01*
X753946Y333864D01*
X754164Y333980D01*
X754380Y334101D01*
X754593Y334227D01*
X754802Y334359D01*
X755009Y334495D01*
X755212Y334637D01*
X755411Y334783D01*
X755607Y334935D01*
X755799Y335091D01*
X755987Y335251D01*
X756172Y335416D01*
X756352Y335586D01*
X756528Y335760D01*
X756700Y335938D01*
X756867Y336120D01*
X757030Y336306D01*
X757188Y336496D01*
X757342Y336690D01*
X757490Y336888D01*
X757634Y337089D01*
X757773Y337294D01*
X757907Y337502D01*
X758036Y337713D01*
X758160Y337928D01*
X758278Y338145D01*
X758392Y338365D01*
X758499Y338588D01*
X758602Y338813D01*
X758698Y339041D01*
X758790Y339271D01*
X758875Y339503D01*
X758955Y339737D01*
X759029Y339973D01*
X759098Y340211D01*
X759160Y340450D01*
X759217Y340691D01*
X759268Y340933D01*
X759313Y341176D01*
X759352Y341421D01*
X759385Y341666D01*
X759412Y341912D01*
X759433Y342158D01*
X759448Y342405D01*
X759457Y342653D01*
X759460Y342900D01*
D11*
X720725Y347345D02*
X720725Y358775D01*
X719455Y347345D02*
X721995Y347345D01*
X721995Y358775D02*
X719455Y358775D01*
X729197Y347345D02*
X731737Y347345D01*
X729197Y347345D02*
X729097Y347347D01*
X728998Y347353D01*
X728898Y347363D01*
X728800Y347376D01*
X728701Y347394D01*
X728604Y347415D01*
X728508Y347440D01*
X728412Y347469D01*
X728318Y347502D01*
X728225Y347538D01*
X728134Y347578D01*
X728044Y347622D01*
X727956Y347669D01*
X727870Y347719D01*
X727786Y347773D01*
X727704Y347830D01*
X727625Y347890D01*
X727547Y347954D01*
X727473Y348020D01*
X727401Y348089D01*
X727332Y348161D01*
X727266Y348235D01*
X727202Y348313D01*
X727142Y348392D01*
X727085Y348474D01*
X727031Y348558D01*
X726981Y348644D01*
X726934Y348732D01*
X726890Y348822D01*
X726850Y348913D01*
X726814Y349006D01*
X726781Y349100D01*
X726752Y349196D01*
X726727Y349292D01*
X726706Y349389D01*
X726688Y349488D01*
X726675Y349586D01*
X726665Y349686D01*
X726659Y349785D01*
X726657Y349885D01*
X726657Y356235D01*
X726659Y356335D01*
X726665Y356434D01*
X726675Y356534D01*
X726688Y356632D01*
X726706Y356731D01*
X726727Y356828D01*
X726752Y356924D01*
X726781Y357020D01*
X726814Y357114D01*
X726850Y357207D01*
X726890Y357298D01*
X726934Y357388D01*
X726981Y357476D01*
X727031Y357562D01*
X727085Y357646D01*
X727142Y357728D01*
X727202Y357807D01*
X727266Y357885D01*
X727332Y357959D01*
X727401Y358031D01*
X727473Y358100D01*
X727547Y358166D01*
X727625Y358230D01*
X727704Y358290D01*
X727786Y358347D01*
X727870Y358401D01*
X727956Y358451D01*
X728044Y358498D01*
X728134Y358542D01*
X728225Y358582D01*
X728318Y358618D01*
X728412Y358651D01*
X728508Y358680D01*
X728604Y358705D01*
X728701Y358726D01*
X728800Y358744D01*
X728898Y358757D01*
X728998Y358767D01*
X729097Y358773D01*
X729197Y358775D01*
X731737Y358775D01*
X736219Y356235D02*
X739394Y358775D01*
X739394Y347345D01*
X736219Y347345D02*
X742569Y347345D01*
X747649Y347345D02*
X751459Y347345D01*
X751559Y347347D01*
X751658Y347353D01*
X751758Y347363D01*
X751856Y347376D01*
X751955Y347394D01*
X752052Y347415D01*
X752148Y347440D01*
X752244Y347469D01*
X752338Y347502D01*
X752431Y347538D01*
X752522Y347578D01*
X752612Y347622D01*
X752700Y347669D01*
X752786Y347719D01*
X752870Y347773D01*
X752952Y347830D01*
X753031Y347890D01*
X753109Y347954D01*
X753183Y348020D01*
X753255Y348089D01*
X753324Y348161D01*
X753390Y348235D01*
X753454Y348313D01*
X753514Y348392D01*
X753571Y348474D01*
X753625Y348558D01*
X753675Y348644D01*
X753722Y348732D01*
X753766Y348822D01*
X753806Y348913D01*
X753842Y349006D01*
X753875Y349100D01*
X753904Y349196D01*
X753929Y349292D01*
X753950Y349389D01*
X753968Y349488D01*
X753981Y349586D01*
X753991Y349686D01*
X753997Y349785D01*
X753999Y349885D01*
X753999Y351155D01*
X753997Y351255D01*
X753991Y351354D01*
X753981Y351454D01*
X753968Y351552D01*
X753950Y351651D01*
X753929Y351748D01*
X753904Y351844D01*
X753875Y351940D01*
X753842Y352034D01*
X753806Y352127D01*
X753766Y352218D01*
X753722Y352308D01*
X753675Y352396D01*
X753625Y352482D01*
X753571Y352566D01*
X753514Y352648D01*
X753454Y352727D01*
X753390Y352805D01*
X753324Y352879D01*
X753255Y352951D01*
X753183Y353020D01*
X753109Y353086D01*
X753031Y353150D01*
X752952Y353210D01*
X752870Y353267D01*
X752786Y353321D01*
X752700Y353371D01*
X752612Y353418D01*
X752522Y353462D01*
X752431Y353502D01*
X752338Y353538D01*
X752244Y353571D01*
X752148Y353600D01*
X752052Y353625D01*
X751955Y353646D01*
X751856Y353664D01*
X751758Y353677D01*
X751658Y353687D01*
X751559Y353693D01*
X751459Y353695D01*
X747649Y353695D01*
X747649Y358775D01*
X753999Y358775D01*
D10*
X676910Y596900D02*
X676910Y774700D01*
X618490Y774700D02*
X618490Y596900D01*
X676910Y596900D01*
X676910Y774700D02*
X657860Y774700D01*
X637540Y774700D02*
X618490Y774700D01*
X637540Y774700D02*
X637543Y774453D01*
X637552Y774205D01*
X637567Y773958D01*
X637588Y773712D01*
X637615Y773466D01*
X637648Y773221D01*
X637687Y772976D01*
X637732Y772733D01*
X637783Y772491D01*
X637840Y772250D01*
X637902Y772011D01*
X637971Y771773D01*
X638045Y771537D01*
X638125Y771303D01*
X638210Y771071D01*
X638302Y770841D01*
X638398Y770613D01*
X638501Y770388D01*
X638608Y770165D01*
X638722Y769945D01*
X638840Y769728D01*
X638964Y769513D01*
X639093Y769302D01*
X639227Y769094D01*
X639366Y768889D01*
X639510Y768688D01*
X639658Y768490D01*
X639812Y768296D01*
X639970Y768106D01*
X640133Y767920D01*
X640300Y767738D01*
X640472Y767560D01*
X640648Y767386D01*
X640828Y767216D01*
X641013Y767051D01*
X641201Y766891D01*
X641393Y766735D01*
X641589Y766583D01*
X641788Y766437D01*
X641991Y766295D01*
X642198Y766159D01*
X642407Y766027D01*
X642620Y765901D01*
X642836Y765780D01*
X643054Y765664D01*
X643276Y765554D01*
X643500Y765449D01*
X643726Y765349D01*
X643955Y765255D01*
X644186Y765167D01*
X644420Y765084D01*
X644655Y765007D01*
X644892Y764936D01*
X645130Y764870D01*
X645370Y764811D01*
X645612Y764757D01*
X645855Y764709D01*
X646098Y764667D01*
X646343Y764631D01*
X646589Y764601D01*
X646835Y764577D01*
X647082Y764559D01*
X647329Y764547D01*
X647576Y764541D01*
X647824Y764541D01*
X648071Y764547D01*
X648318Y764559D01*
X648565Y764577D01*
X648811Y764601D01*
X649057Y764631D01*
X649302Y764667D01*
X649545Y764709D01*
X649788Y764757D01*
X650030Y764811D01*
X650270Y764870D01*
X650508Y764936D01*
X650745Y765007D01*
X650980Y765084D01*
X651214Y765167D01*
X651445Y765255D01*
X651674Y765349D01*
X651900Y765449D01*
X652124Y765554D01*
X652346Y765664D01*
X652564Y765780D01*
X652780Y765901D01*
X652993Y766027D01*
X653202Y766159D01*
X653409Y766295D01*
X653612Y766437D01*
X653811Y766583D01*
X654007Y766735D01*
X654199Y766891D01*
X654387Y767051D01*
X654572Y767216D01*
X654752Y767386D01*
X654928Y767560D01*
X655100Y767738D01*
X655267Y767920D01*
X655430Y768106D01*
X655588Y768296D01*
X655742Y768490D01*
X655890Y768688D01*
X656034Y768889D01*
X656173Y769094D01*
X656307Y769302D01*
X656436Y769513D01*
X656560Y769728D01*
X656678Y769945D01*
X656792Y770165D01*
X656899Y770388D01*
X657002Y770613D01*
X657098Y770841D01*
X657190Y771071D01*
X657275Y771303D01*
X657355Y771537D01*
X657429Y771773D01*
X657498Y772011D01*
X657560Y772250D01*
X657617Y772491D01*
X657668Y772733D01*
X657713Y772976D01*
X657752Y773221D01*
X657785Y773466D01*
X657812Y773712D01*
X657833Y773958D01*
X657848Y774205D01*
X657857Y774453D01*
X657860Y774700D01*
D11*
X619125Y779145D02*
X619125Y790575D01*
X617855Y779145D02*
X620395Y779145D01*
X620395Y790575D02*
X617855Y790575D01*
X627597Y779145D02*
X630137Y779145D01*
X627597Y779145D02*
X627497Y779147D01*
X627398Y779153D01*
X627298Y779163D01*
X627200Y779176D01*
X627101Y779194D01*
X627004Y779215D01*
X626908Y779240D01*
X626812Y779269D01*
X626718Y779302D01*
X626625Y779338D01*
X626534Y779378D01*
X626444Y779422D01*
X626356Y779469D01*
X626270Y779519D01*
X626186Y779573D01*
X626104Y779630D01*
X626025Y779690D01*
X625947Y779754D01*
X625873Y779820D01*
X625801Y779889D01*
X625732Y779961D01*
X625666Y780035D01*
X625602Y780113D01*
X625542Y780192D01*
X625485Y780274D01*
X625431Y780358D01*
X625381Y780444D01*
X625334Y780532D01*
X625290Y780622D01*
X625250Y780713D01*
X625214Y780806D01*
X625181Y780900D01*
X625152Y780996D01*
X625127Y781092D01*
X625106Y781189D01*
X625088Y781288D01*
X625075Y781386D01*
X625065Y781486D01*
X625059Y781585D01*
X625057Y781685D01*
X625057Y788035D01*
X625059Y788135D01*
X625065Y788234D01*
X625075Y788334D01*
X625088Y788432D01*
X625106Y788531D01*
X625127Y788628D01*
X625152Y788724D01*
X625181Y788820D01*
X625214Y788914D01*
X625250Y789007D01*
X625290Y789098D01*
X625334Y789188D01*
X625381Y789276D01*
X625431Y789362D01*
X625485Y789446D01*
X625542Y789528D01*
X625602Y789607D01*
X625666Y789685D01*
X625732Y789759D01*
X625801Y789831D01*
X625873Y789900D01*
X625947Y789966D01*
X626025Y790030D01*
X626104Y790090D01*
X626186Y790147D01*
X626270Y790201D01*
X626356Y790251D01*
X626444Y790298D01*
X626534Y790342D01*
X626625Y790382D01*
X626718Y790418D01*
X626812Y790451D01*
X626908Y790480D01*
X627004Y790505D01*
X627101Y790526D01*
X627200Y790544D01*
X627298Y790557D01*
X627398Y790567D01*
X627497Y790573D01*
X627597Y790575D01*
X630137Y790575D01*
X634619Y788035D02*
X637794Y790575D01*
X637794Y779145D01*
X634619Y779145D02*
X640969Y779145D01*
X646049Y785495D02*
X649859Y785495D01*
X649959Y785493D01*
X650058Y785487D01*
X650158Y785477D01*
X650256Y785464D01*
X650355Y785446D01*
X650452Y785425D01*
X650548Y785400D01*
X650644Y785371D01*
X650738Y785338D01*
X650831Y785302D01*
X650922Y785262D01*
X651012Y785218D01*
X651100Y785171D01*
X651186Y785121D01*
X651270Y785067D01*
X651352Y785010D01*
X651431Y784950D01*
X651509Y784886D01*
X651583Y784820D01*
X651655Y784751D01*
X651724Y784679D01*
X651790Y784605D01*
X651854Y784527D01*
X651914Y784448D01*
X651971Y784366D01*
X652025Y784282D01*
X652075Y784196D01*
X652122Y784108D01*
X652166Y784018D01*
X652206Y783927D01*
X652242Y783834D01*
X652275Y783740D01*
X652304Y783644D01*
X652329Y783548D01*
X652350Y783451D01*
X652368Y783352D01*
X652381Y783254D01*
X652391Y783154D01*
X652397Y783055D01*
X652399Y782955D01*
X652399Y782320D01*
X652397Y782209D01*
X652391Y782099D01*
X652382Y781988D01*
X652368Y781878D01*
X652351Y781769D01*
X652330Y781660D01*
X652305Y781552D01*
X652276Y781445D01*
X652244Y781339D01*
X652208Y781234D01*
X652168Y781131D01*
X652125Y781029D01*
X652078Y780928D01*
X652027Y780829D01*
X651974Y780733D01*
X651917Y780638D01*
X651856Y780545D01*
X651793Y780454D01*
X651726Y780365D01*
X651656Y780279D01*
X651583Y780196D01*
X651508Y780114D01*
X651430Y780036D01*
X651348Y779961D01*
X651265Y779888D01*
X651179Y779818D01*
X651090Y779751D01*
X650999Y779688D01*
X650906Y779627D01*
X650812Y779570D01*
X650715Y779517D01*
X650616Y779466D01*
X650515Y779419D01*
X650413Y779376D01*
X650310Y779336D01*
X650205Y779300D01*
X650099Y779268D01*
X649992Y779239D01*
X649884Y779214D01*
X649775Y779193D01*
X649666Y779176D01*
X649556Y779162D01*
X649445Y779153D01*
X649335Y779147D01*
X649224Y779145D01*
X649113Y779147D01*
X649003Y779153D01*
X648892Y779162D01*
X648782Y779176D01*
X648673Y779193D01*
X648564Y779214D01*
X648456Y779239D01*
X648349Y779268D01*
X648243Y779300D01*
X648138Y779336D01*
X648035Y779376D01*
X647933Y779419D01*
X647832Y779466D01*
X647733Y779517D01*
X647637Y779570D01*
X647542Y779627D01*
X647449Y779688D01*
X647358Y779751D01*
X647269Y779818D01*
X647183Y779888D01*
X647100Y779961D01*
X647018Y780036D01*
X646940Y780114D01*
X646865Y780196D01*
X646792Y780279D01*
X646722Y780365D01*
X646655Y780454D01*
X646592Y780545D01*
X646531Y780638D01*
X646474Y780733D01*
X646421Y780829D01*
X646370Y780928D01*
X646323Y781029D01*
X646280Y781131D01*
X646240Y781234D01*
X646204Y781339D01*
X646172Y781445D01*
X646143Y781552D01*
X646118Y781660D01*
X646097Y781769D01*
X646080Y781878D01*
X646066Y781988D01*
X646057Y782099D01*
X646051Y782209D01*
X646049Y782320D01*
X646049Y785495D01*
X646051Y785635D01*
X646057Y785775D01*
X646066Y785915D01*
X646080Y786054D01*
X646097Y786193D01*
X646118Y786331D01*
X646143Y786469D01*
X646172Y786606D01*
X646204Y786742D01*
X646241Y786877D01*
X646281Y787011D01*
X646324Y787144D01*
X646372Y787276D01*
X646422Y787407D01*
X646477Y787536D01*
X646535Y787663D01*
X646596Y787789D01*
X646661Y787913D01*
X646730Y788035D01*
X646801Y788155D01*
X646876Y788273D01*
X646954Y788390D01*
X647036Y788504D01*
X647120Y788615D01*
X647208Y788724D01*
X647298Y788831D01*
X647392Y788936D01*
X647488Y789037D01*
X647587Y789136D01*
X647688Y789232D01*
X647793Y789326D01*
X647900Y789416D01*
X648009Y789504D01*
X648120Y789588D01*
X648234Y789670D01*
X648351Y789748D01*
X648469Y789823D01*
X648589Y789894D01*
X648711Y789963D01*
X648835Y790028D01*
X648961Y790089D01*
X649088Y790147D01*
X649217Y790202D01*
X649348Y790252D01*
X649480Y790300D01*
X649613Y790343D01*
X649747Y790383D01*
X649882Y790420D01*
X650018Y790452D01*
X650155Y790481D01*
X650293Y790506D01*
X650431Y790527D01*
X650570Y790544D01*
X650709Y790558D01*
X650849Y790567D01*
X650989Y790573D01*
X651129Y790575D01*
D10*
X537210Y546100D02*
X537210Y368300D01*
X478790Y368300D02*
X478790Y546100D01*
X478790Y368300D02*
X537210Y368300D01*
X537210Y546100D02*
X518160Y546100D01*
X497840Y546100D02*
X478790Y546100D01*
X497840Y546100D02*
X497843Y545853D01*
X497852Y545605D01*
X497867Y545358D01*
X497888Y545112D01*
X497915Y544866D01*
X497948Y544621D01*
X497987Y544376D01*
X498032Y544133D01*
X498083Y543891D01*
X498140Y543650D01*
X498202Y543411D01*
X498271Y543173D01*
X498345Y542937D01*
X498425Y542703D01*
X498510Y542471D01*
X498602Y542241D01*
X498698Y542013D01*
X498801Y541788D01*
X498908Y541565D01*
X499022Y541345D01*
X499140Y541128D01*
X499264Y540913D01*
X499393Y540702D01*
X499527Y540494D01*
X499666Y540289D01*
X499810Y540088D01*
X499958Y539890D01*
X500112Y539696D01*
X500270Y539506D01*
X500433Y539320D01*
X500600Y539138D01*
X500772Y538960D01*
X500948Y538786D01*
X501128Y538616D01*
X501313Y538451D01*
X501501Y538291D01*
X501693Y538135D01*
X501889Y537983D01*
X502088Y537837D01*
X502291Y537695D01*
X502498Y537559D01*
X502707Y537427D01*
X502920Y537301D01*
X503136Y537180D01*
X503354Y537064D01*
X503576Y536954D01*
X503800Y536849D01*
X504026Y536749D01*
X504255Y536655D01*
X504486Y536567D01*
X504720Y536484D01*
X504955Y536407D01*
X505192Y536336D01*
X505430Y536270D01*
X505670Y536211D01*
X505912Y536157D01*
X506155Y536109D01*
X506398Y536067D01*
X506643Y536031D01*
X506889Y536001D01*
X507135Y535977D01*
X507382Y535959D01*
X507629Y535947D01*
X507876Y535941D01*
X508124Y535941D01*
X508371Y535947D01*
X508618Y535959D01*
X508865Y535977D01*
X509111Y536001D01*
X509357Y536031D01*
X509602Y536067D01*
X509845Y536109D01*
X510088Y536157D01*
X510330Y536211D01*
X510570Y536270D01*
X510808Y536336D01*
X511045Y536407D01*
X511280Y536484D01*
X511514Y536567D01*
X511745Y536655D01*
X511974Y536749D01*
X512200Y536849D01*
X512424Y536954D01*
X512646Y537064D01*
X512864Y537180D01*
X513080Y537301D01*
X513293Y537427D01*
X513502Y537559D01*
X513709Y537695D01*
X513912Y537837D01*
X514111Y537983D01*
X514307Y538135D01*
X514499Y538291D01*
X514687Y538451D01*
X514872Y538616D01*
X515052Y538786D01*
X515228Y538960D01*
X515400Y539138D01*
X515567Y539320D01*
X515730Y539506D01*
X515888Y539696D01*
X516042Y539890D01*
X516190Y540088D01*
X516334Y540289D01*
X516473Y540494D01*
X516607Y540702D01*
X516736Y540913D01*
X516860Y541128D01*
X516978Y541345D01*
X517092Y541565D01*
X517199Y541788D01*
X517302Y542013D01*
X517398Y542241D01*
X517490Y542471D01*
X517575Y542703D01*
X517655Y542937D01*
X517729Y543173D01*
X517798Y543411D01*
X517860Y543650D01*
X517917Y543891D01*
X517968Y544133D01*
X518013Y544376D01*
X518052Y544621D01*
X518085Y544866D01*
X518112Y545112D01*
X518133Y545358D01*
X518148Y545605D01*
X518157Y545853D01*
X518160Y546100D01*
D11*
X479425Y550545D02*
X479425Y561975D01*
X478155Y550545D02*
X480695Y550545D01*
X480695Y561975D02*
X478155Y561975D01*
X487897Y550545D02*
X490437Y550545D01*
X487897Y550545D02*
X487797Y550547D01*
X487698Y550553D01*
X487598Y550563D01*
X487500Y550576D01*
X487401Y550594D01*
X487304Y550615D01*
X487208Y550640D01*
X487112Y550669D01*
X487018Y550702D01*
X486925Y550738D01*
X486834Y550778D01*
X486744Y550822D01*
X486656Y550869D01*
X486570Y550919D01*
X486486Y550973D01*
X486404Y551030D01*
X486325Y551090D01*
X486247Y551154D01*
X486173Y551220D01*
X486101Y551289D01*
X486032Y551361D01*
X485966Y551435D01*
X485902Y551513D01*
X485842Y551592D01*
X485785Y551674D01*
X485731Y551758D01*
X485681Y551844D01*
X485634Y551932D01*
X485590Y552022D01*
X485550Y552113D01*
X485514Y552206D01*
X485481Y552300D01*
X485452Y552396D01*
X485427Y552492D01*
X485406Y552589D01*
X485388Y552688D01*
X485375Y552786D01*
X485365Y552886D01*
X485359Y552985D01*
X485357Y553085D01*
X485357Y559435D01*
X485359Y559535D01*
X485365Y559634D01*
X485375Y559734D01*
X485388Y559832D01*
X485406Y559931D01*
X485427Y560028D01*
X485452Y560124D01*
X485481Y560220D01*
X485514Y560314D01*
X485550Y560407D01*
X485590Y560498D01*
X485634Y560588D01*
X485681Y560676D01*
X485731Y560762D01*
X485785Y560846D01*
X485842Y560928D01*
X485902Y561007D01*
X485966Y561085D01*
X486032Y561159D01*
X486101Y561231D01*
X486173Y561300D01*
X486247Y561366D01*
X486325Y561430D01*
X486404Y561490D01*
X486486Y561547D01*
X486570Y561601D01*
X486656Y561651D01*
X486744Y561698D01*
X486834Y561742D01*
X486925Y561782D01*
X487018Y561818D01*
X487112Y561851D01*
X487208Y561880D01*
X487304Y561905D01*
X487401Y561926D01*
X487500Y561944D01*
X487598Y561957D01*
X487698Y561967D01*
X487797Y561973D01*
X487897Y561975D01*
X490437Y561975D01*
X494919Y559435D02*
X498094Y561975D01*
X498094Y550545D01*
X494919Y550545D02*
X501269Y550545D01*
X506349Y560705D02*
X506349Y561975D01*
X512699Y561975D01*
X509524Y550545D01*
D10*
X943610Y584200D02*
X943610Y406400D01*
X885190Y406400D02*
X885190Y584200D01*
X885190Y406400D02*
X943610Y406400D01*
X943610Y584200D02*
X924560Y584200D01*
X904240Y584200D02*
X885190Y584200D01*
X904240Y584200D02*
X904243Y583953D01*
X904252Y583705D01*
X904267Y583458D01*
X904288Y583212D01*
X904315Y582966D01*
X904348Y582721D01*
X904387Y582476D01*
X904432Y582233D01*
X904483Y581991D01*
X904540Y581750D01*
X904602Y581511D01*
X904671Y581273D01*
X904745Y581037D01*
X904825Y580803D01*
X904910Y580571D01*
X905002Y580341D01*
X905098Y580113D01*
X905201Y579888D01*
X905308Y579665D01*
X905422Y579445D01*
X905540Y579228D01*
X905664Y579013D01*
X905793Y578802D01*
X905927Y578594D01*
X906066Y578389D01*
X906210Y578188D01*
X906358Y577990D01*
X906512Y577796D01*
X906670Y577606D01*
X906833Y577420D01*
X907000Y577238D01*
X907172Y577060D01*
X907348Y576886D01*
X907528Y576716D01*
X907713Y576551D01*
X907901Y576391D01*
X908093Y576235D01*
X908289Y576083D01*
X908488Y575937D01*
X908691Y575795D01*
X908898Y575659D01*
X909107Y575527D01*
X909320Y575401D01*
X909536Y575280D01*
X909754Y575164D01*
X909976Y575054D01*
X910200Y574949D01*
X910426Y574849D01*
X910655Y574755D01*
X910886Y574667D01*
X911120Y574584D01*
X911355Y574507D01*
X911592Y574436D01*
X911830Y574370D01*
X912070Y574311D01*
X912312Y574257D01*
X912555Y574209D01*
X912798Y574167D01*
X913043Y574131D01*
X913289Y574101D01*
X913535Y574077D01*
X913782Y574059D01*
X914029Y574047D01*
X914276Y574041D01*
X914524Y574041D01*
X914771Y574047D01*
X915018Y574059D01*
X915265Y574077D01*
X915511Y574101D01*
X915757Y574131D01*
X916002Y574167D01*
X916245Y574209D01*
X916488Y574257D01*
X916730Y574311D01*
X916970Y574370D01*
X917208Y574436D01*
X917445Y574507D01*
X917680Y574584D01*
X917914Y574667D01*
X918145Y574755D01*
X918374Y574849D01*
X918600Y574949D01*
X918824Y575054D01*
X919046Y575164D01*
X919264Y575280D01*
X919480Y575401D01*
X919693Y575527D01*
X919902Y575659D01*
X920109Y575795D01*
X920312Y575937D01*
X920511Y576083D01*
X920707Y576235D01*
X920899Y576391D01*
X921087Y576551D01*
X921272Y576716D01*
X921452Y576886D01*
X921628Y577060D01*
X921800Y577238D01*
X921967Y577420D01*
X922130Y577606D01*
X922288Y577796D01*
X922442Y577990D01*
X922590Y578188D01*
X922734Y578389D01*
X922873Y578594D01*
X923007Y578802D01*
X923136Y579013D01*
X923260Y579228D01*
X923378Y579445D01*
X923492Y579665D01*
X923599Y579888D01*
X923702Y580113D01*
X923798Y580341D01*
X923890Y580571D01*
X923975Y580803D01*
X924055Y581037D01*
X924129Y581273D01*
X924198Y581511D01*
X924260Y581750D01*
X924317Y581991D01*
X924368Y582233D01*
X924413Y582476D01*
X924452Y582721D01*
X924485Y582966D01*
X924512Y583212D01*
X924533Y583458D01*
X924548Y583705D01*
X924557Y583953D01*
X924560Y584200D01*
D11*
X885825Y588645D02*
X885825Y600075D01*
X884555Y588645D02*
X887095Y588645D01*
X887095Y600075D02*
X884555Y600075D01*
X894297Y588645D02*
X896837Y588645D01*
X894297Y588645D02*
X894197Y588647D01*
X894098Y588653D01*
X893998Y588663D01*
X893900Y588676D01*
X893801Y588694D01*
X893704Y588715D01*
X893608Y588740D01*
X893512Y588769D01*
X893418Y588802D01*
X893325Y588838D01*
X893234Y588878D01*
X893144Y588922D01*
X893056Y588969D01*
X892970Y589019D01*
X892886Y589073D01*
X892804Y589130D01*
X892725Y589190D01*
X892647Y589254D01*
X892573Y589320D01*
X892501Y589389D01*
X892432Y589461D01*
X892366Y589535D01*
X892302Y589613D01*
X892242Y589692D01*
X892185Y589774D01*
X892131Y589858D01*
X892081Y589944D01*
X892034Y590032D01*
X891990Y590122D01*
X891950Y590213D01*
X891914Y590306D01*
X891881Y590400D01*
X891852Y590496D01*
X891827Y590592D01*
X891806Y590689D01*
X891788Y590788D01*
X891775Y590886D01*
X891765Y590986D01*
X891759Y591085D01*
X891757Y591185D01*
X891757Y597535D01*
X891759Y597635D01*
X891765Y597734D01*
X891775Y597834D01*
X891788Y597932D01*
X891806Y598031D01*
X891827Y598128D01*
X891852Y598224D01*
X891881Y598320D01*
X891914Y598414D01*
X891950Y598507D01*
X891990Y598598D01*
X892034Y598688D01*
X892081Y598776D01*
X892131Y598862D01*
X892185Y598946D01*
X892242Y599028D01*
X892302Y599107D01*
X892366Y599185D01*
X892432Y599259D01*
X892501Y599331D01*
X892573Y599400D01*
X892647Y599466D01*
X892725Y599530D01*
X892804Y599590D01*
X892886Y599647D01*
X892970Y599701D01*
X893056Y599751D01*
X893144Y599798D01*
X893234Y599842D01*
X893325Y599882D01*
X893418Y599918D01*
X893512Y599951D01*
X893608Y599980D01*
X893704Y600005D01*
X893801Y600026D01*
X893900Y600044D01*
X893998Y600057D01*
X894098Y600067D01*
X894197Y600073D01*
X894297Y600075D01*
X896837Y600075D01*
X901319Y597535D02*
X904494Y600075D01*
X904494Y588645D01*
X901319Y588645D02*
X907669Y588645D01*
X912749Y591820D02*
X912751Y591931D01*
X912757Y592041D01*
X912766Y592152D01*
X912780Y592262D01*
X912797Y592371D01*
X912818Y592480D01*
X912843Y592588D01*
X912872Y592695D01*
X912904Y592801D01*
X912940Y592906D01*
X912980Y593009D01*
X913023Y593111D01*
X913070Y593212D01*
X913121Y593311D01*
X913174Y593408D01*
X913231Y593502D01*
X913292Y593595D01*
X913355Y593686D01*
X913422Y593775D01*
X913492Y593861D01*
X913565Y593944D01*
X913640Y594026D01*
X913718Y594104D01*
X913800Y594179D01*
X913883Y594252D01*
X913969Y594322D01*
X914058Y594389D01*
X914149Y594452D01*
X914242Y594513D01*
X914337Y594570D01*
X914433Y594623D01*
X914532Y594674D01*
X914633Y594721D01*
X914735Y594764D01*
X914838Y594804D01*
X914943Y594840D01*
X915049Y594872D01*
X915156Y594901D01*
X915264Y594926D01*
X915373Y594947D01*
X915482Y594964D01*
X915592Y594978D01*
X915703Y594987D01*
X915813Y594993D01*
X915924Y594995D01*
X916035Y594993D01*
X916145Y594987D01*
X916256Y594978D01*
X916366Y594964D01*
X916475Y594947D01*
X916584Y594926D01*
X916692Y594901D01*
X916799Y594872D01*
X916905Y594840D01*
X917010Y594804D01*
X917113Y594764D01*
X917215Y594721D01*
X917316Y594674D01*
X917415Y594623D01*
X917512Y594570D01*
X917606Y594513D01*
X917699Y594452D01*
X917790Y594389D01*
X917879Y594322D01*
X917965Y594252D01*
X918048Y594179D01*
X918130Y594104D01*
X918208Y594026D01*
X918283Y593944D01*
X918356Y593861D01*
X918426Y593775D01*
X918493Y593686D01*
X918556Y593595D01*
X918617Y593502D01*
X918674Y593408D01*
X918727Y593311D01*
X918778Y593212D01*
X918825Y593111D01*
X918868Y593009D01*
X918908Y592906D01*
X918944Y592801D01*
X918976Y592695D01*
X919005Y592588D01*
X919030Y592480D01*
X919051Y592371D01*
X919068Y592262D01*
X919082Y592152D01*
X919091Y592041D01*
X919097Y591931D01*
X919099Y591820D01*
X919097Y591709D01*
X919091Y591599D01*
X919082Y591488D01*
X919068Y591378D01*
X919051Y591269D01*
X919030Y591160D01*
X919005Y591052D01*
X918976Y590945D01*
X918944Y590839D01*
X918908Y590734D01*
X918868Y590631D01*
X918825Y590529D01*
X918778Y590428D01*
X918727Y590329D01*
X918674Y590233D01*
X918617Y590138D01*
X918556Y590045D01*
X918493Y589954D01*
X918426Y589865D01*
X918356Y589779D01*
X918283Y589696D01*
X918208Y589614D01*
X918130Y589536D01*
X918048Y589461D01*
X917965Y589388D01*
X917879Y589318D01*
X917790Y589251D01*
X917699Y589188D01*
X917606Y589127D01*
X917512Y589070D01*
X917415Y589017D01*
X917316Y588966D01*
X917215Y588919D01*
X917113Y588876D01*
X917010Y588836D01*
X916905Y588800D01*
X916799Y588768D01*
X916692Y588739D01*
X916584Y588714D01*
X916475Y588693D01*
X916366Y588676D01*
X916256Y588662D01*
X916145Y588653D01*
X916035Y588647D01*
X915924Y588645D01*
X915813Y588647D01*
X915703Y588653D01*
X915592Y588662D01*
X915482Y588676D01*
X915373Y588693D01*
X915264Y588714D01*
X915156Y588739D01*
X915049Y588768D01*
X914943Y588800D01*
X914838Y588836D01*
X914735Y588876D01*
X914633Y588919D01*
X914532Y588966D01*
X914433Y589017D01*
X914337Y589070D01*
X914242Y589127D01*
X914149Y589188D01*
X914058Y589251D01*
X913969Y589318D01*
X913883Y589388D01*
X913800Y589461D01*
X913718Y589536D01*
X913640Y589614D01*
X913565Y589696D01*
X913492Y589779D01*
X913422Y589865D01*
X913355Y589954D01*
X913292Y590045D01*
X913231Y590138D01*
X913174Y590233D01*
X913121Y590329D01*
X913070Y590428D01*
X913023Y590529D01*
X912980Y590631D01*
X912940Y590734D01*
X912904Y590839D01*
X912872Y590945D01*
X912843Y591052D01*
X912818Y591160D01*
X912797Y591269D01*
X912780Y591378D01*
X912766Y591488D01*
X912757Y591599D01*
X912751Y591709D01*
X912749Y591820D01*
X913384Y597535D02*
X913386Y597635D01*
X913392Y597734D01*
X913402Y597834D01*
X913415Y597932D01*
X913433Y598031D01*
X913454Y598128D01*
X913479Y598224D01*
X913508Y598320D01*
X913541Y598414D01*
X913577Y598507D01*
X913617Y598598D01*
X913661Y598688D01*
X913708Y598776D01*
X913758Y598862D01*
X913812Y598946D01*
X913869Y599028D01*
X913929Y599107D01*
X913993Y599185D01*
X914059Y599259D01*
X914128Y599331D01*
X914200Y599400D01*
X914274Y599466D01*
X914352Y599530D01*
X914431Y599590D01*
X914513Y599647D01*
X914597Y599701D01*
X914683Y599751D01*
X914771Y599798D01*
X914861Y599842D01*
X914952Y599882D01*
X915045Y599918D01*
X915139Y599951D01*
X915235Y599980D01*
X915331Y600005D01*
X915428Y600026D01*
X915527Y600044D01*
X915625Y600057D01*
X915725Y600067D01*
X915824Y600073D01*
X915924Y600075D01*
X916024Y600073D01*
X916123Y600067D01*
X916223Y600057D01*
X916321Y600044D01*
X916420Y600026D01*
X916517Y600005D01*
X916613Y599980D01*
X916709Y599951D01*
X916803Y599918D01*
X916896Y599882D01*
X916987Y599842D01*
X917077Y599798D01*
X917165Y599751D01*
X917251Y599701D01*
X917335Y599647D01*
X917417Y599590D01*
X917496Y599530D01*
X917574Y599466D01*
X917648Y599400D01*
X917720Y599331D01*
X917789Y599259D01*
X917855Y599185D01*
X917919Y599107D01*
X917979Y599028D01*
X918036Y598946D01*
X918090Y598862D01*
X918140Y598776D01*
X918187Y598688D01*
X918231Y598598D01*
X918271Y598507D01*
X918307Y598414D01*
X918340Y598320D01*
X918369Y598224D01*
X918394Y598128D01*
X918415Y598031D01*
X918433Y597932D01*
X918446Y597834D01*
X918456Y597734D01*
X918462Y597635D01*
X918464Y597535D01*
X918462Y597435D01*
X918456Y597336D01*
X918446Y597236D01*
X918433Y597138D01*
X918415Y597039D01*
X918394Y596942D01*
X918369Y596846D01*
X918340Y596750D01*
X918307Y596656D01*
X918271Y596563D01*
X918231Y596472D01*
X918187Y596382D01*
X918140Y596294D01*
X918090Y596208D01*
X918036Y596124D01*
X917979Y596042D01*
X917919Y595963D01*
X917855Y595885D01*
X917789Y595811D01*
X917720Y595739D01*
X917648Y595670D01*
X917574Y595604D01*
X917496Y595540D01*
X917417Y595480D01*
X917335Y595423D01*
X917251Y595369D01*
X917165Y595319D01*
X917077Y595272D01*
X916987Y595228D01*
X916896Y595188D01*
X916803Y595152D01*
X916709Y595119D01*
X916613Y595090D01*
X916517Y595065D01*
X916420Y595044D01*
X916321Y595026D01*
X916223Y595013D01*
X916123Y595003D01*
X916024Y594997D01*
X915924Y594995D01*
X915824Y594997D01*
X915725Y595003D01*
X915625Y595013D01*
X915527Y595026D01*
X915428Y595044D01*
X915331Y595065D01*
X915235Y595090D01*
X915139Y595119D01*
X915045Y595152D01*
X914952Y595188D01*
X914861Y595228D01*
X914771Y595272D01*
X914683Y595319D01*
X914597Y595369D01*
X914513Y595423D01*
X914431Y595480D01*
X914352Y595540D01*
X914274Y595604D01*
X914200Y595670D01*
X914128Y595739D01*
X914059Y595811D01*
X913993Y595885D01*
X913929Y595963D01*
X913869Y596042D01*
X913812Y596124D01*
X913758Y596208D01*
X913708Y596294D01*
X913661Y596382D01*
X913617Y596472D01*
X913577Y596563D01*
X913541Y596656D01*
X913508Y596750D01*
X913479Y596846D01*
X913454Y596942D01*
X913433Y597039D01*
X913415Y597138D01*
X913402Y597236D01*
X913392Y597336D01*
X913386Y597435D01*
X913384Y597535D01*
D10*
X803910Y596900D02*
X803910Y774700D01*
X745490Y774700D02*
X745490Y596900D01*
X803910Y596900D01*
X803910Y774700D02*
X784860Y774700D01*
X764540Y774700D02*
X745490Y774700D01*
X764540Y774700D02*
X764543Y774453D01*
X764552Y774205D01*
X764567Y773958D01*
X764588Y773712D01*
X764615Y773466D01*
X764648Y773221D01*
X764687Y772976D01*
X764732Y772733D01*
X764783Y772491D01*
X764840Y772250D01*
X764902Y772011D01*
X764971Y771773D01*
X765045Y771537D01*
X765125Y771303D01*
X765210Y771071D01*
X765302Y770841D01*
X765398Y770613D01*
X765501Y770388D01*
X765608Y770165D01*
X765722Y769945D01*
X765840Y769728D01*
X765964Y769513D01*
X766093Y769302D01*
X766227Y769094D01*
X766366Y768889D01*
X766510Y768688D01*
X766658Y768490D01*
X766812Y768296D01*
X766970Y768106D01*
X767133Y767920D01*
X767300Y767738D01*
X767472Y767560D01*
X767648Y767386D01*
X767828Y767216D01*
X768013Y767051D01*
X768201Y766891D01*
X768393Y766735D01*
X768589Y766583D01*
X768788Y766437D01*
X768991Y766295D01*
X769198Y766159D01*
X769407Y766027D01*
X769620Y765901D01*
X769836Y765780D01*
X770054Y765664D01*
X770276Y765554D01*
X770500Y765449D01*
X770726Y765349D01*
X770955Y765255D01*
X771186Y765167D01*
X771420Y765084D01*
X771655Y765007D01*
X771892Y764936D01*
X772130Y764870D01*
X772370Y764811D01*
X772612Y764757D01*
X772855Y764709D01*
X773098Y764667D01*
X773343Y764631D01*
X773589Y764601D01*
X773835Y764577D01*
X774082Y764559D01*
X774329Y764547D01*
X774576Y764541D01*
X774824Y764541D01*
X775071Y764547D01*
X775318Y764559D01*
X775565Y764577D01*
X775811Y764601D01*
X776057Y764631D01*
X776302Y764667D01*
X776545Y764709D01*
X776788Y764757D01*
X777030Y764811D01*
X777270Y764870D01*
X777508Y764936D01*
X777745Y765007D01*
X777980Y765084D01*
X778214Y765167D01*
X778445Y765255D01*
X778674Y765349D01*
X778900Y765449D01*
X779124Y765554D01*
X779346Y765664D01*
X779564Y765780D01*
X779780Y765901D01*
X779993Y766027D01*
X780202Y766159D01*
X780409Y766295D01*
X780612Y766437D01*
X780811Y766583D01*
X781007Y766735D01*
X781199Y766891D01*
X781387Y767051D01*
X781572Y767216D01*
X781752Y767386D01*
X781928Y767560D01*
X782100Y767738D01*
X782267Y767920D01*
X782430Y768106D01*
X782588Y768296D01*
X782742Y768490D01*
X782890Y768688D01*
X783034Y768889D01*
X783173Y769094D01*
X783307Y769302D01*
X783436Y769513D01*
X783560Y769728D01*
X783678Y769945D01*
X783792Y770165D01*
X783899Y770388D01*
X784002Y770613D01*
X784098Y770841D01*
X784190Y771071D01*
X784275Y771303D01*
X784355Y771537D01*
X784429Y771773D01*
X784498Y772011D01*
X784560Y772250D01*
X784617Y772491D01*
X784668Y772733D01*
X784713Y772976D01*
X784752Y773221D01*
X784785Y773466D01*
X784812Y773712D01*
X784833Y773958D01*
X784848Y774205D01*
X784857Y774453D01*
X784860Y774700D01*
D11*
X746125Y779145D02*
X746125Y790575D01*
X744855Y779145D02*
X747395Y779145D01*
X747395Y790575D02*
X744855Y790575D01*
X754597Y779145D02*
X757137Y779145D01*
X754597Y779145D02*
X754497Y779147D01*
X754398Y779153D01*
X754298Y779163D01*
X754200Y779176D01*
X754101Y779194D01*
X754004Y779215D01*
X753908Y779240D01*
X753812Y779269D01*
X753718Y779302D01*
X753625Y779338D01*
X753534Y779378D01*
X753444Y779422D01*
X753356Y779469D01*
X753270Y779519D01*
X753186Y779573D01*
X753104Y779630D01*
X753025Y779690D01*
X752947Y779754D01*
X752873Y779820D01*
X752801Y779889D01*
X752732Y779961D01*
X752666Y780035D01*
X752602Y780113D01*
X752542Y780192D01*
X752485Y780274D01*
X752431Y780358D01*
X752381Y780444D01*
X752334Y780532D01*
X752290Y780622D01*
X752250Y780713D01*
X752214Y780806D01*
X752181Y780900D01*
X752152Y780996D01*
X752127Y781092D01*
X752106Y781189D01*
X752088Y781288D01*
X752075Y781386D01*
X752065Y781486D01*
X752059Y781585D01*
X752057Y781685D01*
X752057Y788035D01*
X752059Y788135D01*
X752065Y788234D01*
X752075Y788334D01*
X752088Y788432D01*
X752106Y788531D01*
X752127Y788628D01*
X752152Y788724D01*
X752181Y788820D01*
X752214Y788914D01*
X752250Y789007D01*
X752290Y789098D01*
X752334Y789188D01*
X752381Y789276D01*
X752431Y789362D01*
X752485Y789446D01*
X752542Y789528D01*
X752602Y789607D01*
X752666Y789685D01*
X752732Y789759D01*
X752801Y789831D01*
X752873Y789900D01*
X752947Y789966D01*
X753025Y790030D01*
X753104Y790090D01*
X753186Y790147D01*
X753270Y790201D01*
X753356Y790251D01*
X753444Y790298D01*
X753534Y790342D01*
X753625Y790382D01*
X753718Y790418D01*
X753812Y790451D01*
X753908Y790480D01*
X754004Y790505D01*
X754101Y790526D01*
X754200Y790544D01*
X754298Y790557D01*
X754398Y790567D01*
X754497Y790573D01*
X754597Y790575D01*
X757137Y790575D01*
X761619Y788035D02*
X764794Y790575D01*
X764794Y779145D01*
X761619Y779145D02*
X767969Y779145D01*
X775589Y784225D02*
X779399Y784225D01*
X775589Y784225D02*
X775489Y784227D01*
X775390Y784233D01*
X775290Y784243D01*
X775192Y784256D01*
X775093Y784274D01*
X774996Y784295D01*
X774900Y784320D01*
X774804Y784349D01*
X774710Y784382D01*
X774617Y784418D01*
X774526Y784458D01*
X774436Y784502D01*
X774348Y784549D01*
X774262Y784599D01*
X774178Y784653D01*
X774096Y784710D01*
X774017Y784770D01*
X773939Y784834D01*
X773865Y784900D01*
X773793Y784969D01*
X773724Y785041D01*
X773658Y785115D01*
X773594Y785193D01*
X773534Y785272D01*
X773477Y785354D01*
X773423Y785438D01*
X773373Y785524D01*
X773326Y785612D01*
X773282Y785702D01*
X773242Y785793D01*
X773206Y785886D01*
X773173Y785980D01*
X773144Y786076D01*
X773119Y786172D01*
X773098Y786269D01*
X773080Y786368D01*
X773067Y786466D01*
X773057Y786566D01*
X773051Y786665D01*
X773049Y786765D01*
X773049Y787400D01*
X773051Y787511D01*
X773057Y787621D01*
X773066Y787732D01*
X773080Y787842D01*
X773097Y787951D01*
X773118Y788060D01*
X773143Y788168D01*
X773172Y788275D01*
X773204Y788381D01*
X773240Y788486D01*
X773280Y788589D01*
X773323Y788691D01*
X773370Y788792D01*
X773421Y788891D01*
X773474Y788988D01*
X773531Y789082D01*
X773592Y789175D01*
X773655Y789266D01*
X773722Y789355D01*
X773792Y789441D01*
X773865Y789524D01*
X773940Y789606D01*
X774018Y789684D01*
X774100Y789759D01*
X774183Y789832D01*
X774269Y789902D01*
X774358Y789969D01*
X774449Y790032D01*
X774542Y790093D01*
X774637Y790150D01*
X774733Y790203D01*
X774832Y790254D01*
X774933Y790301D01*
X775035Y790344D01*
X775138Y790384D01*
X775243Y790420D01*
X775349Y790452D01*
X775456Y790481D01*
X775564Y790506D01*
X775673Y790527D01*
X775782Y790544D01*
X775892Y790558D01*
X776003Y790567D01*
X776113Y790573D01*
X776224Y790575D01*
X776335Y790573D01*
X776445Y790567D01*
X776556Y790558D01*
X776666Y790544D01*
X776775Y790527D01*
X776884Y790506D01*
X776992Y790481D01*
X777099Y790452D01*
X777205Y790420D01*
X777310Y790384D01*
X777413Y790344D01*
X777515Y790301D01*
X777616Y790254D01*
X777715Y790203D01*
X777812Y790150D01*
X777906Y790093D01*
X777999Y790032D01*
X778090Y789969D01*
X778179Y789902D01*
X778265Y789832D01*
X778348Y789759D01*
X778430Y789684D01*
X778508Y789606D01*
X778583Y789524D01*
X778656Y789441D01*
X778726Y789355D01*
X778793Y789266D01*
X778856Y789175D01*
X778917Y789082D01*
X778974Y788988D01*
X779027Y788891D01*
X779078Y788792D01*
X779125Y788691D01*
X779168Y788589D01*
X779208Y788486D01*
X779244Y788381D01*
X779276Y788275D01*
X779305Y788168D01*
X779330Y788060D01*
X779351Y787951D01*
X779368Y787842D01*
X779382Y787732D01*
X779391Y787621D01*
X779397Y787511D01*
X779399Y787400D01*
X779399Y784225D01*
X779397Y784085D01*
X779391Y783945D01*
X779382Y783805D01*
X779368Y783666D01*
X779351Y783527D01*
X779330Y783389D01*
X779305Y783251D01*
X779276Y783114D01*
X779244Y782978D01*
X779207Y782843D01*
X779167Y782709D01*
X779124Y782576D01*
X779076Y782444D01*
X779026Y782313D01*
X778971Y782184D01*
X778913Y782057D01*
X778852Y781931D01*
X778787Y781807D01*
X778718Y781685D01*
X778647Y781565D01*
X778572Y781447D01*
X778494Y781330D01*
X778412Y781216D01*
X778328Y781105D01*
X778240Y780996D01*
X778150Y780889D01*
X778056Y780784D01*
X777960Y780683D01*
X777861Y780584D01*
X777760Y780488D01*
X777655Y780394D01*
X777548Y780304D01*
X777439Y780216D01*
X777328Y780132D01*
X777214Y780050D01*
X777097Y779972D01*
X776979Y779897D01*
X776859Y779826D01*
X776737Y779757D01*
X776613Y779692D01*
X776487Y779631D01*
X776360Y779573D01*
X776231Y779518D01*
X776100Y779468D01*
X775968Y779420D01*
X775835Y779377D01*
X775701Y779337D01*
X775566Y779300D01*
X775430Y779268D01*
X775293Y779239D01*
X775155Y779214D01*
X775017Y779193D01*
X774878Y779176D01*
X774739Y779162D01*
X774599Y779153D01*
X774459Y779147D01*
X774319Y779145D01*
D10*
X130810Y698500D02*
X130810Y520700D01*
X72390Y520700D02*
X72390Y698500D01*
X72390Y520700D02*
X130810Y520700D01*
X130810Y698500D02*
X111760Y698500D01*
X91440Y698500D02*
X72390Y698500D01*
X91440Y698500D02*
X91443Y698253D01*
X91452Y698005D01*
X91467Y697758D01*
X91488Y697512D01*
X91515Y697266D01*
X91548Y697021D01*
X91587Y696776D01*
X91632Y696533D01*
X91683Y696291D01*
X91740Y696050D01*
X91802Y695811D01*
X91871Y695573D01*
X91945Y695337D01*
X92025Y695103D01*
X92110Y694871D01*
X92202Y694641D01*
X92298Y694413D01*
X92401Y694188D01*
X92508Y693965D01*
X92622Y693745D01*
X92740Y693528D01*
X92864Y693313D01*
X92993Y693102D01*
X93127Y692894D01*
X93266Y692689D01*
X93410Y692488D01*
X93558Y692290D01*
X93712Y692096D01*
X93870Y691906D01*
X94033Y691720D01*
X94200Y691538D01*
X94372Y691360D01*
X94548Y691186D01*
X94728Y691016D01*
X94913Y690851D01*
X95101Y690691D01*
X95293Y690535D01*
X95489Y690383D01*
X95688Y690237D01*
X95891Y690095D01*
X96098Y689959D01*
X96307Y689827D01*
X96520Y689701D01*
X96736Y689580D01*
X96954Y689464D01*
X97176Y689354D01*
X97400Y689249D01*
X97626Y689149D01*
X97855Y689055D01*
X98086Y688967D01*
X98320Y688884D01*
X98555Y688807D01*
X98792Y688736D01*
X99030Y688670D01*
X99270Y688611D01*
X99512Y688557D01*
X99755Y688509D01*
X99998Y688467D01*
X100243Y688431D01*
X100489Y688401D01*
X100735Y688377D01*
X100982Y688359D01*
X101229Y688347D01*
X101476Y688341D01*
X101724Y688341D01*
X101971Y688347D01*
X102218Y688359D01*
X102465Y688377D01*
X102711Y688401D01*
X102957Y688431D01*
X103202Y688467D01*
X103445Y688509D01*
X103688Y688557D01*
X103930Y688611D01*
X104170Y688670D01*
X104408Y688736D01*
X104645Y688807D01*
X104880Y688884D01*
X105114Y688967D01*
X105345Y689055D01*
X105574Y689149D01*
X105800Y689249D01*
X106024Y689354D01*
X106246Y689464D01*
X106464Y689580D01*
X106680Y689701D01*
X106893Y689827D01*
X107102Y689959D01*
X107309Y690095D01*
X107512Y690237D01*
X107711Y690383D01*
X107907Y690535D01*
X108099Y690691D01*
X108287Y690851D01*
X108472Y691016D01*
X108652Y691186D01*
X108828Y691360D01*
X109000Y691538D01*
X109167Y691720D01*
X109330Y691906D01*
X109488Y692096D01*
X109642Y692290D01*
X109790Y692488D01*
X109934Y692689D01*
X110073Y692894D01*
X110207Y693102D01*
X110336Y693313D01*
X110460Y693528D01*
X110578Y693745D01*
X110692Y693965D01*
X110799Y694188D01*
X110902Y694413D01*
X110998Y694641D01*
X111090Y694871D01*
X111175Y695103D01*
X111255Y695337D01*
X111329Y695573D01*
X111398Y695811D01*
X111460Y696050D01*
X111517Y696291D01*
X111568Y696533D01*
X111613Y696776D01*
X111652Y697021D01*
X111685Y697266D01*
X111712Y697512D01*
X111733Y697758D01*
X111748Y698005D01*
X111757Y698253D01*
X111760Y698500D01*
D11*
X73025Y702945D02*
X73025Y714375D01*
X71755Y702945D02*
X74295Y702945D01*
X74295Y714375D02*
X71755Y714375D01*
X81497Y702945D02*
X84037Y702945D01*
X81497Y702945D02*
X81397Y702947D01*
X81298Y702953D01*
X81198Y702963D01*
X81100Y702976D01*
X81001Y702994D01*
X80904Y703015D01*
X80808Y703040D01*
X80712Y703069D01*
X80618Y703102D01*
X80525Y703138D01*
X80434Y703178D01*
X80344Y703222D01*
X80256Y703269D01*
X80170Y703319D01*
X80086Y703373D01*
X80004Y703430D01*
X79925Y703490D01*
X79847Y703554D01*
X79773Y703620D01*
X79701Y703689D01*
X79632Y703761D01*
X79566Y703835D01*
X79502Y703913D01*
X79442Y703992D01*
X79385Y704074D01*
X79331Y704158D01*
X79281Y704244D01*
X79234Y704332D01*
X79190Y704422D01*
X79150Y704513D01*
X79114Y704606D01*
X79081Y704700D01*
X79052Y704796D01*
X79027Y704892D01*
X79006Y704989D01*
X78988Y705088D01*
X78975Y705186D01*
X78965Y705286D01*
X78959Y705385D01*
X78957Y705485D01*
X78957Y711835D01*
X78959Y711935D01*
X78965Y712034D01*
X78975Y712134D01*
X78988Y712232D01*
X79006Y712331D01*
X79027Y712428D01*
X79052Y712524D01*
X79081Y712620D01*
X79114Y712714D01*
X79150Y712807D01*
X79190Y712898D01*
X79234Y712988D01*
X79281Y713076D01*
X79331Y713162D01*
X79385Y713246D01*
X79442Y713328D01*
X79502Y713407D01*
X79566Y713485D01*
X79632Y713559D01*
X79701Y713631D01*
X79773Y713700D01*
X79847Y713766D01*
X79925Y713830D01*
X80004Y713890D01*
X80086Y713947D01*
X80170Y714001D01*
X80256Y714051D01*
X80344Y714098D01*
X80434Y714142D01*
X80525Y714182D01*
X80618Y714218D01*
X80712Y714251D01*
X80808Y714280D01*
X80904Y714305D01*
X81001Y714326D01*
X81100Y714344D01*
X81198Y714357D01*
X81298Y714367D01*
X81397Y714373D01*
X81497Y714375D01*
X84037Y714375D01*
X92011Y714376D02*
X92115Y714374D01*
X92220Y714368D01*
X92324Y714359D01*
X92427Y714346D01*
X92530Y714328D01*
X92632Y714308D01*
X92734Y714283D01*
X92834Y714255D01*
X92934Y714223D01*
X93032Y714187D01*
X93129Y714148D01*
X93224Y714106D01*
X93318Y714060D01*
X93410Y714010D01*
X93500Y713958D01*
X93588Y713902D01*
X93674Y713842D01*
X93758Y713780D01*
X93839Y713715D01*
X93918Y713647D01*
X93995Y713575D01*
X94068Y713502D01*
X94140Y713425D01*
X94208Y713346D01*
X94273Y713265D01*
X94335Y713181D01*
X94395Y713095D01*
X94451Y713007D01*
X94503Y712917D01*
X94553Y712825D01*
X94599Y712731D01*
X94641Y712636D01*
X94680Y712539D01*
X94716Y712441D01*
X94748Y712341D01*
X94776Y712241D01*
X94801Y712139D01*
X94821Y712037D01*
X94839Y711934D01*
X94852Y711831D01*
X94861Y711727D01*
X94867Y711622D01*
X94869Y711518D01*
X92011Y714375D02*
X91893Y714373D01*
X91774Y714367D01*
X91656Y714358D01*
X91539Y714345D01*
X91422Y714327D01*
X91305Y714307D01*
X91189Y714282D01*
X91074Y714254D01*
X90961Y714221D01*
X90848Y714186D01*
X90736Y714146D01*
X90626Y714104D01*
X90517Y714057D01*
X90409Y714007D01*
X90304Y713954D01*
X90200Y713897D01*
X90098Y713837D01*
X89998Y713774D01*
X89900Y713707D01*
X89804Y713638D01*
X89711Y713565D01*
X89620Y713489D01*
X89531Y713411D01*
X89445Y713329D01*
X89362Y713245D01*
X89281Y713159D01*
X89204Y713069D01*
X89129Y712978D01*
X89057Y712884D01*
X88988Y712787D01*
X88923Y712689D01*
X88860Y712588D01*
X88801Y712485D01*
X88745Y712381D01*
X88693Y712275D01*
X88644Y712167D01*
X88599Y712058D01*
X88557Y711947D01*
X88519Y711835D01*
X93917Y709296D02*
X93993Y709371D01*
X94068Y709450D01*
X94139Y709531D01*
X94208Y709615D01*
X94273Y709701D01*
X94335Y709789D01*
X94395Y709879D01*
X94451Y709971D01*
X94504Y710066D01*
X94553Y710162D01*
X94599Y710260D01*
X94642Y710359D01*
X94681Y710460D01*
X94716Y710562D01*
X94748Y710665D01*
X94776Y710769D01*
X94801Y710874D01*
X94822Y710981D01*
X94839Y711087D01*
X94852Y711194D01*
X94861Y711302D01*
X94867Y711410D01*
X94869Y711518D01*
X93916Y709295D02*
X88519Y702945D01*
X94869Y702945D01*
D10*
X524510Y304800D02*
X524510Y127000D01*
X466090Y127000D02*
X466090Y304800D01*
X466090Y127000D02*
X524510Y127000D01*
X524510Y304800D02*
X505460Y304800D01*
X485140Y304800D02*
X466090Y304800D01*
X485140Y304800D02*
X485143Y304553D01*
X485152Y304305D01*
X485167Y304058D01*
X485188Y303812D01*
X485215Y303566D01*
X485248Y303321D01*
X485287Y303076D01*
X485332Y302833D01*
X485383Y302591D01*
X485440Y302350D01*
X485502Y302111D01*
X485571Y301873D01*
X485645Y301637D01*
X485725Y301403D01*
X485810Y301171D01*
X485902Y300941D01*
X485998Y300713D01*
X486101Y300488D01*
X486208Y300265D01*
X486322Y300045D01*
X486440Y299828D01*
X486564Y299613D01*
X486693Y299402D01*
X486827Y299194D01*
X486966Y298989D01*
X487110Y298788D01*
X487258Y298590D01*
X487412Y298396D01*
X487570Y298206D01*
X487733Y298020D01*
X487900Y297838D01*
X488072Y297660D01*
X488248Y297486D01*
X488428Y297316D01*
X488613Y297151D01*
X488801Y296991D01*
X488993Y296835D01*
X489189Y296683D01*
X489388Y296537D01*
X489591Y296395D01*
X489798Y296259D01*
X490007Y296127D01*
X490220Y296001D01*
X490436Y295880D01*
X490654Y295764D01*
X490876Y295654D01*
X491100Y295549D01*
X491326Y295449D01*
X491555Y295355D01*
X491786Y295267D01*
X492020Y295184D01*
X492255Y295107D01*
X492492Y295036D01*
X492730Y294970D01*
X492970Y294911D01*
X493212Y294857D01*
X493455Y294809D01*
X493698Y294767D01*
X493943Y294731D01*
X494189Y294701D01*
X494435Y294677D01*
X494682Y294659D01*
X494929Y294647D01*
X495176Y294641D01*
X495424Y294641D01*
X495671Y294647D01*
X495918Y294659D01*
X496165Y294677D01*
X496411Y294701D01*
X496657Y294731D01*
X496902Y294767D01*
X497145Y294809D01*
X497388Y294857D01*
X497630Y294911D01*
X497870Y294970D01*
X498108Y295036D01*
X498345Y295107D01*
X498580Y295184D01*
X498814Y295267D01*
X499045Y295355D01*
X499274Y295449D01*
X499500Y295549D01*
X499724Y295654D01*
X499946Y295764D01*
X500164Y295880D01*
X500380Y296001D01*
X500593Y296127D01*
X500802Y296259D01*
X501009Y296395D01*
X501212Y296537D01*
X501411Y296683D01*
X501607Y296835D01*
X501799Y296991D01*
X501987Y297151D01*
X502172Y297316D01*
X502352Y297486D01*
X502528Y297660D01*
X502700Y297838D01*
X502867Y298020D01*
X503030Y298206D01*
X503188Y298396D01*
X503342Y298590D01*
X503490Y298788D01*
X503634Y298989D01*
X503773Y299194D01*
X503907Y299402D01*
X504036Y299613D01*
X504160Y299828D01*
X504278Y300045D01*
X504392Y300265D01*
X504499Y300488D01*
X504602Y300713D01*
X504698Y300941D01*
X504790Y301171D01*
X504875Y301403D01*
X504955Y301637D01*
X505029Y301873D01*
X505098Y302111D01*
X505160Y302350D01*
X505217Y302591D01*
X505268Y302833D01*
X505313Y303076D01*
X505352Y303321D01*
X505385Y303566D01*
X505412Y303812D01*
X505433Y304058D01*
X505448Y304305D01*
X505457Y304553D01*
X505460Y304800D01*
D11*
X466725Y309245D02*
X466725Y320675D01*
X465455Y309245D02*
X467995Y309245D01*
X467995Y320675D02*
X465455Y320675D01*
X475197Y309245D02*
X477737Y309245D01*
X475197Y309245D02*
X475097Y309247D01*
X474998Y309253D01*
X474898Y309263D01*
X474800Y309276D01*
X474701Y309294D01*
X474604Y309315D01*
X474508Y309340D01*
X474412Y309369D01*
X474318Y309402D01*
X474225Y309438D01*
X474134Y309478D01*
X474044Y309522D01*
X473956Y309569D01*
X473870Y309619D01*
X473786Y309673D01*
X473704Y309730D01*
X473625Y309790D01*
X473547Y309854D01*
X473473Y309920D01*
X473401Y309989D01*
X473332Y310061D01*
X473266Y310135D01*
X473202Y310213D01*
X473142Y310292D01*
X473085Y310374D01*
X473031Y310458D01*
X472981Y310544D01*
X472934Y310632D01*
X472890Y310722D01*
X472850Y310813D01*
X472814Y310906D01*
X472781Y311000D01*
X472752Y311096D01*
X472727Y311192D01*
X472706Y311289D01*
X472688Y311388D01*
X472675Y311486D01*
X472665Y311586D01*
X472659Y311685D01*
X472657Y311785D01*
X472657Y318135D01*
X472659Y318235D01*
X472665Y318334D01*
X472675Y318434D01*
X472688Y318532D01*
X472706Y318631D01*
X472727Y318728D01*
X472752Y318824D01*
X472781Y318920D01*
X472814Y319014D01*
X472850Y319107D01*
X472890Y319198D01*
X472934Y319288D01*
X472981Y319376D01*
X473031Y319462D01*
X473085Y319546D01*
X473142Y319628D01*
X473202Y319707D01*
X473266Y319785D01*
X473332Y319859D01*
X473401Y319931D01*
X473473Y320000D01*
X473547Y320066D01*
X473625Y320130D01*
X473704Y320190D01*
X473786Y320247D01*
X473870Y320301D01*
X473956Y320351D01*
X474044Y320398D01*
X474134Y320442D01*
X474225Y320482D01*
X474318Y320518D01*
X474412Y320551D01*
X474508Y320580D01*
X474604Y320605D01*
X474701Y320626D01*
X474800Y320644D01*
X474898Y320657D01*
X474998Y320667D01*
X475097Y320673D01*
X475197Y320675D01*
X477737Y320675D01*
X485711Y320676D02*
X485815Y320674D01*
X485920Y320668D01*
X486024Y320659D01*
X486127Y320646D01*
X486230Y320628D01*
X486332Y320608D01*
X486434Y320583D01*
X486534Y320555D01*
X486634Y320523D01*
X486732Y320487D01*
X486829Y320448D01*
X486924Y320406D01*
X487018Y320360D01*
X487110Y320310D01*
X487200Y320258D01*
X487288Y320202D01*
X487374Y320142D01*
X487458Y320080D01*
X487539Y320015D01*
X487618Y319947D01*
X487695Y319875D01*
X487768Y319802D01*
X487840Y319725D01*
X487908Y319646D01*
X487973Y319565D01*
X488035Y319481D01*
X488095Y319395D01*
X488151Y319307D01*
X488203Y319217D01*
X488253Y319125D01*
X488299Y319031D01*
X488341Y318936D01*
X488380Y318839D01*
X488416Y318741D01*
X488448Y318641D01*
X488476Y318541D01*
X488501Y318439D01*
X488521Y318337D01*
X488539Y318234D01*
X488552Y318131D01*
X488561Y318027D01*
X488567Y317922D01*
X488569Y317818D01*
X485711Y320675D02*
X485593Y320673D01*
X485474Y320667D01*
X485356Y320658D01*
X485239Y320645D01*
X485122Y320627D01*
X485005Y320607D01*
X484889Y320582D01*
X484774Y320554D01*
X484661Y320521D01*
X484548Y320486D01*
X484436Y320446D01*
X484326Y320404D01*
X484217Y320357D01*
X484109Y320307D01*
X484004Y320254D01*
X483900Y320197D01*
X483798Y320137D01*
X483698Y320074D01*
X483600Y320007D01*
X483504Y319938D01*
X483411Y319865D01*
X483320Y319789D01*
X483231Y319711D01*
X483145Y319629D01*
X483062Y319545D01*
X482981Y319459D01*
X482904Y319369D01*
X482829Y319278D01*
X482757Y319184D01*
X482688Y319087D01*
X482623Y318989D01*
X482560Y318888D01*
X482501Y318785D01*
X482445Y318681D01*
X482393Y318575D01*
X482344Y318467D01*
X482299Y318358D01*
X482257Y318247D01*
X482219Y318135D01*
X487617Y315596D02*
X487693Y315671D01*
X487768Y315750D01*
X487839Y315831D01*
X487908Y315915D01*
X487973Y316001D01*
X488035Y316089D01*
X488095Y316179D01*
X488151Y316271D01*
X488204Y316366D01*
X488253Y316462D01*
X488299Y316560D01*
X488342Y316659D01*
X488381Y316760D01*
X488416Y316862D01*
X488448Y316965D01*
X488476Y317069D01*
X488501Y317174D01*
X488522Y317281D01*
X488539Y317387D01*
X488552Y317494D01*
X488561Y317602D01*
X488567Y317710D01*
X488569Y317818D01*
X487616Y315595D02*
X482219Y309245D01*
X488569Y309245D01*
X493649Y314960D02*
X493652Y315185D01*
X493660Y315410D01*
X493673Y315634D01*
X493692Y315858D01*
X493716Y316082D01*
X493745Y316305D01*
X493780Y316527D01*
X493820Y316748D01*
X493866Y316968D01*
X493916Y317187D01*
X493972Y317405D01*
X494033Y317622D01*
X494099Y317837D01*
X494170Y318050D01*
X494247Y318261D01*
X494328Y318471D01*
X494414Y318679D01*
X494505Y318884D01*
X494601Y319087D01*
X494601Y319088D02*
X494633Y319176D01*
X494669Y319263D01*
X494708Y319349D01*
X494751Y319433D01*
X494797Y319515D01*
X494846Y319595D01*
X494898Y319673D01*
X494954Y319749D01*
X495012Y319823D01*
X495074Y319894D01*
X495138Y319963D01*
X495205Y320029D01*
X495274Y320092D01*
X495346Y320153D01*
X495420Y320211D01*
X495497Y320265D01*
X495575Y320317D01*
X495656Y320365D01*
X495738Y320410D01*
X495823Y320452D01*
X495909Y320490D01*
X495996Y320525D01*
X496084Y320557D01*
X496174Y320584D01*
X496265Y320609D01*
X496357Y320629D01*
X496449Y320646D01*
X496543Y320659D01*
X496636Y320668D01*
X496730Y320674D01*
X496824Y320676D01*
X496918Y320674D01*
X497012Y320668D01*
X497105Y320659D01*
X497199Y320646D01*
X497291Y320629D01*
X497383Y320609D01*
X497474Y320584D01*
X497564Y320557D01*
X497652Y320525D01*
X497739Y320490D01*
X497825Y320452D01*
X497910Y320410D01*
X497992Y320365D01*
X498073Y320317D01*
X498151Y320265D01*
X498228Y320211D01*
X498302Y320153D01*
X498374Y320092D01*
X498443Y320029D01*
X498510Y319963D01*
X498574Y319894D01*
X498636Y319823D01*
X498694Y319749D01*
X498750Y319673D01*
X498802Y319595D01*
X498851Y319515D01*
X498897Y319433D01*
X498940Y319349D01*
X498979Y319263D01*
X499015Y319176D01*
X499047Y319088D01*
X499047Y319087D02*
X499143Y318884D01*
X499234Y318679D01*
X499320Y318471D01*
X499401Y318261D01*
X499478Y318050D01*
X499549Y317837D01*
X499615Y317622D01*
X499676Y317405D01*
X499732Y317187D01*
X499782Y316968D01*
X499828Y316748D01*
X499868Y316527D01*
X499903Y316305D01*
X499932Y316082D01*
X499956Y315858D01*
X499975Y315634D01*
X499988Y315410D01*
X499996Y315185D01*
X499999Y314960D01*
X493649Y314960D02*
X493652Y314735D01*
X493660Y314510D01*
X493673Y314286D01*
X493692Y314062D01*
X493716Y313838D01*
X493745Y313615D01*
X493780Y313393D01*
X493820Y313172D01*
X493866Y312952D01*
X493916Y312733D01*
X493972Y312515D01*
X494033Y312298D01*
X494099Y312083D01*
X494170Y311870D01*
X494247Y311659D01*
X494328Y311449D01*
X494414Y311241D01*
X494505Y311036D01*
X494601Y310833D01*
X494633Y310745D01*
X494669Y310658D01*
X494708Y310572D01*
X494751Y310488D01*
X494797Y310406D01*
X494846Y310326D01*
X494898Y310248D01*
X494954Y310172D01*
X495012Y310098D01*
X495074Y310027D01*
X495138Y309958D01*
X495205Y309892D01*
X495274Y309829D01*
X495346Y309768D01*
X495420Y309710D01*
X495497Y309656D01*
X495575Y309604D01*
X495656Y309556D01*
X495738Y309511D01*
X495823Y309469D01*
X495909Y309431D01*
X495996Y309396D01*
X496084Y309364D01*
X496174Y309337D01*
X496265Y309312D01*
X496357Y309292D01*
X496449Y309275D01*
X496543Y309262D01*
X496636Y309253D01*
X496730Y309247D01*
X496824Y309245D01*
X499047Y310833D02*
X499143Y311036D01*
X499234Y311241D01*
X499320Y311449D01*
X499401Y311659D01*
X499478Y311870D01*
X499549Y312083D01*
X499615Y312298D01*
X499676Y312515D01*
X499732Y312733D01*
X499782Y312952D01*
X499828Y313172D01*
X499868Y313393D01*
X499903Y313615D01*
X499932Y313838D01*
X499956Y314062D01*
X499975Y314286D01*
X499988Y314510D01*
X499996Y314735D01*
X499999Y314960D01*
X499047Y310833D02*
X499015Y310745D01*
X498979Y310658D01*
X498940Y310572D01*
X498897Y310488D01*
X498851Y310406D01*
X498802Y310326D01*
X498750Y310248D01*
X498694Y310172D01*
X498636Y310098D01*
X498574Y310027D01*
X498510Y309958D01*
X498443Y309892D01*
X498374Y309829D01*
X498302Y309768D01*
X498228Y309710D01*
X498151Y309656D01*
X498073Y309604D01*
X497992Y309556D01*
X497910Y309511D01*
X497825Y309469D01*
X497739Y309431D01*
X497652Y309396D01*
X497564Y309364D01*
X497474Y309337D01*
X497383Y309312D01*
X497291Y309292D01*
X497199Y309275D01*
X497105Y309262D01*
X497012Y309253D01*
X496918Y309247D01*
X496824Y309245D01*
X494284Y311785D02*
X499364Y318135D01*
D10*
X787400Y105410D02*
X965200Y105410D01*
X965200Y46990D02*
X787400Y46990D01*
X965200Y46990D02*
X965200Y105410D01*
X787400Y105410D02*
X787400Y86360D01*
X787400Y66040D02*
X787400Y46990D01*
X787400Y66040D02*
X787647Y66043D01*
X787895Y66052D01*
X788142Y66067D01*
X788388Y66088D01*
X788634Y66115D01*
X788879Y66148D01*
X789124Y66187D01*
X789367Y66232D01*
X789609Y66283D01*
X789850Y66340D01*
X790089Y66402D01*
X790327Y66471D01*
X790563Y66545D01*
X790797Y66625D01*
X791029Y66710D01*
X791259Y66802D01*
X791487Y66898D01*
X791712Y67001D01*
X791935Y67108D01*
X792155Y67222D01*
X792372Y67340D01*
X792587Y67464D01*
X792798Y67593D01*
X793006Y67727D01*
X793211Y67866D01*
X793412Y68010D01*
X793610Y68158D01*
X793804Y68312D01*
X793994Y68470D01*
X794180Y68633D01*
X794362Y68800D01*
X794540Y68972D01*
X794714Y69148D01*
X794884Y69328D01*
X795049Y69513D01*
X795209Y69701D01*
X795365Y69893D01*
X795517Y70089D01*
X795663Y70288D01*
X795805Y70491D01*
X795941Y70698D01*
X796073Y70907D01*
X796199Y71120D01*
X796320Y71336D01*
X796436Y71554D01*
X796546Y71776D01*
X796651Y72000D01*
X796751Y72226D01*
X796845Y72455D01*
X796933Y72686D01*
X797016Y72920D01*
X797093Y73155D01*
X797164Y73392D01*
X797230Y73630D01*
X797289Y73870D01*
X797343Y74112D01*
X797391Y74355D01*
X797433Y74598D01*
X797469Y74843D01*
X797499Y75089D01*
X797523Y75335D01*
X797541Y75582D01*
X797553Y75829D01*
X797559Y76076D01*
X797559Y76324D01*
X797553Y76571D01*
X797541Y76818D01*
X797523Y77065D01*
X797499Y77311D01*
X797469Y77557D01*
X797433Y77802D01*
X797391Y78045D01*
X797343Y78288D01*
X797289Y78530D01*
X797230Y78770D01*
X797164Y79008D01*
X797093Y79245D01*
X797016Y79480D01*
X796933Y79714D01*
X796845Y79945D01*
X796751Y80174D01*
X796651Y80400D01*
X796546Y80624D01*
X796436Y80846D01*
X796320Y81064D01*
X796199Y81280D01*
X796073Y81493D01*
X795941Y81702D01*
X795805Y81909D01*
X795663Y82112D01*
X795517Y82311D01*
X795365Y82507D01*
X795209Y82699D01*
X795049Y82887D01*
X794884Y83072D01*
X794714Y83252D01*
X794540Y83428D01*
X794362Y83600D01*
X794180Y83767D01*
X793994Y83930D01*
X793804Y84088D01*
X793610Y84242D01*
X793412Y84390D01*
X793211Y84534D01*
X793006Y84673D01*
X792798Y84807D01*
X792587Y84936D01*
X792372Y85060D01*
X792155Y85178D01*
X791935Y85292D01*
X791712Y85399D01*
X791487Y85502D01*
X791259Y85598D01*
X791029Y85690D01*
X790797Y85775D01*
X790563Y85855D01*
X790327Y85929D01*
X790089Y85998D01*
X789850Y86060D01*
X789609Y86117D01*
X789367Y86168D01*
X789124Y86213D01*
X788879Y86252D01*
X788634Y86285D01*
X788388Y86312D01*
X788142Y86333D01*
X787895Y86348D01*
X787647Y86357D01*
X787400Y86360D01*
D11*
X782955Y47625D02*
X771525Y47625D01*
X782955Y46355D02*
X782955Y48895D01*
X771525Y48895D02*
X771525Y46355D01*
X782955Y56097D02*
X782955Y58637D01*
X782955Y56097D02*
X782953Y55997D01*
X782947Y55898D01*
X782937Y55798D01*
X782924Y55700D01*
X782906Y55601D01*
X782885Y55504D01*
X782860Y55408D01*
X782831Y55312D01*
X782798Y55218D01*
X782762Y55125D01*
X782722Y55034D01*
X782678Y54944D01*
X782631Y54856D01*
X782581Y54770D01*
X782527Y54686D01*
X782470Y54604D01*
X782410Y54525D01*
X782346Y54447D01*
X782280Y54373D01*
X782211Y54301D01*
X782139Y54232D01*
X782065Y54166D01*
X781987Y54102D01*
X781908Y54042D01*
X781826Y53985D01*
X781742Y53931D01*
X781656Y53881D01*
X781568Y53834D01*
X781478Y53790D01*
X781387Y53750D01*
X781294Y53714D01*
X781200Y53681D01*
X781104Y53652D01*
X781008Y53627D01*
X780911Y53606D01*
X780812Y53588D01*
X780714Y53575D01*
X780614Y53565D01*
X780515Y53559D01*
X780415Y53557D01*
X774065Y53557D01*
X773965Y53559D01*
X773866Y53565D01*
X773766Y53575D01*
X773668Y53588D01*
X773569Y53606D01*
X773472Y53627D01*
X773376Y53652D01*
X773280Y53681D01*
X773186Y53714D01*
X773093Y53750D01*
X773002Y53790D01*
X772912Y53834D01*
X772824Y53881D01*
X772738Y53931D01*
X772654Y53985D01*
X772572Y54042D01*
X772493Y54102D01*
X772415Y54166D01*
X772341Y54232D01*
X772269Y54301D01*
X772200Y54373D01*
X772134Y54447D01*
X772070Y54525D01*
X772010Y54604D01*
X771953Y54686D01*
X771899Y54770D01*
X771849Y54856D01*
X771802Y54944D01*
X771758Y55034D01*
X771718Y55125D01*
X771682Y55218D01*
X771649Y55312D01*
X771620Y55408D01*
X771595Y55504D01*
X771574Y55601D01*
X771556Y55700D01*
X771543Y55798D01*
X771533Y55898D01*
X771527Y55997D01*
X771525Y56097D01*
X771525Y58637D01*
X771525Y66611D02*
X771527Y66715D01*
X771533Y66820D01*
X771542Y66924D01*
X771555Y67027D01*
X771573Y67130D01*
X771593Y67232D01*
X771618Y67334D01*
X771646Y67434D01*
X771678Y67534D01*
X771714Y67632D01*
X771753Y67729D01*
X771795Y67824D01*
X771841Y67918D01*
X771891Y68010D01*
X771943Y68100D01*
X771999Y68188D01*
X772059Y68274D01*
X772121Y68358D01*
X772186Y68439D01*
X772254Y68518D01*
X772326Y68595D01*
X772399Y68668D01*
X772476Y68740D01*
X772555Y68808D01*
X772636Y68873D01*
X772720Y68935D01*
X772806Y68995D01*
X772894Y69051D01*
X772984Y69103D01*
X773076Y69153D01*
X773170Y69199D01*
X773265Y69241D01*
X773362Y69280D01*
X773460Y69316D01*
X773560Y69348D01*
X773660Y69376D01*
X773762Y69401D01*
X773864Y69421D01*
X773967Y69439D01*
X774070Y69452D01*
X774174Y69461D01*
X774279Y69467D01*
X774383Y69469D01*
X771525Y66611D02*
X771527Y66493D01*
X771533Y66374D01*
X771542Y66256D01*
X771555Y66139D01*
X771573Y66022D01*
X771593Y65905D01*
X771618Y65789D01*
X771646Y65674D01*
X771679Y65561D01*
X771714Y65448D01*
X771754Y65336D01*
X771796Y65226D01*
X771843Y65117D01*
X771893Y65009D01*
X771946Y64904D01*
X772003Y64800D01*
X772063Y64698D01*
X772126Y64598D01*
X772193Y64500D01*
X772262Y64404D01*
X772335Y64311D01*
X772411Y64220D01*
X772489Y64131D01*
X772571Y64045D01*
X772655Y63962D01*
X772741Y63881D01*
X772831Y63804D01*
X772922Y63729D01*
X773016Y63657D01*
X773113Y63588D01*
X773211Y63523D01*
X773312Y63460D01*
X773415Y63401D01*
X773519Y63345D01*
X773625Y63293D01*
X773733Y63244D01*
X773842Y63199D01*
X773953Y63157D01*
X774065Y63119D01*
X776605Y68517D02*
X776530Y68593D01*
X776451Y68668D01*
X776370Y68739D01*
X776286Y68808D01*
X776200Y68873D01*
X776112Y68935D01*
X776022Y68995D01*
X775930Y69051D01*
X775835Y69104D01*
X775739Y69153D01*
X775641Y69199D01*
X775542Y69242D01*
X775441Y69281D01*
X775339Y69316D01*
X775236Y69348D01*
X775132Y69376D01*
X775027Y69401D01*
X774920Y69422D01*
X774814Y69439D01*
X774707Y69452D01*
X774599Y69461D01*
X774491Y69467D01*
X774383Y69469D01*
X776605Y68516D02*
X782955Y63119D01*
X782955Y69469D01*
X774065Y74549D02*
X771525Y77724D01*
X782955Y77724D01*
X782955Y74549D02*
X782955Y80899D01*
D10*
X549910Y584200D02*
X549910Y762000D01*
X491490Y762000D02*
X491490Y584200D01*
X549910Y584200D01*
X549910Y762000D02*
X530860Y762000D01*
X510540Y762000D02*
X491490Y762000D01*
X510540Y762000D02*
X510543Y761753D01*
X510552Y761505D01*
X510567Y761258D01*
X510588Y761012D01*
X510615Y760766D01*
X510648Y760521D01*
X510687Y760276D01*
X510732Y760033D01*
X510783Y759791D01*
X510840Y759550D01*
X510902Y759311D01*
X510971Y759073D01*
X511045Y758837D01*
X511125Y758603D01*
X511210Y758371D01*
X511302Y758141D01*
X511398Y757913D01*
X511501Y757688D01*
X511608Y757465D01*
X511722Y757245D01*
X511840Y757028D01*
X511964Y756813D01*
X512093Y756602D01*
X512227Y756394D01*
X512366Y756189D01*
X512510Y755988D01*
X512658Y755790D01*
X512812Y755596D01*
X512970Y755406D01*
X513133Y755220D01*
X513300Y755038D01*
X513472Y754860D01*
X513648Y754686D01*
X513828Y754516D01*
X514013Y754351D01*
X514201Y754191D01*
X514393Y754035D01*
X514589Y753883D01*
X514788Y753737D01*
X514991Y753595D01*
X515198Y753459D01*
X515407Y753327D01*
X515620Y753201D01*
X515836Y753080D01*
X516054Y752964D01*
X516276Y752854D01*
X516500Y752749D01*
X516726Y752649D01*
X516955Y752555D01*
X517186Y752467D01*
X517420Y752384D01*
X517655Y752307D01*
X517892Y752236D01*
X518130Y752170D01*
X518370Y752111D01*
X518612Y752057D01*
X518855Y752009D01*
X519098Y751967D01*
X519343Y751931D01*
X519589Y751901D01*
X519835Y751877D01*
X520082Y751859D01*
X520329Y751847D01*
X520576Y751841D01*
X520824Y751841D01*
X521071Y751847D01*
X521318Y751859D01*
X521565Y751877D01*
X521811Y751901D01*
X522057Y751931D01*
X522302Y751967D01*
X522545Y752009D01*
X522788Y752057D01*
X523030Y752111D01*
X523270Y752170D01*
X523508Y752236D01*
X523745Y752307D01*
X523980Y752384D01*
X524214Y752467D01*
X524445Y752555D01*
X524674Y752649D01*
X524900Y752749D01*
X525124Y752854D01*
X525346Y752964D01*
X525564Y753080D01*
X525780Y753201D01*
X525993Y753327D01*
X526202Y753459D01*
X526409Y753595D01*
X526612Y753737D01*
X526811Y753883D01*
X527007Y754035D01*
X527199Y754191D01*
X527387Y754351D01*
X527572Y754516D01*
X527752Y754686D01*
X527928Y754860D01*
X528100Y755038D01*
X528267Y755220D01*
X528430Y755406D01*
X528588Y755596D01*
X528742Y755790D01*
X528890Y755988D01*
X529034Y756189D01*
X529173Y756394D01*
X529307Y756602D01*
X529436Y756813D01*
X529560Y757028D01*
X529678Y757245D01*
X529792Y757465D01*
X529899Y757688D01*
X530002Y757913D01*
X530098Y758141D01*
X530190Y758371D01*
X530275Y758603D01*
X530355Y758837D01*
X530429Y759073D01*
X530498Y759311D01*
X530560Y759550D01*
X530617Y759791D01*
X530668Y760033D01*
X530713Y760276D01*
X530752Y760521D01*
X530785Y760766D01*
X530812Y761012D01*
X530833Y761258D01*
X530848Y761505D01*
X530857Y761753D01*
X530860Y762000D01*
D11*
X492125Y766445D02*
X492125Y777875D01*
X490855Y766445D02*
X493395Y766445D01*
X493395Y777875D02*
X490855Y777875D01*
X500597Y766445D02*
X503137Y766445D01*
X500597Y766445D02*
X500497Y766447D01*
X500398Y766453D01*
X500298Y766463D01*
X500200Y766476D01*
X500101Y766494D01*
X500004Y766515D01*
X499908Y766540D01*
X499812Y766569D01*
X499718Y766602D01*
X499625Y766638D01*
X499534Y766678D01*
X499444Y766722D01*
X499356Y766769D01*
X499270Y766819D01*
X499186Y766873D01*
X499104Y766930D01*
X499025Y766990D01*
X498947Y767054D01*
X498873Y767120D01*
X498801Y767189D01*
X498732Y767261D01*
X498666Y767335D01*
X498602Y767413D01*
X498542Y767492D01*
X498485Y767574D01*
X498431Y767658D01*
X498381Y767744D01*
X498334Y767832D01*
X498290Y767922D01*
X498250Y768013D01*
X498214Y768106D01*
X498181Y768200D01*
X498152Y768296D01*
X498127Y768392D01*
X498106Y768489D01*
X498088Y768588D01*
X498075Y768686D01*
X498065Y768786D01*
X498059Y768885D01*
X498057Y768985D01*
X498057Y775335D01*
X498059Y775435D01*
X498065Y775534D01*
X498075Y775634D01*
X498088Y775732D01*
X498106Y775831D01*
X498127Y775928D01*
X498152Y776024D01*
X498181Y776120D01*
X498214Y776214D01*
X498250Y776307D01*
X498290Y776398D01*
X498334Y776488D01*
X498381Y776576D01*
X498431Y776662D01*
X498485Y776746D01*
X498542Y776828D01*
X498602Y776907D01*
X498666Y776985D01*
X498732Y777059D01*
X498801Y777131D01*
X498873Y777200D01*
X498947Y777266D01*
X499025Y777330D01*
X499104Y777390D01*
X499186Y777447D01*
X499270Y777501D01*
X499356Y777551D01*
X499444Y777598D01*
X499534Y777642D01*
X499625Y777682D01*
X499718Y777718D01*
X499812Y777751D01*
X499908Y777780D01*
X500004Y777805D01*
X500101Y777826D01*
X500200Y777844D01*
X500298Y777857D01*
X500398Y777867D01*
X500497Y777873D01*
X500597Y777875D01*
X503137Y777875D01*
X511111Y777876D02*
X511215Y777874D01*
X511320Y777868D01*
X511424Y777859D01*
X511527Y777846D01*
X511630Y777828D01*
X511732Y777808D01*
X511834Y777783D01*
X511934Y777755D01*
X512034Y777723D01*
X512132Y777687D01*
X512229Y777648D01*
X512324Y777606D01*
X512418Y777560D01*
X512510Y777510D01*
X512600Y777458D01*
X512688Y777402D01*
X512774Y777342D01*
X512858Y777280D01*
X512939Y777215D01*
X513018Y777147D01*
X513095Y777075D01*
X513168Y777002D01*
X513240Y776925D01*
X513308Y776846D01*
X513373Y776765D01*
X513435Y776681D01*
X513495Y776595D01*
X513551Y776507D01*
X513603Y776417D01*
X513653Y776325D01*
X513699Y776231D01*
X513741Y776136D01*
X513780Y776039D01*
X513816Y775941D01*
X513848Y775841D01*
X513876Y775741D01*
X513901Y775639D01*
X513921Y775537D01*
X513939Y775434D01*
X513952Y775331D01*
X513961Y775227D01*
X513967Y775122D01*
X513969Y775018D01*
X511111Y777875D02*
X510993Y777873D01*
X510874Y777867D01*
X510756Y777858D01*
X510639Y777845D01*
X510522Y777827D01*
X510405Y777807D01*
X510289Y777782D01*
X510174Y777754D01*
X510061Y777721D01*
X509948Y777686D01*
X509836Y777646D01*
X509726Y777604D01*
X509617Y777557D01*
X509509Y777507D01*
X509404Y777454D01*
X509300Y777397D01*
X509198Y777337D01*
X509098Y777274D01*
X509000Y777207D01*
X508904Y777138D01*
X508811Y777065D01*
X508720Y776989D01*
X508631Y776911D01*
X508545Y776829D01*
X508462Y776745D01*
X508381Y776659D01*
X508304Y776569D01*
X508229Y776478D01*
X508157Y776384D01*
X508088Y776287D01*
X508023Y776189D01*
X507960Y776088D01*
X507901Y775985D01*
X507845Y775881D01*
X507793Y775775D01*
X507744Y775667D01*
X507699Y775558D01*
X507657Y775447D01*
X507619Y775335D01*
X513017Y772796D02*
X513093Y772871D01*
X513168Y772950D01*
X513239Y773031D01*
X513308Y773115D01*
X513373Y773201D01*
X513435Y773289D01*
X513495Y773379D01*
X513551Y773471D01*
X513604Y773566D01*
X513653Y773662D01*
X513699Y773760D01*
X513742Y773859D01*
X513781Y773960D01*
X513816Y774062D01*
X513848Y774165D01*
X513876Y774269D01*
X513901Y774374D01*
X513922Y774481D01*
X513939Y774587D01*
X513952Y774694D01*
X513961Y774802D01*
X513967Y774910D01*
X513969Y775018D01*
X513016Y772795D02*
X507619Y766445D01*
X513969Y766445D01*
X525399Y775018D02*
X525397Y775122D01*
X525391Y775227D01*
X525382Y775331D01*
X525369Y775434D01*
X525351Y775537D01*
X525331Y775639D01*
X525306Y775741D01*
X525278Y775841D01*
X525246Y775941D01*
X525210Y776039D01*
X525171Y776136D01*
X525129Y776231D01*
X525083Y776325D01*
X525033Y776417D01*
X524981Y776507D01*
X524925Y776595D01*
X524865Y776681D01*
X524803Y776765D01*
X524738Y776846D01*
X524670Y776925D01*
X524598Y777002D01*
X524525Y777075D01*
X524448Y777147D01*
X524369Y777215D01*
X524288Y777280D01*
X524204Y777342D01*
X524118Y777402D01*
X524030Y777458D01*
X523940Y777510D01*
X523848Y777560D01*
X523754Y777606D01*
X523659Y777648D01*
X523562Y777687D01*
X523464Y777723D01*
X523364Y777755D01*
X523264Y777783D01*
X523162Y777808D01*
X523060Y777828D01*
X522957Y777846D01*
X522854Y777859D01*
X522750Y777868D01*
X522645Y777874D01*
X522541Y777876D01*
X522541Y777875D02*
X522423Y777873D01*
X522304Y777867D01*
X522186Y777858D01*
X522069Y777845D01*
X521952Y777827D01*
X521835Y777807D01*
X521719Y777782D01*
X521604Y777754D01*
X521491Y777721D01*
X521378Y777686D01*
X521266Y777646D01*
X521156Y777604D01*
X521047Y777557D01*
X520939Y777507D01*
X520834Y777454D01*
X520730Y777397D01*
X520628Y777337D01*
X520528Y777274D01*
X520430Y777207D01*
X520334Y777138D01*
X520241Y777065D01*
X520150Y776989D01*
X520061Y776911D01*
X519975Y776829D01*
X519892Y776745D01*
X519811Y776659D01*
X519734Y776569D01*
X519659Y776478D01*
X519587Y776384D01*
X519518Y776287D01*
X519453Y776189D01*
X519390Y776088D01*
X519331Y775985D01*
X519275Y775881D01*
X519223Y775775D01*
X519174Y775667D01*
X519129Y775558D01*
X519087Y775447D01*
X519049Y775335D01*
X524447Y772796D02*
X524523Y772871D01*
X524598Y772950D01*
X524669Y773031D01*
X524738Y773115D01*
X524803Y773201D01*
X524865Y773289D01*
X524925Y773379D01*
X524981Y773471D01*
X525034Y773566D01*
X525083Y773662D01*
X525129Y773760D01*
X525172Y773859D01*
X525211Y773960D01*
X525246Y774062D01*
X525278Y774165D01*
X525306Y774269D01*
X525331Y774374D01*
X525352Y774481D01*
X525369Y774587D01*
X525382Y774694D01*
X525391Y774802D01*
X525397Y774910D01*
X525399Y775018D01*
X524446Y772795D02*
X519049Y766445D01*
X525399Y766445D01*
D10*
X905510Y330200D02*
X905510Y152400D01*
X847090Y152400D02*
X847090Y330200D01*
X847090Y152400D02*
X905510Y152400D01*
X905510Y330200D02*
X886460Y330200D01*
X866140Y330200D02*
X847090Y330200D01*
X866140Y330200D02*
X866143Y329953D01*
X866152Y329705D01*
X866167Y329458D01*
X866188Y329212D01*
X866215Y328966D01*
X866248Y328721D01*
X866287Y328476D01*
X866332Y328233D01*
X866383Y327991D01*
X866440Y327750D01*
X866502Y327511D01*
X866571Y327273D01*
X866645Y327037D01*
X866725Y326803D01*
X866810Y326571D01*
X866902Y326341D01*
X866998Y326113D01*
X867101Y325888D01*
X867208Y325665D01*
X867322Y325445D01*
X867440Y325228D01*
X867564Y325013D01*
X867693Y324802D01*
X867827Y324594D01*
X867966Y324389D01*
X868110Y324188D01*
X868258Y323990D01*
X868412Y323796D01*
X868570Y323606D01*
X868733Y323420D01*
X868900Y323238D01*
X869072Y323060D01*
X869248Y322886D01*
X869428Y322716D01*
X869613Y322551D01*
X869801Y322391D01*
X869993Y322235D01*
X870189Y322083D01*
X870388Y321937D01*
X870591Y321795D01*
X870798Y321659D01*
X871007Y321527D01*
X871220Y321401D01*
X871436Y321280D01*
X871654Y321164D01*
X871876Y321054D01*
X872100Y320949D01*
X872326Y320849D01*
X872555Y320755D01*
X872786Y320667D01*
X873020Y320584D01*
X873255Y320507D01*
X873492Y320436D01*
X873730Y320370D01*
X873970Y320311D01*
X874212Y320257D01*
X874455Y320209D01*
X874698Y320167D01*
X874943Y320131D01*
X875189Y320101D01*
X875435Y320077D01*
X875682Y320059D01*
X875929Y320047D01*
X876176Y320041D01*
X876424Y320041D01*
X876671Y320047D01*
X876918Y320059D01*
X877165Y320077D01*
X877411Y320101D01*
X877657Y320131D01*
X877902Y320167D01*
X878145Y320209D01*
X878388Y320257D01*
X878630Y320311D01*
X878870Y320370D01*
X879108Y320436D01*
X879345Y320507D01*
X879580Y320584D01*
X879814Y320667D01*
X880045Y320755D01*
X880274Y320849D01*
X880500Y320949D01*
X880724Y321054D01*
X880946Y321164D01*
X881164Y321280D01*
X881380Y321401D01*
X881593Y321527D01*
X881802Y321659D01*
X882009Y321795D01*
X882212Y321937D01*
X882411Y322083D01*
X882607Y322235D01*
X882799Y322391D01*
X882987Y322551D01*
X883172Y322716D01*
X883352Y322886D01*
X883528Y323060D01*
X883700Y323238D01*
X883867Y323420D01*
X884030Y323606D01*
X884188Y323796D01*
X884342Y323990D01*
X884490Y324188D01*
X884634Y324389D01*
X884773Y324594D01*
X884907Y324802D01*
X885036Y325013D01*
X885160Y325228D01*
X885278Y325445D01*
X885392Y325665D01*
X885499Y325888D01*
X885602Y326113D01*
X885698Y326341D01*
X885790Y326571D01*
X885875Y326803D01*
X885955Y327037D01*
X886029Y327273D01*
X886098Y327511D01*
X886160Y327750D01*
X886217Y327991D01*
X886268Y328233D01*
X886313Y328476D01*
X886352Y328721D01*
X886385Y328966D01*
X886412Y329212D01*
X886433Y329458D01*
X886448Y329705D01*
X886457Y329953D01*
X886460Y330200D01*
D11*
X847725Y334645D02*
X847725Y346075D01*
X846455Y334645D02*
X848995Y334645D01*
X848995Y346075D02*
X846455Y346075D01*
X856197Y334645D02*
X858737Y334645D01*
X856197Y334645D02*
X856097Y334647D01*
X855998Y334653D01*
X855898Y334663D01*
X855800Y334676D01*
X855701Y334694D01*
X855604Y334715D01*
X855508Y334740D01*
X855412Y334769D01*
X855318Y334802D01*
X855225Y334838D01*
X855134Y334878D01*
X855044Y334922D01*
X854956Y334969D01*
X854870Y335019D01*
X854786Y335073D01*
X854704Y335130D01*
X854625Y335190D01*
X854547Y335254D01*
X854473Y335320D01*
X854401Y335389D01*
X854332Y335461D01*
X854266Y335535D01*
X854202Y335613D01*
X854142Y335692D01*
X854085Y335774D01*
X854031Y335858D01*
X853981Y335944D01*
X853934Y336032D01*
X853890Y336122D01*
X853850Y336213D01*
X853814Y336306D01*
X853781Y336400D01*
X853752Y336496D01*
X853727Y336592D01*
X853706Y336689D01*
X853688Y336788D01*
X853675Y336886D01*
X853665Y336986D01*
X853659Y337085D01*
X853657Y337185D01*
X853657Y343535D01*
X853659Y343635D01*
X853665Y343734D01*
X853675Y343834D01*
X853688Y343932D01*
X853706Y344031D01*
X853727Y344128D01*
X853752Y344224D01*
X853781Y344320D01*
X853814Y344414D01*
X853850Y344507D01*
X853890Y344598D01*
X853934Y344688D01*
X853981Y344776D01*
X854031Y344862D01*
X854085Y344946D01*
X854142Y345028D01*
X854202Y345107D01*
X854266Y345185D01*
X854332Y345259D01*
X854401Y345331D01*
X854473Y345400D01*
X854547Y345466D01*
X854625Y345530D01*
X854704Y345590D01*
X854786Y345647D01*
X854870Y345701D01*
X854956Y345751D01*
X855044Y345798D01*
X855134Y345842D01*
X855225Y345882D01*
X855318Y345918D01*
X855412Y345951D01*
X855508Y345980D01*
X855604Y346005D01*
X855701Y346026D01*
X855800Y346044D01*
X855898Y346057D01*
X855998Y346067D01*
X856097Y346073D01*
X856197Y346075D01*
X858737Y346075D01*
X866711Y346076D02*
X866815Y346074D01*
X866920Y346068D01*
X867024Y346059D01*
X867127Y346046D01*
X867230Y346028D01*
X867332Y346008D01*
X867434Y345983D01*
X867534Y345955D01*
X867634Y345923D01*
X867732Y345887D01*
X867829Y345848D01*
X867924Y345806D01*
X868018Y345760D01*
X868110Y345710D01*
X868200Y345658D01*
X868288Y345602D01*
X868374Y345542D01*
X868458Y345480D01*
X868539Y345415D01*
X868618Y345347D01*
X868695Y345275D01*
X868768Y345202D01*
X868840Y345125D01*
X868908Y345046D01*
X868973Y344965D01*
X869035Y344881D01*
X869095Y344795D01*
X869151Y344707D01*
X869203Y344617D01*
X869253Y344525D01*
X869299Y344431D01*
X869341Y344336D01*
X869380Y344239D01*
X869416Y344141D01*
X869448Y344041D01*
X869476Y343941D01*
X869501Y343839D01*
X869521Y343737D01*
X869539Y343634D01*
X869552Y343531D01*
X869561Y343427D01*
X869567Y343322D01*
X869569Y343218D01*
X866711Y346075D02*
X866593Y346073D01*
X866474Y346067D01*
X866356Y346058D01*
X866239Y346045D01*
X866122Y346027D01*
X866005Y346007D01*
X865889Y345982D01*
X865774Y345954D01*
X865661Y345921D01*
X865548Y345886D01*
X865436Y345846D01*
X865326Y345804D01*
X865217Y345757D01*
X865109Y345707D01*
X865004Y345654D01*
X864900Y345597D01*
X864798Y345537D01*
X864698Y345474D01*
X864600Y345407D01*
X864504Y345338D01*
X864411Y345265D01*
X864320Y345189D01*
X864231Y345111D01*
X864145Y345029D01*
X864062Y344945D01*
X863981Y344859D01*
X863904Y344769D01*
X863829Y344678D01*
X863757Y344584D01*
X863688Y344487D01*
X863623Y344389D01*
X863560Y344288D01*
X863501Y344185D01*
X863445Y344081D01*
X863393Y343975D01*
X863344Y343867D01*
X863299Y343758D01*
X863257Y343647D01*
X863219Y343535D01*
X868617Y340996D02*
X868693Y341071D01*
X868768Y341150D01*
X868839Y341231D01*
X868908Y341315D01*
X868973Y341401D01*
X869035Y341489D01*
X869095Y341579D01*
X869151Y341671D01*
X869204Y341766D01*
X869253Y341862D01*
X869299Y341960D01*
X869342Y342059D01*
X869381Y342160D01*
X869416Y342262D01*
X869448Y342365D01*
X869476Y342469D01*
X869501Y342574D01*
X869522Y342681D01*
X869539Y342787D01*
X869552Y342894D01*
X869561Y343002D01*
X869567Y343110D01*
X869569Y343218D01*
X868616Y340995D02*
X863219Y334645D01*
X869569Y334645D01*
X874649Y334645D02*
X877824Y334645D01*
X877935Y334647D01*
X878045Y334653D01*
X878156Y334662D01*
X878266Y334676D01*
X878375Y334693D01*
X878484Y334714D01*
X878592Y334739D01*
X878699Y334768D01*
X878805Y334800D01*
X878910Y334836D01*
X879013Y334876D01*
X879115Y334919D01*
X879216Y334966D01*
X879315Y335017D01*
X879412Y335070D01*
X879506Y335127D01*
X879599Y335188D01*
X879690Y335251D01*
X879779Y335318D01*
X879865Y335388D01*
X879948Y335461D01*
X880030Y335536D01*
X880108Y335614D01*
X880183Y335696D01*
X880256Y335779D01*
X880326Y335865D01*
X880393Y335954D01*
X880456Y336045D01*
X880517Y336138D01*
X880574Y336232D01*
X880627Y336329D01*
X880678Y336428D01*
X880725Y336529D01*
X880768Y336631D01*
X880808Y336734D01*
X880844Y336839D01*
X880876Y336945D01*
X880905Y337052D01*
X880930Y337160D01*
X880951Y337269D01*
X880968Y337378D01*
X880982Y337488D01*
X880991Y337599D01*
X880997Y337709D01*
X880999Y337820D01*
X880997Y337931D01*
X880991Y338041D01*
X880982Y338152D01*
X880968Y338262D01*
X880951Y338371D01*
X880930Y338480D01*
X880905Y338588D01*
X880876Y338695D01*
X880844Y338801D01*
X880808Y338906D01*
X880768Y339009D01*
X880725Y339111D01*
X880678Y339212D01*
X880627Y339311D01*
X880574Y339407D01*
X880517Y339502D01*
X880456Y339595D01*
X880393Y339686D01*
X880326Y339775D01*
X880256Y339861D01*
X880183Y339944D01*
X880108Y340026D01*
X880030Y340104D01*
X879948Y340179D01*
X879865Y340252D01*
X879779Y340322D01*
X879690Y340389D01*
X879599Y340452D01*
X879506Y340513D01*
X879412Y340570D01*
X879315Y340623D01*
X879216Y340674D01*
X879115Y340721D01*
X879013Y340764D01*
X878910Y340804D01*
X878805Y340840D01*
X878699Y340872D01*
X878592Y340901D01*
X878484Y340926D01*
X878375Y340947D01*
X878266Y340964D01*
X878156Y340978D01*
X878045Y340987D01*
X877935Y340993D01*
X877824Y340995D01*
X878459Y346075D02*
X874649Y346075D01*
X878459Y346075D02*
X878559Y346073D01*
X878658Y346067D01*
X878758Y346057D01*
X878856Y346044D01*
X878955Y346026D01*
X879052Y346005D01*
X879148Y345980D01*
X879244Y345951D01*
X879338Y345918D01*
X879431Y345882D01*
X879522Y345842D01*
X879612Y345798D01*
X879700Y345751D01*
X879786Y345701D01*
X879870Y345647D01*
X879952Y345590D01*
X880031Y345530D01*
X880109Y345466D01*
X880183Y345400D01*
X880255Y345331D01*
X880324Y345259D01*
X880390Y345185D01*
X880454Y345107D01*
X880514Y345028D01*
X880571Y344946D01*
X880625Y344862D01*
X880675Y344776D01*
X880722Y344688D01*
X880766Y344598D01*
X880806Y344507D01*
X880842Y344414D01*
X880875Y344320D01*
X880904Y344224D01*
X880929Y344128D01*
X880950Y344031D01*
X880968Y343932D01*
X880981Y343834D01*
X880991Y343734D01*
X880997Y343635D01*
X880999Y343535D01*
X880997Y343435D01*
X880991Y343336D01*
X880981Y343236D01*
X880968Y343138D01*
X880950Y343039D01*
X880929Y342942D01*
X880904Y342846D01*
X880875Y342750D01*
X880842Y342656D01*
X880806Y342563D01*
X880766Y342472D01*
X880722Y342382D01*
X880675Y342294D01*
X880625Y342208D01*
X880571Y342124D01*
X880514Y342042D01*
X880454Y341963D01*
X880390Y341885D01*
X880324Y341811D01*
X880255Y341739D01*
X880183Y341670D01*
X880109Y341604D01*
X880031Y341540D01*
X879952Y341480D01*
X879870Y341423D01*
X879786Y341369D01*
X879700Y341319D01*
X879612Y341272D01*
X879522Y341228D01*
X879431Y341188D01*
X879338Y341152D01*
X879244Y341119D01*
X879148Y341090D01*
X879052Y341065D01*
X878955Y341044D01*
X878856Y341026D01*
X878758Y341013D01*
X878658Y341003D01*
X878559Y340997D01*
X878459Y340995D01*
X875919Y340995D01*
D10*
X270510Y558800D02*
X270510Y736600D01*
X212090Y736600D02*
X212090Y558800D01*
X270510Y558800D01*
X270510Y736600D02*
X251460Y736600D01*
X231140Y736600D02*
X212090Y736600D01*
X231140Y736600D02*
X231143Y736353D01*
X231152Y736105D01*
X231167Y735858D01*
X231188Y735612D01*
X231215Y735366D01*
X231248Y735121D01*
X231287Y734876D01*
X231332Y734633D01*
X231383Y734391D01*
X231440Y734150D01*
X231502Y733911D01*
X231571Y733673D01*
X231645Y733437D01*
X231725Y733203D01*
X231810Y732971D01*
X231902Y732741D01*
X231998Y732513D01*
X232101Y732288D01*
X232208Y732065D01*
X232322Y731845D01*
X232440Y731628D01*
X232564Y731413D01*
X232693Y731202D01*
X232827Y730994D01*
X232966Y730789D01*
X233110Y730588D01*
X233258Y730390D01*
X233412Y730196D01*
X233570Y730006D01*
X233733Y729820D01*
X233900Y729638D01*
X234072Y729460D01*
X234248Y729286D01*
X234428Y729116D01*
X234613Y728951D01*
X234801Y728791D01*
X234993Y728635D01*
X235189Y728483D01*
X235388Y728337D01*
X235591Y728195D01*
X235798Y728059D01*
X236007Y727927D01*
X236220Y727801D01*
X236436Y727680D01*
X236654Y727564D01*
X236876Y727454D01*
X237100Y727349D01*
X237326Y727249D01*
X237555Y727155D01*
X237786Y727067D01*
X238020Y726984D01*
X238255Y726907D01*
X238492Y726836D01*
X238730Y726770D01*
X238970Y726711D01*
X239212Y726657D01*
X239455Y726609D01*
X239698Y726567D01*
X239943Y726531D01*
X240189Y726501D01*
X240435Y726477D01*
X240682Y726459D01*
X240929Y726447D01*
X241176Y726441D01*
X241424Y726441D01*
X241671Y726447D01*
X241918Y726459D01*
X242165Y726477D01*
X242411Y726501D01*
X242657Y726531D01*
X242902Y726567D01*
X243145Y726609D01*
X243388Y726657D01*
X243630Y726711D01*
X243870Y726770D01*
X244108Y726836D01*
X244345Y726907D01*
X244580Y726984D01*
X244814Y727067D01*
X245045Y727155D01*
X245274Y727249D01*
X245500Y727349D01*
X245724Y727454D01*
X245946Y727564D01*
X246164Y727680D01*
X246380Y727801D01*
X246593Y727927D01*
X246802Y728059D01*
X247009Y728195D01*
X247212Y728337D01*
X247411Y728483D01*
X247607Y728635D01*
X247799Y728791D01*
X247987Y728951D01*
X248172Y729116D01*
X248352Y729286D01*
X248528Y729460D01*
X248700Y729638D01*
X248867Y729820D01*
X249030Y730006D01*
X249188Y730196D01*
X249342Y730390D01*
X249490Y730588D01*
X249634Y730789D01*
X249773Y730994D01*
X249907Y731202D01*
X250036Y731413D01*
X250160Y731628D01*
X250278Y731845D01*
X250392Y732065D01*
X250499Y732288D01*
X250602Y732513D01*
X250698Y732741D01*
X250790Y732971D01*
X250875Y733203D01*
X250955Y733437D01*
X251029Y733673D01*
X251098Y733911D01*
X251160Y734150D01*
X251217Y734391D01*
X251268Y734633D01*
X251313Y734876D01*
X251352Y735121D01*
X251385Y735366D01*
X251412Y735612D01*
X251433Y735858D01*
X251448Y736105D01*
X251457Y736353D01*
X251460Y736600D01*
D11*
X212725Y741045D02*
X212725Y752475D01*
X211455Y741045D02*
X213995Y741045D01*
X213995Y752475D02*
X211455Y752475D01*
X221197Y741045D02*
X223737Y741045D01*
X221197Y741045D02*
X221097Y741047D01*
X220998Y741053D01*
X220898Y741063D01*
X220800Y741076D01*
X220701Y741094D01*
X220604Y741115D01*
X220508Y741140D01*
X220412Y741169D01*
X220318Y741202D01*
X220225Y741238D01*
X220134Y741278D01*
X220044Y741322D01*
X219956Y741369D01*
X219870Y741419D01*
X219786Y741473D01*
X219704Y741530D01*
X219625Y741590D01*
X219547Y741654D01*
X219473Y741720D01*
X219401Y741789D01*
X219332Y741861D01*
X219266Y741935D01*
X219202Y742013D01*
X219142Y742092D01*
X219085Y742174D01*
X219031Y742258D01*
X218981Y742344D01*
X218934Y742432D01*
X218890Y742522D01*
X218850Y742613D01*
X218814Y742706D01*
X218781Y742800D01*
X218752Y742896D01*
X218727Y742992D01*
X218706Y743089D01*
X218688Y743188D01*
X218675Y743286D01*
X218665Y743386D01*
X218659Y743485D01*
X218657Y743585D01*
X218657Y749935D01*
X218659Y750035D01*
X218665Y750134D01*
X218675Y750234D01*
X218688Y750332D01*
X218706Y750431D01*
X218727Y750528D01*
X218752Y750624D01*
X218781Y750720D01*
X218814Y750814D01*
X218850Y750907D01*
X218890Y750998D01*
X218934Y751088D01*
X218981Y751176D01*
X219031Y751262D01*
X219085Y751346D01*
X219142Y751428D01*
X219202Y751507D01*
X219266Y751585D01*
X219332Y751659D01*
X219401Y751731D01*
X219473Y751800D01*
X219547Y751866D01*
X219625Y751930D01*
X219704Y751990D01*
X219786Y752047D01*
X219870Y752101D01*
X219956Y752151D01*
X220044Y752198D01*
X220134Y752242D01*
X220225Y752282D01*
X220318Y752318D01*
X220412Y752351D01*
X220508Y752380D01*
X220604Y752405D01*
X220701Y752426D01*
X220800Y752444D01*
X220898Y752457D01*
X220998Y752467D01*
X221097Y752473D01*
X221197Y752475D01*
X223737Y752475D01*
X228219Y741045D02*
X231394Y741045D01*
X231505Y741047D01*
X231615Y741053D01*
X231726Y741062D01*
X231836Y741076D01*
X231945Y741093D01*
X232054Y741114D01*
X232162Y741139D01*
X232269Y741168D01*
X232375Y741200D01*
X232480Y741236D01*
X232583Y741276D01*
X232685Y741319D01*
X232786Y741366D01*
X232885Y741417D01*
X232981Y741470D01*
X233076Y741527D01*
X233169Y741588D01*
X233260Y741651D01*
X233349Y741718D01*
X233435Y741788D01*
X233518Y741861D01*
X233600Y741936D01*
X233678Y742014D01*
X233753Y742096D01*
X233826Y742179D01*
X233896Y742265D01*
X233963Y742354D01*
X234026Y742445D01*
X234087Y742538D01*
X234144Y742633D01*
X234197Y742729D01*
X234248Y742828D01*
X234295Y742929D01*
X234338Y743031D01*
X234378Y743134D01*
X234414Y743239D01*
X234446Y743345D01*
X234475Y743452D01*
X234500Y743560D01*
X234521Y743669D01*
X234538Y743778D01*
X234552Y743888D01*
X234561Y743999D01*
X234567Y744109D01*
X234569Y744220D01*
X234567Y744331D01*
X234561Y744441D01*
X234552Y744552D01*
X234538Y744662D01*
X234521Y744771D01*
X234500Y744880D01*
X234475Y744988D01*
X234446Y745095D01*
X234414Y745201D01*
X234378Y745306D01*
X234338Y745409D01*
X234295Y745511D01*
X234248Y745612D01*
X234197Y745711D01*
X234144Y745807D01*
X234087Y745902D01*
X234026Y745995D01*
X233963Y746086D01*
X233896Y746175D01*
X233826Y746261D01*
X233753Y746344D01*
X233678Y746426D01*
X233600Y746504D01*
X233518Y746579D01*
X233435Y746652D01*
X233349Y746722D01*
X233260Y746789D01*
X233169Y746852D01*
X233076Y746913D01*
X232982Y746970D01*
X232885Y747023D01*
X232786Y747074D01*
X232685Y747121D01*
X232583Y747164D01*
X232480Y747204D01*
X232375Y747240D01*
X232269Y747272D01*
X232162Y747301D01*
X232054Y747326D01*
X231945Y747347D01*
X231836Y747364D01*
X231726Y747378D01*
X231615Y747387D01*
X231505Y747393D01*
X231394Y747395D01*
X232029Y752475D02*
X228219Y752475D01*
X232029Y752475D02*
X232129Y752473D01*
X232228Y752467D01*
X232328Y752457D01*
X232426Y752444D01*
X232525Y752426D01*
X232622Y752405D01*
X232718Y752380D01*
X232814Y752351D01*
X232908Y752318D01*
X233001Y752282D01*
X233092Y752242D01*
X233182Y752198D01*
X233270Y752151D01*
X233356Y752101D01*
X233440Y752047D01*
X233522Y751990D01*
X233601Y751930D01*
X233679Y751866D01*
X233753Y751800D01*
X233825Y751731D01*
X233894Y751659D01*
X233960Y751585D01*
X234024Y751507D01*
X234084Y751428D01*
X234141Y751346D01*
X234195Y751262D01*
X234245Y751176D01*
X234292Y751088D01*
X234336Y750998D01*
X234376Y750907D01*
X234412Y750814D01*
X234445Y750720D01*
X234474Y750624D01*
X234499Y750528D01*
X234520Y750431D01*
X234538Y750332D01*
X234551Y750234D01*
X234561Y750134D01*
X234567Y750035D01*
X234569Y749935D01*
X234567Y749835D01*
X234561Y749736D01*
X234551Y749636D01*
X234538Y749538D01*
X234520Y749439D01*
X234499Y749342D01*
X234474Y749246D01*
X234445Y749150D01*
X234412Y749056D01*
X234376Y748963D01*
X234336Y748872D01*
X234292Y748782D01*
X234245Y748694D01*
X234195Y748608D01*
X234141Y748524D01*
X234084Y748442D01*
X234024Y748363D01*
X233960Y748285D01*
X233894Y748211D01*
X233825Y748139D01*
X233753Y748070D01*
X233679Y748004D01*
X233601Y747940D01*
X233522Y747880D01*
X233440Y747823D01*
X233356Y747769D01*
X233270Y747719D01*
X233182Y747672D01*
X233092Y747628D01*
X233001Y747588D01*
X232908Y747552D01*
X232814Y747519D01*
X232718Y747490D01*
X232622Y747465D01*
X232525Y747444D01*
X232426Y747426D01*
X232328Y747413D01*
X232228Y747403D01*
X232129Y747397D01*
X232029Y747395D01*
X229489Y747395D01*
D10*
X130810Y469900D02*
X130810Y266700D01*
X72390Y266700D02*
X72390Y469900D01*
X72390Y266700D02*
X130810Y266700D01*
X130810Y469900D02*
X111760Y469900D01*
X91440Y469900D02*
X72390Y469900D01*
X91440Y469900D02*
X91443Y469653D01*
X91452Y469405D01*
X91467Y469158D01*
X91488Y468912D01*
X91515Y468666D01*
X91548Y468421D01*
X91587Y468176D01*
X91632Y467933D01*
X91683Y467691D01*
X91740Y467450D01*
X91802Y467211D01*
X91871Y466973D01*
X91945Y466737D01*
X92025Y466503D01*
X92110Y466271D01*
X92202Y466041D01*
X92298Y465813D01*
X92401Y465588D01*
X92508Y465365D01*
X92622Y465145D01*
X92740Y464928D01*
X92864Y464713D01*
X92993Y464502D01*
X93127Y464294D01*
X93266Y464089D01*
X93410Y463888D01*
X93558Y463690D01*
X93712Y463496D01*
X93870Y463306D01*
X94033Y463120D01*
X94200Y462938D01*
X94372Y462760D01*
X94548Y462586D01*
X94728Y462416D01*
X94913Y462251D01*
X95101Y462091D01*
X95293Y461935D01*
X95489Y461783D01*
X95688Y461637D01*
X95891Y461495D01*
X96098Y461359D01*
X96307Y461227D01*
X96520Y461101D01*
X96736Y460980D01*
X96954Y460864D01*
X97176Y460754D01*
X97400Y460649D01*
X97626Y460549D01*
X97855Y460455D01*
X98086Y460367D01*
X98320Y460284D01*
X98555Y460207D01*
X98792Y460136D01*
X99030Y460070D01*
X99270Y460011D01*
X99512Y459957D01*
X99755Y459909D01*
X99998Y459867D01*
X100243Y459831D01*
X100489Y459801D01*
X100735Y459777D01*
X100982Y459759D01*
X101229Y459747D01*
X101476Y459741D01*
X101724Y459741D01*
X101971Y459747D01*
X102218Y459759D01*
X102465Y459777D01*
X102711Y459801D01*
X102957Y459831D01*
X103202Y459867D01*
X103445Y459909D01*
X103688Y459957D01*
X103930Y460011D01*
X104170Y460070D01*
X104408Y460136D01*
X104645Y460207D01*
X104880Y460284D01*
X105114Y460367D01*
X105345Y460455D01*
X105574Y460549D01*
X105800Y460649D01*
X106024Y460754D01*
X106246Y460864D01*
X106464Y460980D01*
X106680Y461101D01*
X106893Y461227D01*
X107102Y461359D01*
X107309Y461495D01*
X107512Y461637D01*
X107711Y461783D01*
X107907Y461935D01*
X108099Y462091D01*
X108287Y462251D01*
X108472Y462416D01*
X108652Y462586D01*
X108828Y462760D01*
X109000Y462938D01*
X109167Y463120D01*
X109330Y463306D01*
X109488Y463496D01*
X109642Y463690D01*
X109790Y463888D01*
X109934Y464089D01*
X110073Y464294D01*
X110207Y464502D01*
X110336Y464713D01*
X110460Y464928D01*
X110578Y465145D01*
X110692Y465365D01*
X110799Y465588D01*
X110902Y465813D01*
X110998Y466041D01*
X111090Y466271D01*
X111175Y466503D01*
X111255Y466737D01*
X111329Y466973D01*
X111398Y467211D01*
X111460Y467450D01*
X111517Y467691D01*
X111568Y467933D01*
X111613Y468176D01*
X111652Y468421D01*
X111685Y468666D01*
X111712Y468912D01*
X111733Y469158D01*
X111748Y469405D01*
X111757Y469653D01*
X111760Y469900D01*
D11*
X74295Y474345D02*
X74295Y485775D01*
X73025Y474345D02*
X75565Y474345D01*
X75565Y485775D02*
X73025Y485775D01*
X82767Y474345D02*
X85307Y474345D01*
X82767Y474345D02*
X82667Y474347D01*
X82568Y474353D01*
X82468Y474363D01*
X82370Y474376D01*
X82271Y474394D01*
X82174Y474415D01*
X82078Y474440D01*
X81982Y474469D01*
X81888Y474502D01*
X81795Y474538D01*
X81704Y474578D01*
X81614Y474622D01*
X81526Y474669D01*
X81440Y474719D01*
X81356Y474773D01*
X81274Y474830D01*
X81195Y474890D01*
X81117Y474954D01*
X81043Y475020D01*
X80971Y475089D01*
X80902Y475161D01*
X80836Y475235D01*
X80772Y475313D01*
X80712Y475392D01*
X80655Y475474D01*
X80601Y475558D01*
X80551Y475644D01*
X80504Y475732D01*
X80460Y475822D01*
X80420Y475913D01*
X80384Y476006D01*
X80351Y476100D01*
X80322Y476196D01*
X80297Y476292D01*
X80276Y476389D01*
X80258Y476488D01*
X80245Y476586D01*
X80235Y476686D01*
X80229Y476785D01*
X80227Y476885D01*
X80227Y483235D01*
X80229Y483335D01*
X80235Y483434D01*
X80245Y483534D01*
X80258Y483632D01*
X80276Y483731D01*
X80297Y483828D01*
X80322Y483924D01*
X80351Y484020D01*
X80384Y484114D01*
X80420Y484207D01*
X80460Y484298D01*
X80504Y484388D01*
X80551Y484476D01*
X80601Y484562D01*
X80655Y484646D01*
X80712Y484728D01*
X80772Y484807D01*
X80836Y484885D01*
X80902Y484959D01*
X80971Y485031D01*
X81043Y485100D01*
X81117Y485166D01*
X81195Y485230D01*
X81274Y485290D01*
X81356Y485347D01*
X81440Y485401D01*
X81526Y485451D01*
X81614Y485498D01*
X81704Y485542D01*
X81795Y485582D01*
X81888Y485618D01*
X81982Y485651D01*
X82078Y485680D01*
X82174Y485705D01*
X82271Y485726D01*
X82370Y485744D01*
X82468Y485757D01*
X82568Y485767D01*
X82667Y485773D01*
X82767Y485775D01*
X85307Y485775D01*
X92329Y485775D02*
X89789Y476885D01*
X96139Y476885D01*
X94234Y479425D02*
X94234Y474345D01*
D10*
X270510Y508000D02*
X270510Y304800D01*
X212090Y304800D02*
X212090Y508000D01*
X212090Y304800D02*
X270510Y304800D01*
X270510Y508000D02*
X251460Y508000D01*
X231140Y508000D02*
X212090Y508000D01*
X231140Y508000D02*
X231143Y507753D01*
X231152Y507505D01*
X231167Y507258D01*
X231188Y507012D01*
X231215Y506766D01*
X231248Y506521D01*
X231287Y506276D01*
X231332Y506033D01*
X231383Y505791D01*
X231440Y505550D01*
X231502Y505311D01*
X231571Y505073D01*
X231645Y504837D01*
X231725Y504603D01*
X231810Y504371D01*
X231902Y504141D01*
X231998Y503913D01*
X232101Y503688D01*
X232208Y503465D01*
X232322Y503245D01*
X232440Y503028D01*
X232564Y502813D01*
X232693Y502602D01*
X232827Y502394D01*
X232966Y502189D01*
X233110Y501988D01*
X233258Y501790D01*
X233412Y501596D01*
X233570Y501406D01*
X233733Y501220D01*
X233900Y501038D01*
X234072Y500860D01*
X234248Y500686D01*
X234428Y500516D01*
X234613Y500351D01*
X234801Y500191D01*
X234993Y500035D01*
X235189Y499883D01*
X235388Y499737D01*
X235591Y499595D01*
X235798Y499459D01*
X236007Y499327D01*
X236220Y499201D01*
X236436Y499080D01*
X236654Y498964D01*
X236876Y498854D01*
X237100Y498749D01*
X237326Y498649D01*
X237555Y498555D01*
X237786Y498467D01*
X238020Y498384D01*
X238255Y498307D01*
X238492Y498236D01*
X238730Y498170D01*
X238970Y498111D01*
X239212Y498057D01*
X239455Y498009D01*
X239698Y497967D01*
X239943Y497931D01*
X240189Y497901D01*
X240435Y497877D01*
X240682Y497859D01*
X240929Y497847D01*
X241176Y497841D01*
X241424Y497841D01*
X241671Y497847D01*
X241918Y497859D01*
X242165Y497877D01*
X242411Y497901D01*
X242657Y497931D01*
X242902Y497967D01*
X243145Y498009D01*
X243388Y498057D01*
X243630Y498111D01*
X243870Y498170D01*
X244108Y498236D01*
X244345Y498307D01*
X244580Y498384D01*
X244814Y498467D01*
X245045Y498555D01*
X245274Y498649D01*
X245500Y498749D01*
X245724Y498854D01*
X245946Y498964D01*
X246164Y499080D01*
X246380Y499201D01*
X246593Y499327D01*
X246802Y499459D01*
X247009Y499595D01*
X247212Y499737D01*
X247411Y499883D01*
X247607Y500035D01*
X247799Y500191D01*
X247987Y500351D01*
X248172Y500516D01*
X248352Y500686D01*
X248528Y500860D01*
X248700Y501038D01*
X248867Y501220D01*
X249030Y501406D01*
X249188Y501596D01*
X249342Y501790D01*
X249490Y501988D01*
X249634Y502189D01*
X249773Y502394D01*
X249907Y502602D01*
X250036Y502813D01*
X250160Y503028D01*
X250278Y503245D01*
X250392Y503465D01*
X250499Y503688D01*
X250602Y503913D01*
X250698Y504141D01*
X250790Y504371D01*
X250875Y504603D01*
X250955Y504837D01*
X251029Y505073D01*
X251098Y505311D01*
X251160Y505550D01*
X251217Y505791D01*
X251268Y506033D01*
X251313Y506276D01*
X251352Y506521D01*
X251385Y506766D01*
X251412Y507012D01*
X251433Y507258D01*
X251448Y507505D01*
X251457Y507753D01*
X251460Y508000D01*
D11*
X213995Y512445D02*
X213995Y523875D01*
X212725Y512445D02*
X215265Y512445D01*
X215265Y523875D02*
X212725Y523875D01*
X222467Y512445D02*
X225007Y512445D01*
X222467Y512445D02*
X222367Y512447D01*
X222268Y512453D01*
X222168Y512463D01*
X222070Y512476D01*
X221971Y512494D01*
X221874Y512515D01*
X221778Y512540D01*
X221682Y512569D01*
X221588Y512602D01*
X221495Y512638D01*
X221404Y512678D01*
X221314Y512722D01*
X221226Y512769D01*
X221140Y512819D01*
X221056Y512873D01*
X220974Y512930D01*
X220895Y512990D01*
X220817Y513054D01*
X220743Y513120D01*
X220671Y513189D01*
X220602Y513261D01*
X220536Y513335D01*
X220472Y513413D01*
X220412Y513492D01*
X220355Y513574D01*
X220301Y513658D01*
X220251Y513744D01*
X220204Y513832D01*
X220160Y513922D01*
X220120Y514013D01*
X220084Y514106D01*
X220051Y514200D01*
X220022Y514296D01*
X219997Y514392D01*
X219976Y514489D01*
X219958Y514588D01*
X219945Y514686D01*
X219935Y514786D01*
X219929Y514885D01*
X219927Y514985D01*
X219927Y521335D01*
X219929Y521435D01*
X219935Y521534D01*
X219945Y521634D01*
X219958Y521732D01*
X219976Y521831D01*
X219997Y521928D01*
X220022Y522024D01*
X220051Y522120D01*
X220084Y522214D01*
X220120Y522307D01*
X220160Y522398D01*
X220204Y522488D01*
X220251Y522576D01*
X220301Y522662D01*
X220355Y522746D01*
X220412Y522828D01*
X220472Y522907D01*
X220536Y522985D01*
X220602Y523059D01*
X220671Y523131D01*
X220743Y523200D01*
X220817Y523266D01*
X220895Y523330D01*
X220974Y523390D01*
X221056Y523447D01*
X221140Y523501D01*
X221226Y523551D01*
X221314Y523598D01*
X221404Y523642D01*
X221495Y523682D01*
X221588Y523718D01*
X221682Y523751D01*
X221778Y523780D01*
X221874Y523805D01*
X221971Y523826D01*
X222070Y523844D01*
X222168Y523857D01*
X222268Y523867D01*
X222367Y523873D01*
X222467Y523875D01*
X225007Y523875D01*
X229489Y512445D02*
X233299Y512445D01*
X233399Y512447D01*
X233498Y512453D01*
X233598Y512463D01*
X233696Y512476D01*
X233795Y512494D01*
X233892Y512515D01*
X233988Y512540D01*
X234084Y512569D01*
X234178Y512602D01*
X234271Y512638D01*
X234362Y512678D01*
X234452Y512722D01*
X234540Y512769D01*
X234626Y512819D01*
X234710Y512873D01*
X234792Y512930D01*
X234871Y512990D01*
X234949Y513054D01*
X235023Y513120D01*
X235095Y513189D01*
X235164Y513261D01*
X235230Y513335D01*
X235294Y513413D01*
X235354Y513492D01*
X235411Y513574D01*
X235465Y513658D01*
X235515Y513744D01*
X235562Y513832D01*
X235606Y513922D01*
X235646Y514013D01*
X235682Y514106D01*
X235715Y514200D01*
X235744Y514296D01*
X235769Y514392D01*
X235790Y514489D01*
X235808Y514588D01*
X235821Y514686D01*
X235831Y514786D01*
X235837Y514885D01*
X235839Y514985D01*
X235839Y516255D01*
X235837Y516355D01*
X235831Y516454D01*
X235821Y516554D01*
X235808Y516652D01*
X235790Y516751D01*
X235769Y516848D01*
X235744Y516944D01*
X235715Y517040D01*
X235682Y517134D01*
X235646Y517227D01*
X235606Y517318D01*
X235562Y517408D01*
X235515Y517496D01*
X235465Y517582D01*
X235411Y517666D01*
X235354Y517748D01*
X235294Y517827D01*
X235230Y517905D01*
X235164Y517979D01*
X235095Y518051D01*
X235023Y518120D01*
X234949Y518186D01*
X234871Y518250D01*
X234792Y518310D01*
X234710Y518367D01*
X234626Y518421D01*
X234540Y518471D01*
X234452Y518518D01*
X234362Y518562D01*
X234271Y518602D01*
X234178Y518638D01*
X234084Y518671D01*
X233988Y518700D01*
X233892Y518725D01*
X233795Y518746D01*
X233696Y518764D01*
X233598Y518777D01*
X233498Y518787D01*
X233399Y518793D01*
X233299Y518795D01*
X229489Y518795D01*
X229489Y523875D01*
X235839Y523875D01*
D10*
X130810Y241300D02*
X130810Y38100D01*
X72390Y38100D02*
X72390Y241300D01*
X72390Y38100D02*
X130810Y38100D01*
X130810Y241300D02*
X111760Y241300D01*
X91440Y241300D02*
X72390Y241300D01*
X91440Y241300D02*
X91443Y241053D01*
X91452Y240805D01*
X91467Y240558D01*
X91488Y240312D01*
X91515Y240066D01*
X91548Y239821D01*
X91587Y239576D01*
X91632Y239333D01*
X91683Y239091D01*
X91740Y238850D01*
X91802Y238611D01*
X91871Y238373D01*
X91945Y238137D01*
X92025Y237903D01*
X92110Y237671D01*
X92202Y237441D01*
X92298Y237213D01*
X92401Y236988D01*
X92508Y236765D01*
X92622Y236545D01*
X92740Y236328D01*
X92864Y236113D01*
X92993Y235902D01*
X93127Y235694D01*
X93266Y235489D01*
X93410Y235288D01*
X93558Y235090D01*
X93712Y234896D01*
X93870Y234706D01*
X94033Y234520D01*
X94200Y234338D01*
X94372Y234160D01*
X94548Y233986D01*
X94728Y233816D01*
X94913Y233651D01*
X95101Y233491D01*
X95293Y233335D01*
X95489Y233183D01*
X95688Y233037D01*
X95891Y232895D01*
X96098Y232759D01*
X96307Y232627D01*
X96520Y232501D01*
X96736Y232380D01*
X96954Y232264D01*
X97176Y232154D01*
X97400Y232049D01*
X97626Y231949D01*
X97855Y231855D01*
X98086Y231767D01*
X98320Y231684D01*
X98555Y231607D01*
X98792Y231536D01*
X99030Y231470D01*
X99270Y231411D01*
X99512Y231357D01*
X99755Y231309D01*
X99998Y231267D01*
X100243Y231231D01*
X100489Y231201D01*
X100735Y231177D01*
X100982Y231159D01*
X101229Y231147D01*
X101476Y231141D01*
X101724Y231141D01*
X101971Y231147D01*
X102218Y231159D01*
X102465Y231177D01*
X102711Y231201D01*
X102957Y231231D01*
X103202Y231267D01*
X103445Y231309D01*
X103688Y231357D01*
X103930Y231411D01*
X104170Y231470D01*
X104408Y231536D01*
X104645Y231607D01*
X104880Y231684D01*
X105114Y231767D01*
X105345Y231855D01*
X105574Y231949D01*
X105800Y232049D01*
X106024Y232154D01*
X106246Y232264D01*
X106464Y232380D01*
X106680Y232501D01*
X106893Y232627D01*
X107102Y232759D01*
X107309Y232895D01*
X107512Y233037D01*
X107711Y233183D01*
X107907Y233335D01*
X108099Y233491D01*
X108287Y233651D01*
X108472Y233816D01*
X108652Y233986D01*
X108828Y234160D01*
X109000Y234338D01*
X109167Y234520D01*
X109330Y234706D01*
X109488Y234896D01*
X109642Y235090D01*
X109790Y235288D01*
X109934Y235489D01*
X110073Y235694D01*
X110207Y235902D01*
X110336Y236113D01*
X110460Y236328D01*
X110578Y236545D01*
X110692Y236765D01*
X110799Y236988D01*
X110902Y237213D01*
X110998Y237441D01*
X111090Y237671D01*
X111175Y237903D01*
X111255Y238137D01*
X111329Y238373D01*
X111398Y238611D01*
X111460Y238850D01*
X111517Y239091D01*
X111568Y239333D01*
X111613Y239576D01*
X111652Y239821D01*
X111685Y240066D01*
X111712Y240312D01*
X111733Y240558D01*
X111748Y240805D01*
X111757Y241053D01*
X111760Y241300D01*
D11*
X74295Y245745D02*
X74295Y257175D01*
X73025Y245745D02*
X75565Y245745D01*
X75565Y257175D02*
X73025Y257175D01*
X82767Y245745D02*
X85307Y245745D01*
X82767Y245745D02*
X82667Y245747D01*
X82568Y245753D01*
X82468Y245763D01*
X82370Y245776D01*
X82271Y245794D01*
X82174Y245815D01*
X82078Y245840D01*
X81982Y245869D01*
X81888Y245902D01*
X81795Y245938D01*
X81704Y245978D01*
X81614Y246022D01*
X81526Y246069D01*
X81440Y246119D01*
X81356Y246173D01*
X81274Y246230D01*
X81195Y246290D01*
X81117Y246354D01*
X81043Y246420D01*
X80971Y246489D01*
X80902Y246561D01*
X80836Y246635D01*
X80772Y246713D01*
X80712Y246792D01*
X80655Y246874D01*
X80601Y246958D01*
X80551Y247044D01*
X80504Y247132D01*
X80460Y247222D01*
X80420Y247313D01*
X80384Y247406D01*
X80351Y247500D01*
X80322Y247596D01*
X80297Y247692D01*
X80276Y247789D01*
X80258Y247888D01*
X80245Y247986D01*
X80235Y248086D01*
X80229Y248185D01*
X80227Y248285D01*
X80227Y254635D01*
X80229Y254735D01*
X80235Y254834D01*
X80245Y254934D01*
X80258Y255032D01*
X80276Y255131D01*
X80297Y255228D01*
X80322Y255324D01*
X80351Y255420D01*
X80384Y255514D01*
X80420Y255607D01*
X80460Y255698D01*
X80504Y255788D01*
X80551Y255876D01*
X80601Y255962D01*
X80655Y256046D01*
X80712Y256128D01*
X80772Y256207D01*
X80836Y256285D01*
X80902Y256359D01*
X80971Y256431D01*
X81043Y256500D01*
X81117Y256566D01*
X81195Y256630D01*
X81274Y256690D01*
X81356Y256747D01*
X81440Y256801D01*
X81526Y256851D01*
X81614Y256898D01*
X81704Y256942D01*
X81795Y256982D01*
X81888Y257018D01*
X81982Y257051D01*
X82078Y257080D01*
X82174Y257105D01*
X82271Y257126D01*
X82370Y257144D01*
X82468Y257157D01*
X82568Y257167D01*
X82667Y257173D01*
X82767Y257175D01*
X85307Y257175D01*
X89789Y252095D02*
X93599Y252095D01*
X93699Y252093D01*
X93798Y252087D01*
X93898Y252077D01*
X93996Y252064D01*
X94095Y252046D01*
X94192Y252025D01*
X94288Y252000D01*
X94384Y251971D01*
X94478Y251938D01*
X94571Y251902D01*
X94662Y251862D01*
X94752Y251818D01*
X94840Y251771D01*
X94926Y251721D01*
X95010Y251667D01*
X95092Y251610D01*
X95171Y251550D01*
X95249Y251486D01*
X95323Y251420D01*
X95395Y251351D01*
X95464Y251279D01*
X95530Y251205D01*
X95594Y251127D01*
X95654Y251048D01*
X95711Y250966D01*
X95765Y250882D01*
X95815Y250796D01*
X95862Y250708D01*
X95906Y250618D01*
X95946Y250527D01*
X95982Y250434D01*
X96015Y250340D01*
X96044Y250244D01*
X96069Y250148D01*
X96090Y250051D01*
X96108Y249952D01*
X96121Y249854D01*
X96131Y249754D01*
X96137Y249655D01*
X96139Y249555D01*
X96139Y248920D01*
X96137Y248809D01*
X96131Y248699D01*
X96122Y248588D01*
X96108Y248478D01*
X96091Y248369D01*
X96070Y248260D01*
X96045Y248152D01*
X96016Y248045D01*
X95984Y247939D01*
X95948Y247834D01*
X95908Y247731D01*
X95865Y247629D01*
X95818Y247528D01*
X95767Y247429D01*
X95714Y247332D01*
X95657Y247238D01*
X95596Y247145D01*
X95533Y247054D01*
X95466Y246965D01*
X95396Y246879D01*
X95323Y246796D01*
X95248Y246714D01*
X95170Y246636D01*
X95088Y246561D01*
X95005Y246488D01*
X94919Y246418D01*
X94830Y246351D01*
X94739Y246288D01*
X94646Y246227D01*
X94551Y246170D01*
X94455Y246117D01*
X94356Y246066D01*
X94255Y246019D01*
X94153Y245976D01*
X94050Y245936D01*
X93945Y245900D01*
X93839Y245868D01*
X93732Y245839D01*
X93624Y245814D01*
X93515Y245793D01*
X93406Y245776D01*
X93296Y245762D01*
X93185Y245753D01*
X93075Y245747D01*
X92964Y245745D01*
X92853Y245747D01*
X92743Y245753D01*
X92632Y245762D01*
X92522Y245776D01*
X92413Y245793D01*
X92304Y245814D01*
X92196Y245839D01*
X92089Y245868D01*
X91983Y245900D01*
X91878Y245936D01*
X91775Y245976D01*
X91673Y246019D01*
X91572Y246066D01*
X91473Y246117D01*
X91377Y246170D01*
X91282Y246227D01*
X91189Y246288D01*
X91098Y246351D01*
X91009Y246418D01*
X90923Y246488D01*
X90840Y246561D01*
X90758Y246636D01*
X90680Y246714D01*
X90605Y246796D01*
X90532Y246879D01*
X90462Y246965D01*
X90395Y247054D01*
X90332Y247145D01*
X90271Y247238D01*
X90214Y247333D01*
X90161Y247429D01*
X90110Y247528D01*
X90063Y247629D01*
X90020Y247731D01*
X89980Y247834D01*
X89944Y247939D01*
X89912Y248045D01*
X89883Y248152D01*
X89858Y248260D01*
X89837Y248369D01*
X89820Y248478D01*
X89806Y248588D01*
X89797Y248699D01*
X89791Y248809D01*
X89789Y248920D01*
X89789Y252095D01*
X89791Y252235D01*
X89797Y252375D01*
X89806Y252515D01*
X89820Y252654D01*
X89837Y252793D01*
X89858Y252931D01*
X89883Y253069D01*
X89912Y253206D01*
X89944Y253342D01*
X89981Y253477D01*
X90021Y253611D01*
X90064Y253744D01*
X90112Y253876D01*
X90162Y254007D01*
X90217Y254136D01*
X90275Y254263D01*
X90336Y254389D01*
X90401Y254513D01*
X90470Y254635D01*
X90541Y254755D01*
X90616Y254873D01*
X90694Y254990D01*
X90776Y255104D01*
X90860Y255215D01*
X90948Y255324D01*
X91038Y255431D01*
X91132Y255536D01*
X91228Y255637D01*
X91327Y255736D01*
X91428Y255832D01*
X91533Y255926D01*
X91640Y256016D01*
X91749Y256104D01*
X91860Y256188D01*
X91974Y256270D01*
X92091Y256348D01*
X92209Y256423D01*
X92329Y256494D01*
X92451Y256563D01*
X92575Y256628D01*
X92701Y256689D01*
X92828Y256747D01*
X92957Y256802D01*
X93088Y256852D01*
X93220Y256900D01*
X93353Y256943D01*
X93487Y256983D01*
X93622Y257020D01*
X93758Y257052D01*
X93895Y257081D01*
X94033Y257106D01*
X94171Y257127D01*
X94310Y257144D01*
X94449Y257158D01*
X94589Y257167D01*
X94729Y257173D01*
X94869Y257175D01*
D10*
X257810Y254000D02*
X257810Y50800D01*
X199390Y50800D02*
X199390Y254000D01*
X199390Y50800D02*
X257810Y50800D01*
X257810Y254000D02*
X238760Y254000D01*
X218440Y254000D02*
X199390Y254000D01*
X218440Y254000D02*
X218443Y253753D01*
X218452Y253505D01*
X218467Y253258D01*
X218488Y253012D01*
X218515Y252766D01*
X218548Y252521D01*
X218587Y252276D01*
X218632Y252033D01*
X218683Y251791D01*
X218740Y251550D01*
X218802Y251311D01*
X218871Y251073D01*
X218945Y250837D01*
X219025Y250603D01*
X219110Y250371D01*
X219202Y250141D01*
X219298Y249913D01*
X219401Y249688D01*
X219508Y249465D01*
X219622Y249245D01*
X219740Y249028D01*
X219864Y248813D01*
X219993Y248602D01*
X220127Y248394D01*
X220266Y248189D01*
X220410Y247988D01*
X220558Y247790D01*
X220712Y247596D01*
X220870Y247406D01*
X221033Y247220D01*
X221200Y247038D01*
X221372Y246860D01*
X221548Y246686D01*
X221728Y246516D01*
X221913Y246351D01*
X222101Y246191D01*
X222293Y246035D01*
X222489Y245883D01*
X222688Y245737D01*
X222891Y245595D01*
X223098Y245459D01*
X223307Y245327D01*
X223520Y245201D01*
X223736Y245080D01*
X223954Y244964D01*
X224176Y244854D01*
X224400Y244749D01*
X224626Y244649D01*
X224855Y244555D01*
X225086Y244467D01*
X225320Y244384D01*
X225555Y244307D01*
X225792Y244236D01*
X226030Y244170D01*
X226270Y244111D01*
X226512Y244057D01*
X226755Y244009D01*
X226998Y243967D01*
X227243Y243931D01*
X227489Y243901D01*
X227735Y243877D01*
X227982Y243859D01*
X228229Y243847D01*
X228476Y243841D01*
X228724Y243841D01*
X228971Y243847D01*
X229218Y243859D01*
X229465Y243877D01*
X229711Y243901D01*
X229957Y243931D01*
X230202Y243967D01*
X230445Y244009D01*
X230688Y244057D01*
X230930Y244111D01*
X231170Y244170D01*
X231408Y244236D01*
X231645Y244307D01*
X231880Y244384D01*
X232114Y244467D01*
X232345Y244555D01*
X232574Y244649D01*
X232800Y244749D01*
X233024Y244854D01*
X233246Y244964D01*
X233464Y245080D01*
X233680Y245201D01*
X233893Y245327D01*
X234102Y245459D01*
X234309Y245595D01*
X234512Y245737D01*
X234711Y245883D01*
X234907Y246035D01*
X235099Y246191D01*
X235287Y246351D01*
X235472Y246516D01*
X235652Y246686D01*
X235828Y246860D01*
X236000Y247038D01*
X236167Y247220D01*
X236330Y247406D01*
X236488Y247596D01*
X236642Y247790D01*
X236790Y247988D01*
X236934Y248189D01*
X237073Y248394D01*
X237207Y248602D01*
X237336Y248813D01*
X237460Y249028D01*
X237578Y249245D01*
X237692Y249465D01*
X237799Y249688D01*
X237902Y249913D01*
X237998Y250141D01*
X238090Y250371D01*
X238175Y250603D01*
X238255Y250837D01*
X238329Y251073D01*
X238398Y251311D01*
X238460Y251550D01*
X238517Y251791D01*
X238568Y252033D01*
X238613Y252276D01*
X238652Y252521D01*
X238685Y252766D01*
X238712Y253012D01*
X238733Y253258D01*
X238748Y253505D01*
X238757Y253753D01*
X238760Y254000D01*
D11*
X201295Y258445D02*
X201295Y269875D01*
X200025Y258445D02*
X202565Y258445D01*
X202565Y269875D02*
X200025Y269875D01*
X209767Y258445D02*
X212307Y258445D01*
X209767Y258445D02*
X209667Y258447D01*
X209568Y258453D01*
X209468Y258463D01*
X209370Y258476D01*
X209271Y258494D01*
X209174Y258515D01*
X209078Y258540D01*
X208982Y258569D01*
X208888Y258602D01*
X208795Y258638D01*
X208704Y258678D01*
X208614Y258722D01*
X208526Y258769D01*
X208440Y258819D01*
X208356Y258873D01*
X208274Y258930D01*
X208195Y258990D01*
X208117Y259054D01*
X208043Y259120D01*
X207971Y259189D01*
X207902Y259261D01*
X207836Y259335D01*
X207772Y259413D01*
X207712Y259492D01*
X207655Y259574D01*
X207601Y259658D01*
X207551Y259744D01*
X207504Y259832D01*
X207460Y259922D01*
X207420Y260013D01*
X207384Y260106D01*
X207351Y260200D01*
X207322Y260296D01*
X207297Y260392D01*
X207276Y260489D01*
X207258Y260588D01*
X207245Y260686D01*
X207235Y260786D01*
X207229Y260885D01*
X207227Y260985D01*
X207227Y267335D01*
X207229Y267435D01*
X207235Y267534D01*
X207245Y267634D01*
X207258Y267732D01*
X207276Y267831D01*
X207297Y267928D01*
X207322Y268024D01*
X207351Y268120D01*
X207384Y268214D01*
X207420Y268307D01*
X207460Y268398D01*
X207504Y268488D01*
X207551Y268576D01*
X207601Y268662D01*
X207655Y268746D01*
X207712Y268828D01*
X207772Y268907D01*
X207836Y268985D01*
X207902Y269059D01*
X207971Y269131D01*
X208043Y269200D01*
X208117Y269266D01*
X208195Y269330D01*
X208274Y269390D01*
X208356Y269447D01*
X208440Y269501D01*
X208526Y269551D01*
X208614Y269598D01*
X208704Y269642D01*
X208795Y269682D01*
X208888Y269718D01*
X208982Y269751D01*
X209078Y269780D01*
X209174Y269805D01*
X209271Y269826D01*
X209370Y269844D01*
X209468Y269857D01*
X209568Y269867D01*
X209667Y269873D01*
X209767Y269875D01*
X212307Y269875D01*
X216789Y269875D02*
X216789Y268605D01*
X216789Y269875D02*
X223139Y269875D01*
X219964Y258445D01*
D10*
X930910Y609600D02*
X930910Y787400D01*
X872490Y787400D02*
X872490Y609600D01*
X930910Y609600D01*
X930910Y787400D02*
X911860Y787400D01*
X891540Y787400D02*
X872490Y787400D01*
X891540Y787400D02*
X891543Y787153D01*
X891552Y786905D01*
X891567Y786658D01*
X891588Y786412D01*
X891615Y786166D01*
X891648Y785921D01*
X891687Y785676D01*
X891732Y785433D01*
X891783Y785191D01*
X891840Y784950D01*
X891902Y784711D01*
X891971Y784473D01*
X892045Y784237D01*
X892125Y784003D01*
X892210Y783771D01*
X892302Y783541D01*
X892398Y783313D01*
X892501Y783088D01*
X892608Y782865D01*
X892722Y782645D01*
X892840Y782428D01*
X892964Y782213D01*
X893093Y782002D01*
X893227Y781794D01*
X893366Y781589D01*
X893510Y781388D01*
X893658Y781190D01*
X893812Y780996D01*
X893970Y780806D01*
X894133Y780620D01*
X894300Y780438D01*
X894472Y780260D01*
X894648Y780086D01*
X894828Y779916D01*
X895013Y779751D01*
X895201Y779591D01*
X895393Y779435D01*
X895589Y779283D01*
X895788Y779137D01*
X895991Y778995D01*
X896198Y778859D01*
X896407Y778727D01*
X896620Y778601D01*
X896836Y778480D01*
X897054Y778364D01*
X897276Y778254D01*
X897500Y778149D01*
X897726Y778049D01*
X897955Y777955D01*
X898186Y777867D01*
X898420Y777784D01*
X898655Y777707D01*
X898892Y777636D01*
X899130Y777570D01*
X899370Y777511D01*
X899612Y777457D01*
X899855Y777409D01*
X900098Y777367D01*
X900343Y777331D01*
X900589Y777301D01*
X900835Y777277D01*
X901082Y777259D01*
X901329Y777247D01*
X901576Y777241D01*
X901824Y777241D01*
X902071Y777247D01*
X902318Y777259D01*
X902565Y777277D01*
X902811Y777301D01*
X903057Y777331D01*
X903302Y777367D01*
X903545Y777409D01*
X903788Y777457D01*
X904030Y777511D01*
X904270Y777570D01*
X904508Y777636D01*
X904745Y777707D01*
X904980Y777784D01*
X905214Y777867D01*
X905445Y777955D01*
X905674Y778049D01*
X905900Y778149D01*
X906124Y778254D01*
X906346Y778364D01*
X906564Y778480D01*
X906780Y778601D01*
X906993Y778727D01*
X907202Y778859D01*
X907409Y778995D01*
X907612Y779137D01*
X907811Y779283D01*
X908007Y779435D01*
X908199Y779591D01*
X908387Y779751D01*
X908572Y779916D01*
X908752Y780086D01*
X908928Y780260D01*
X909100Y780438D01*
X909267Y780620D01*
X909430Y780806D01*
X909588Y780996D01*
X909742Y781190D01*
X909890Y781388D01*
X910034Y781589D01*
X910173Y781794D01*
X910307Y782002D01*
X910436Y782213D01*
X910560Y782428D01*
X910678Y782645D01*
X910792Y782865D01*
X910899Y783088D01*
X911002Y783313D01*
X911098Y783541D01*
X911190Y783771D01*
X911275Y784003D01*
X911355Y784237D01*
X911429Y784473D01*
X911498Y784711D01*
X911560Y784950D01*
X911617Y785191D01*
X911668Y785433D01*
X911713Y785676D01*
X911752Y785921D01*
X911785Y786166D01*
X911812Y786412D01*
X911833Y786658D01*
X911848Y786905D01*
X911857Y787153D01*
X911860Y787400D01*
D11*
X873125Y791845D02*
X873125Y803275D01*
X871855Y791845D02*
X874395Y791845D01*
X874395Y803275D02*
X871855Y803275D01*
X881597Y791845D02*
X884137Y791845D01*
X881597Y791845D02*
X881497Y791847D01*
X881398Y791853D01*
X881298Y791863D01*
X881200Y791876D01*
X881101Y791894D01*
X881004Y791915D01*
X880908Y791940D01*
X880812Y791969D01*
X880718Y792002D01*
X880625Y792038D01*
X880534Y792078D01*
X880444Y792122D01*
X880356Y792169D01*
X880270Y792219D01*
X880186Y792273D01*
X880104Y792330D01*
X880025Y792390D01*
X879947Y792454D01*
X879873Y792520D01*
X879801Y792589D01*
X879732Y792661D01*
X879666Y792735D01*
X879602Y792813D01*
X879542Y792892D01*
X879485Y792974D01*
X879431Y793058D01*
X879381Y793144D01*
X879334Y793232D01*
X879290Y793322D01*
X879250Y793413D01*
X879214Y793506D01*
X879181Y793600D01*
X879152Y793696D01*
X879127Y793792D01*
X879106Y793889D01*
X879088Y793988D01*
X879075Y794086D01*
X879065Y794186D01*
X879059Y794285D01*
X879057Y794385D01*
X879057Y800735D01*
X879059Y800835D01*
X879065Y800934D01*
X879075Y801034D01*
X879088Y801132D01*
X879106Y801231D01*
X879127Y801328D01*
X879152Y801424D01*
X879181Y801520D01*
X879214Y801614D01*
X879250Y801707D01*
X879290Y801798D01*
X879334Y801888D01*
X879381Y801976D01*
X879431Y802062D01*
X879485Y802146D01*
X879542Y802228D01*
X879602Y802307D01*
X879666Y802385D01*
X879732Y802459D01*
X879801Y802531D01*
X879873Y802600D01*
X879947Y802666D01*
X880025Y802730D01*
X880104Y802790D01*
X880186Y802847D01*
X880270Y802901D01*
X880356Y802951D01*
X880444Y802998D01*
X880534Y803042D01*
X880625Y803082D01*
X880718Y803118D01*
X880812Y803151D01*
X880908Y803180D01*
X881004Y803205D01*
X881101Y803226D01*
X881200Y803244D01*
X881298Y803257D01*
X881398Y803267D01*
X881497Y803273D01*
X881597Y803275D01*
X884137Y803275D01*
X888619Y795020D02*
X888621Y795131D01*
X888627Y795241D01*
X888636Y795352D01*
X888650Y795462D01*
X888667Y795571D01*
X888688Y795680D01*
X888713Y795788D01*
X888742Y795895D01*
X888774Y796001D01*
X888810Y796106D01*
X888850Y796209D01*
X888893Y796311D01*
X888940Y796412D01*
X888991Y796511D01*
X889044Y796608D01*
X889101Y796702D01*
X889162Y796795D01*
X889225Y796886D01*
X889292Y796975D01*
X889362Y797061D01*
X889435Y797144D01*
X889510Y797226D01*
X889588Y797304D01*
X889670Y797379D01*
X889753Y797452D01*
X889839Y797522D01*
X889928Y797589D01*
X890019Y797652D01*
X890112Y797713D01*
X890207Y797770D01*
X890303Y797823D01*
X890402Y797874D01*
X890503Y797921D01*
X890605Y797964D01*
X890708Y798004D01*
X890813Y798040D01*
X890919Y798072D01*
X891026Y798101D01*
X891134Y798126D01*
X891243Y798147D01*
X891352Y798164D01*
X891462Y798178D01*
X891573Y798187D01*
X891683Y798193D01*
X891794Y798195D01*
X891905Y798193D01*
X892015Y798187D01*
X892126Y798178D01*
X892236Y798164D01*
X892345Y798147D01*
X892454Y798126D01*
X892562Y798101D01*
X892669Y798072D01*
X892775Y798040D01*
X892880Y798004D01*
X892983Y797964D01*
X893085Y797921D01*
X893186Y797874D01*
X893285Y797823D01*
X893382Y797770D01*
X893476Y797713D01*
X893569Y797652D01*
X893660Y797589D01*
X893749Y797522D01*
X893835Y797452D01*
X893918Y797379D01*
X894000Y797304D01*
X894078Y797226D01*
X894153Y797144D01*
X894226Y797061D01*
X894296Y796975D01*
X894363Y796886D01*
X894426Y796795D01*
X894487Y796702D01*
X894544Y796608D01*
X894597Y796511D01*
X894648Y796412D01*
X894695Y796311D01*
X894738Y796209D01*
X894778Y796106D01*
X894814Y796001D01*
X894846Y795895D01*
X894875Y795788D01*
X894900Y795680D01*
X894921Y795571D01*
X894938Y795462D01*
X894952Y795352D01*
X894961Y795241D01*
X894967Y795131D01*
X894969Y795020D01*
X894967Y794909D01*
X894961Y794799D01*
X894952Y794688D01*
X894938Y794578D01*
X894921Y794469D01*
X894900Y794360D01*
X894875Y794252D01*
X894846Y794145D01*
X894814Y794039D01*
X894778Y793934D01*
X894738Y793831D01*
X894695Y793729D01*
X894648Y793628D01*
X894597Y793529D01*
X894544Y793433D01*
X894487Y793338D01*
X894426Y793245D01*
X894363Y793154D01*
X894296Y793065D01*
X894226Y792979D01*
X894153Y792896D01*
X894078Y792814D01*
X894000Y792736D01*
X893918Y792661D01*
X893835Y792588D01*
X893749Y792518D01*
X893660Y792451D01*
X893569Y792388D01*
X893476Y792327D01*
X893382Y792270D01*
X893285Y792217D01*
X893186Y792166D01*
X893085Y792119D01*
X892983Y792076D01*
X892880Y792036D01*
X892775Y792000D01*
X892669Y791968D01*
X892562Y791939D01*
X892454Y791914D01*
X892345Y791893D01*
X892236Y791876D01*
X892126Y791862D01*
X892015Y791853D01*
X891905Y791847D01*
X891794Y791845D01*
X891683Y791847D01*
X891573Y791853D01*
X891462Y791862D01*
X891352Y791876D01*
X891243Y791893D01*
X891134Y791914D01*
X891026Y791939D01*
X890919Y791968D01*
X890813Y792000D01*
X890708Y792036D01*
X890605Y792076D01*
X890503Y792119D01*
X890402Y792166D01*
X890303Y792217D01*
X890207Y792270D01*
X890112Y792327D01*
X890019Y792388D01*
X889928Y792451D01*
X889839Y792518D01*
X889753Y792588D01*
X889670Y792661D01*
X889588Y792736D01*
X889510Y792814D01*
X889435Y792896D01*
X889362Y792979D01*
X889292Y793065D01*
X889225Y793154D01*
X889162Y793245D01*
X889101Y793338D01*
X889044Y793433D01*
X888991Y793529D01*
X888940Y793628D01*
X888893Y793729D01*
X888850Y793831D01*
X888810Y793934D01*
X888774Y794039D01*
X888742Y794145D01*
X888713Y794252D01*
X888688Y794360D01*
X888667Y794469D01*
X888650Y794578D01*
X888636Y794688D01*
X888627Y794799D01*
X888621Y794909D01*
X888619Y795020D01*
X889254Y800735D02*
X889256Y800835D01*
X889262Y800934D01*
X889272Y801034D01*
X889285Y801132D01*
X889303Y801231D01*
X889324Y801328D01*
X889349Y801424D01*
X889378Y801520D01*
X889411Y801614D01*
X889447Y801707D01*
X889487Y801798D01*
X889531Y801888D01*
X889578Y801976D01*
X889628Y802062D01*
X889682Y802146D01*
X889739Y802228D01*
X889799Y802307D01*
X889863Y802385D01*
X889929Y802459D01*
X889998Y802531D01*
X890070Y802600D01*
X890144Y802666D01*
X890222Y802730D01*
X890301Y802790D01*
X890383Y802847D01*
X890467Y802901D01*
X890553Y802951D01*
X890641Y802998D01*
X890731Y803042D01*
X890822Y803082D01*
X890915Y803118D01*
X891009Y803151D01*
X891105Y803180D01*
X891201Y803205D01*
X891298Y803226D01*
X891397Y803244D01*
X891495Y803257D01*
X891595Y803267D01*
X891694Y803273D01*
X891794Y803275D01*
X891894Y803273D01*
X891993Y803267D01*
X892093Y803257D01*
X892191Y803244D01*
X892290Y803226D01*
X892387Y803205D01*
X892483Y803180D01*
X892579Y803151D01*
X892673Y803118D01*
X892766Y803082D01*
X892857Y803042D01*
X892947Y802998D01*
X893035Y802951D01*
X893121Y802901D01*
X893205Y802847D01*
X893287Y802790D01*
X893366Y802730D01*
X893444Y802666D01*
X893518Y802600D01*
X893590Y802531D01*
X893659Y802459D01*
X893725Y802385D01*
X893789Y802307D01*
X893849Y802228D01*
X893906Y802146D01*
X893960Y802062D01*
X894010Y801976D01*
X894057Y801888D01*
X894101Y801798D01*
X894141Y801707D01*
X894177Y801614D01*
X894210Y801520D01*
X894239Y801424D01*
X894264Y801328D01*
X894285Y801231D01*
X894303Y801132D01*
X894316Y801034D01*
X894326Y800934D01*
X894332Y800835D01*
X894334Y800735D01*
X894332Y800635D01*
X894326Y800536D01*
X894316Y800436D01*
X894303Y800338D01*
X894285Y800239D01*
X894264Y800142D01*
X894239Y800046D01*
X894210Y799950D01*
X894177Y799856D01*
X894141Y799763D01*
X894101Y799672D01*
X894057Y799582D01*
X894010Y799494D01*
X893960Y799408D01*
X893906Y799324D01*
X893849Y799242D01*
X893789Y799163D01*
X893725Y799085D01*
X893659Y799011D01*
X893590Y798939D01*
X893518Y798870D01*
X893444Y798804D01*
X893366Y798740D01*
X893287Y798680D01*
X893205Y798623D01*
X893121Y798569D01*
X893035Y798519D01*
X892947Y798472D01*
X892857Y798428D01*
X892766Y798388D01*
X892673Y798352D01*
X892579Y798319D01*
X892483Y798290D01*
X892387Y798265D01*
X892290Y798244D01*
X892191Y798226D01*
X892093Y798213D01*
X891993Y798203D01*
X891894Y798197D01*
X891794Y798195D01*
X891694Y798197D01*
X891595Y798203D01*
X891495Y798213D01*
X891397Y798226D01*
X891298Y798244D01*
X891201Y798265D01*
X891105Y798290D01*
X891009Y798319D01*
X890915Y798352D01*
X890822Y798388D01*
X890731Y798428D01*
X890641Y798472D01*
X890553Y798519D01*
X890467Y798569D01*
X890383Y798623D01*
X890301Y798680D01*
X890222Y798740D01*
X890144Y798804D01*
X890070Y798870D01*
X889998Y798939D01*
X889929Y799011D01*
X889863Y799085D01*
X889799Y799163D01*
X889739Y799242D01*
X889682Y799324D01*
X889628Y799408D01*
X889578Y799494D01*
X889531Y799582D01*
X889487Y799672D01*
X889447Y799763D01*
X889411Y799856D01*
X889378Y799950D01*
X889349Y800046D01*
X889324Y800142D01*
X889303Y800239D01*
X889285Y800338D01*
X889272Y800436D01*
X889262Y800536D01*
X889256Y800635D01*
X889254Y800735D01*
D10*
X651510Y342900D02*
X651510Y139700D01*
X593090Y139700D02*
X593090Y342900D01*
X593090Y139700D02*
X651510Y139700D01*
X651510Y342900D02*
X632460Y342900D01*
X612140Y342900D02*
X593090Y342900D01*
X612140Y342900D02*
X612143Y342653D01*
X612152Y342405D01*
X612167Y342158D01*
X612188Y341912D01*
X612215Y341666D01*
X612248Y341421D01*
X612287Y341176D01*
X612332Y340933D01*
X612383Y340691D01*
X612440Y340450D01*
X612502Y340211D01*
X612571Y339973D01*
X612645Y339737D01*
X612725Y339503D01*
X612810Y339271D01*
X612902Y339041D01*
X612998Y338813D01*
X613101Y338588D01*
X613208Y338365D01*
X613322Y338145D01*
X613440Y337928D01*
X613564Y337713D01*
X613693Y337502D01*
X613827Y337294D01*
X613966Y337089D01*
X614110Y336888D01*
X614258Y336690D01*
X614412Y336496D01*
X614570Y336306D01*
X614733Y336120D01*
X614900Y335938D01*
X615072Y335760D01*
X615248Y335586D01*
X615428Y335416D01*
X615613Y335251D01*
X615801Y335091D01*
X615993Y334935D01*
X616189Y334783D01*
X616388Y334637D01*
X616591Y334495D01*
X616798Y334359D01*
X617007Y334227D01*
X617220Y334101D01*
X617436Y333980D01*
X617654Y333864D01*
X617876Y333754D01*
X618100Y333649D01*
X618326Y333549D01*
X618555Y333455D01*
X618786Y333367D01*
X619020Y333284D01*
X619255Y333207D01*
X619492Y333136D01*
X619730Y333070D01*
X619970Y333011D01*
X620212Y332957D01*
X620455Y332909D01*
X620698Y332867D01*
X620943Y332831D01*
X621189Y332801D01*
X621435Y332777D01*
X621682Y332759D01*
X621929Y332747D01*
X622176Y332741D01*
X622424Y332741D01*
X622671Y332747D01*
X622918Y332759D01*
X623165Y332777D01*
X623411Y332801D01*
X623657Y332831D01*
X623902Y332867D01*
X624145Y332909D01*
X624388Y332957D01*
X624630Y333011D01*
X624870Y333070D01*
X625108Y333136D01*
X625345Y333207D01*
X625580Y333284D01*
X625814Y333367D01*
X626045Y333455D01*
X626274Y333549D01*
X626500Y333649D01*
X626724Y333754D01*
X626946Y333864D01*
X627164Y333980D01*
X627380Y334101D01*
X627593Y334227D01*
X627802Y334359D01*
X628009Y334495D01*
X628212Y334637D01*
X628411Y334783D01*
X628607Y334935D01*
X628799Y335091D01*
X628987Y335251D01*
X629172Y335416D01*
X629352Y335586D01*
X629528Y335760D01*
X629700Y335938D01*
X629867Y336120D01*
X630030Y336306D01*
X630188Y336496D01*
X630342Y336690D01*
X630490Y336888D01*
X630634Y337089D01*
X630773Y337294D01*
X630907Y337502D01*
X631036Y337713D01*
X631160Y337928D01*
X631278Y338145D01*
X631392Y338365D01*
X631499Y338588D01*
X631602Y338813D01*
X631698Y339041D01*
X631790Y339271D01*
X631875Y339503D01*
X631955Y339737D01*
X632029Y339973D01*
X632098Y340211D01*
X632160Y340450D01*
X632217Y340691D01*
X632268Y340933D01*
X632313Y341176D01*
X632352Y341421D01*
X632385Y341666D01*
X632412Y341912D01*
X632433Y342158D01*
X632448Y342405D01*
X632457Y342653D01*
X632460Y342900D01*
D11*
X594995Y347345D02*
X594995Y358775D01*
X593725Y347345D02*
X596265Y347345D01*
X596265Y358775D02*
X593725Y358775D01*
X603467Y347345D02*
X606007Y347345D01*
X603467Y347345D02*
X603367Y347347D01*
X603268Y347353D01*
X603168Y347363D01*
X603070Y347376D01*
X602971Y347394D01*
X602874Y347415D01*
X602778Y347440D01*
X602682Y347469D01*
X602588Y347502D01*
X602495Y347538D01*
X602404Y347578D01*
X602314Y347622D01*
X602226Y347669D01*
X602140Y347719D01*
X602056Y347773D01*
X601974Y347830D01*
X601895Y347890D01*
X601817Y347954D01*
X601743Y348020D01*
X601671Y348089D01*
X601602Y348161D01*
X601536Y348235D01*
X601472Y348313D01*
X601412Y348392D01*
X601355Y348474D01*
X601301Y348558D01*
X601251Y348644D01*
X601204Y348732D01*
X601160Y348822D01*
X601120Y348913D01*
X601084Y349006D01*
X601051Y349100D01*
X601022Y349196D01*
X600997Y349292D01*
X600976Y349389D01*
X600958Y349488D01*
X600945Y349586D01*
X600935Y349686D01*
X600929Y349785D01*
X600927Y349885D01*
X600927Y356235D01*
X600929Y356335D01*
X600935Y356434D01*
X600945Y356534D01*
X600958Y356632D01*
X600976Y356731D01*
X600997Y356828D01*
X601022Y356924D01*
X601051Y357020D01*
X601084Y357114D01*
X601120Y357207D01*
X601160Y357298D01*
X601204Y357388D01*
X601251Y357476D01*
X601301Y357562D01*
X601355Y357646D01*
X601412Y357728D01*
X601472Y357807D01*
X601536Y357885D01*
X601602Y357959D01*
X601671Y358031D01*
X601743Y358100D01*
X601817Y358166D01*
X601895Y358230D01*
X601974Y358290D01*
X602056Y358347D01*
X602140Y358401D01*
X602226Y358451D01*
X602314Y358498D01*
X602404Y358542D01*
X602495Y358582D01*
X602588Y358618D01*
X602682Y358651D01*
X602778Y358680D01*
X602874Y358705D01*
X602971Y358726D01*
X603070Y358744D01*
X603168Y358757D01*
X603268Y358767D01*
X603367Y358773D01*
X603467Y358775D01*
X606007Y358775D01*
X613029Y352425D02*
X616839Y352425D01*
X613029Y352425D02*
X612929Y352427D01*
X612830Y352433D01*
X612730Y352443D01*
X612632Y352456D01*
X612533Y352474D01*
X612436Y352495D01*
X612340Y352520D01*
X612244Y352549D01*
X612150Y352582D01*
X612057Y352618D01*
X611966Y352658D01*
X611876Y352702D01*
X611788Y352749D01*
X611702Y352799D01*
X611618Y352853D01*
X611536Y352910D01*
X611457Y352970D01*
X611379Y353034D01*
X611305Y353100D01*
X611233Y353169D01*
X611164Y353241D01*
X611098Y353315D01*
X611034Y353393D01*
X610974Y353472D01*
X610917Y353554D01*
X610863Y353638D01*
X610813Y353724D01*
X610766Y353812D01*
X610722Y353902D01*
X610682Y353993D01*
X610646Y354086D01*
X610613Y354180D01*
X610584Y354276D01*
X610559Y354372D01*
X610538Y354469D01*
X610520Y354568D01*
X610507Y354666D01*
X610497Y354766D01*
X610491Y354865D01*
X610489Y354965D01*
X610489Y355600D01*
X610491Y355711D01*
X610497Y355821D01*
X610506Y355932D01*
X610520Y356042D01*
X610537Y356151D01*
X610558Y356260D01*
X610583Y356368D01*
X610612Y356475D01*
X610644Y356581D01*
X610680Y356686D01*
X610720Y356789D01*
X610763Y356891D01*
X610810Y356992D01*
X610861Y357091D01*
X610914Y357188D01*
X610971Y357282D01*
X611032Y357375D01*
X611095Y357466D01*
X611162Y357555D01*
X611232Y357641D01*
X611305Y357724D01*
X611380Y357806D01*
X611458Y357884D01*
X611540Y357959D01*
X611623Y358032D01*
X611709Y358102D01*
X611798Y358169D01*
X611889Y358232D01*
X611982Y358293D01*
X612077Y358350D01*
X612173Y358403D01*
X612272Y358454D01*
X612373Y358501D01*
X612475Y358544D01*
X612578Y358584D01*
X612683Y358620D01*
X612789Y358652D01*
X612896Y358681D01*
X613004Y358706D01*
X613113Y358727D01*
X613222Y358744D01*
X613332Y358758D01*
X613443Y358767D01*
X613553Y358773D01*
X613664Y358775D01*
X613775Y358773D01*
X613885Y358767D01*
X613996Y358758D01*
X614106Y358744D01*
X614215Y358727D01*
X614324Y358706D01*
X614432Y358681D01*
X614539Y358652D01*
X614645Y358620D01*
X614750Y358584D01*
X614853Y358544D01*
X614955Y358501D01*
X615056Y358454D01*
X615155Y358403D01*
X615252Y358350D01*
X615346Y358293D01*
X615439Y358232D01*
X615530Y358169D01*
X615619Y358102D01*
X615705Y358032D01*
X615788Y357959D01*
X615870Y357884D01*
X615948Y357806D01*
X616023Y357724D01*
X616096Y357641D01*
X616166Y357555D01*
X616233Y357466D01*
X616296Y357375D01*
X616357Y357282D01*
X616414Y357188D01*
X616467Y357091D01*
X616518Y356992D01*
X616565Y356891D01*
X616608Y356789D01*
X616648Y356686D01*
X616684Y356581D01*
X616716Y356475D01*
X616745Y356368D01*
X616770Y356260D01*
X616791Y356151D01*
X616808Y356042D01*
X616822Y355932D01*
X616831Y355821D01*
X616837Y355711D01*
X616839Y355600D01*
X616839Y352425D01*
X616837Y352285D01*
X616831Y352145D01*
X616822Y352005D01*
X616808Y351866D01*
X616791Y351727D01*
X616770Y351589D01*
X616745Y351451D01*
X616716Y351314D01*
X616684Y351178D01*
X616647Y351043D01*
X616607Y350909D01*
X616564Y350776D01*
X616516Y350644D01*
X616466Y350513D01*
X616411Y350384D01*
X616353Y350257D01*
X616292Y350131D01*
X616227Y350007D01*
X616158Y349885D01*
X616087Y349765D01*
X616012Y349647D01*
X615934Y349530D01*
X615852Y349416D01*
X615768Y349305D01*
X615680Y349196D01*
X615590Y349089D01*
X615496Y348984D01*
X615400Y348883D01*
X615301Y348784D01*
X615200Y348688D01*
X615095Y348594D01*
X614988Y348504D01*
X614879Y348416D01*
X614768Y348332D01*
X614654Y348250D01*
X614537Y348172D01*
X614419Y348097D01*
X614299Y348026D01*
X614177Y347957D01*
X614053Y347892D01*
X613927Y347831D01*
X613800Y347773D01*
X613671Y347718D01*
X613540Y347668D01*
X613408Y347620D01*
X613275Y347577D01*
X613141Y347537D01*
X613006Y347500D01*
X612870Y347468D01*
X612733Y347439D01*
X612595Y347414D01*
X612457Y347393D01*
X612318Y347376D01*
X612179Y347362D01*
X612039Y347353D01*
X611899Y347347D01*
X611759Y347345D01*
D10*
X463550Y88900D02*
X450850Y88900D01*
X463550Y88900D02*
X469900Y82550D01*
X469900Y69850D01*
X463550Y63500D01*
X444500Y69850D02*
X444500Y82550D01*
X450850Y88900D01*
X444500Y69850D02*
X450850Y63500D01*
X463550Y63500D01*
X469900Y82550D02*
X476250Y88900D01*
X488950Y88900D01*
X495300Y82550D01*
X495300Y69850D01*
X488950Y63500D01*
X476250Y63500D01*
X469900Y69850D01*
D11*
X448183Y97663D02*
X448183Y106553D01*
X448183Y97663D02*
X448181Y97563D01*
X448175Y97464D01*
X448165Y97364D01*
X448152Y97266D01*
X448134Y97167D01*
X448113Y97070D01*
X448088Y96974D01*
X448059Y96878D01*
X448026Y96784D01*
X447990Y96691D01*
X447950Y96600D01*
X447906Y96510D01*
X447859Y96422D01*
X447809Y96336D01*
X447755Y96252D01*
X447698Y96170D01*
X447638Y96091D01*
X447574Y96013D01*
X447508Y95939D01*
X447439Y95867D01*
X447367Y95798D01*
X447293Y95732D01*
X447215Y95668D01*
X447136Y95608D01*
X447054Y95551D01*
X446970Y95497D01*
X446884Y95447D01*
X446796Y95400D01*
X446706Y95356D01*
X446615Y95316D01*
X446522Y95280D01*
X446428Y95247D01*
X446332Y95218D01*
X446236Y95193D01*
X446139Y95172D01*
X446040Y95154D01*
X445942Y95141D01*
X445842Y95131D01*
X445743Y95125D01*
X445643Y95123D01*
X444373Y95123D01*
X454163Y95123D02*
X454163Y106553D01*
X457338Y106553D01*
X457449Y106551D01*
X457559Y106545D01*
X457670Y106536D01*
X457780Y106522D01*
X457889Y106505D01*
X457998Y106484D01*
X458106Y106459D01*
X458213Y106430D01*
X458319Y106398D01*
X458424Y106362D01*
X458527Y106322D01*
X458629Y106279D01*
X458730Y106232D01*
X458829Y106181D01*
X458926Y106128D01*
X459020Y106071D01*
X459113Y106010D01*
X459204Y105947D01*
X459293Y105880D01*
X459379Y105810D01*
X459462Y105737D01*
X459544Y105662D01*
X459622Y105584D01*
X459697Y105502D01*
X459770Y105419D01*
X459840Y105333D01*
X459907Y105244D01*
X459970Y105153D01*
X460031Y105060D01*
X460088Y104965D01*
X460141Y104869D01*
X460192Y104770D01*
X460239Y104669D01*
X460282Y104567D01*
X460322Y104464D01*
X460358Y104359D01*
X460390Y104253D01*
X460419Y104146D01*
X460444Y104038D01*
X460465Y103929D01*
X460482Y103820D01*
X460496Y103710D01*
X460505Y103599D01*
X460511Y103489D01*
X460513Y103378D01*
X460511Y103267D01*
X460505Y103157D01*
X460496Y103046D01*
X460482Y102936D01*
X460465Y102827D01*
X460444Y102718D01*
X460419Y102610D01*
X460390Y102503D01*
X460358Y102397D01*
X460322Y102292D01*
X460282Y102189D01*
X460239Y102087D01*
X460192Y101986D01*
X460141Y101887D01*
X460088Y101790D01*
X460031Y101696D01*
X459970Y101603D01*
X459907Y101512D01*
X459840Y101423D01*
X459770Y101337D01*
X459697Y101254D01*
X459622Y101172D01*
X459544Y101094D01*
X459462Y101019D01*
X459379Y100946D01*
X459293Y100876D01*
X459204Y100809D01*
X459113Y100746D01*
X459020Y100685D01*
X458926Y100628D01*
X458829Y100575D01*
X458730Y100524D01*
X458629Y100477D01*
X458527Y100434D01*
X458424Y100394D01*
X458319Y100358D01*
X458213Y100326D01*
X458106Y100297D01*
X457998Y100272D01*
X457889Y100251D01*
X457780Y100234D01*
X457670Y100220D01*
X457559Y100211D01*
X457449Y100205D01*
X457338Y100203D01*
X454163Y100203D01*
X465022Y104013D02*
X468197Y106553D01*
X468197Y95123D01*
X465022Y95123D02*
X471372Y95123D01*
D10*
X360994Y50275D02*
X348332Y49301D01*
X360994Y50275D02*
X367813Y44431D01*
X368787Y31769D01*
X362943Y24950D01*
X343462Y29820D02*
X342488Y42483D01*
X348332Y49301D01*
X343462Y29820D02*
X350280Y23976D01*
X362943Y24950D01*
X367813Y44431D02*
X373657Y51250D01*
X386320Y52224D01*
X393138Y46380D01*
X394112Y33717D01*
X388268Y26899D01*
X375606Y25925D01*
X368787Y31769D01*
D11*
X345000Y57834D02*
X344318Y66697D01*
X345001Y57834D02*
X345006Y57734D01*
X345008Y57635D01*
X345006Y57535D01*
X345000Y57435D01*
X344990Y57336D01*
X344976Y57237D01*
X344958Y57139D01*
X344937Y57042D01*
X344911Y56945D01*
X344882Y56850D01*
X344849Y56756D01*
X344813Y56663D01*
X344773Y56572D01*
X344729Y56482D01*
X344682Y56394D01*
X344631Y56308D01*
X344577Y56224D01*
X344520Y56142D01*
X344460Y56063D01*
X344397Y55986D01*
X344330Y55912D01*
X344261Y55840D01*
X344189Y55771D01*
X344114Y55705D01*
X344037Y55642D01*
X343957Y55582D01*
X343876Y55525D01*
X343791Y55471D01*
X343705Y55421D01*
X343617Y55374D01*
X343527Y55330D01*
X343436Y55291D01*
X343343Y55254D01*
X343249Y55222D01*
X343153Y55193D01*
X343057Y55168D01*
X342959Y55147D01*
X342861Y55130D01*
X342762Y55116D01*
X342663Y55106D01*
X341396Y55009D01*
X351158Y55760D02*
X350281Y67156D01*
X353447Y67400D01*
X353446Y67400D02*
X353558Y67406D01*
X353670Y67409D01*
X353782Y67408D01*
X353894Y67402D01*
X354006Y67393D01*
X354117Y67380D01*
X354228Y67363D01*
X354338Y67342D01*
X354447Y67317D01*
X354556Y67289D01*
X354663Y67256D01*
X354769Y67220D01*
X354874Y67180D01*
X354977Y67136D01*
X355079Y67089D01*
X355179Y67038D01*
X355277Y66984D01*
X355373Y66926D01*
X355467Y66865D01*
X355558Y66801D01*
X355648Y66733D01*
X355735Y66663D01*
X355819Y66589D01*
X355901Y66513D01*
X355980Y66433D01*
X356056Y66351D01*
X356130Y66266D01*
X356200Y66179D01*
X356267Y66089D01*
X356331Y65997D01*
X356391Y65903D01*
X356448Y65806D01*
X356502Y65708D01*
X356552Y65608D01*
X356599Y65506D01*
X356642Y65402D01*
X356682Y65297D01*
X356717Y65191D01*
X356749Y65084D01*
X356777Y64975D01*
X356801Y64866D01*
X356822Y64756D01*
X356838Y64645D01*
X356851Y64533D01*
X356859Y64422D01*
X356864Y64310D01*
X356865Y64198D01*
X356862Y64086D01*
X356854Y63974D01*
X356843Y63862D01*
X356828Y63751D01*
X356809Y63641D01*
X356786Y63531D01*
X356759Y63422D01*
X356729Y63314D01*
X356695Y63208D01*
X356656Y63102D01*
X356615Y62998D01*
X356569Y62896D01*
X356520Y62795D01*
X356468Y62696D01*
X356412Y62599D01*
X356352Y62504D01*
X356290Y62411D01*
X356224Y62321D01*
X356155Y62232D01*
X356082Y62147D01*
X356007Y62063D01*
X355929Y61983D01*
X355848Y61905D01*
X355765Y61831D01*
X355679Y61759D01*
X355590Y61690D01*
X355499Y61625D01*
X355406Y61563D01*
X355311Y61504D01*
X355213Y61448D01*
X355114Y61396D01*
X355013Y61348D01*
X354910Y61303D01*
X354806Y61262D01*
X354700Y61224D01*
X354594Y61190D01*
X354486Y61160D01*
X354377Y61134D01*
X354267Y61112D01*
X354156Y61093D01*
X354045Y61079D01*
X353934Y61068D01*
X350768Y60825D01*
X364590Y68257D02*
X364694Y68263D01*
X364798Y68265D01*
X364903Y68263D01*
X365007Y68258D01*
X365111Y68249D01*
X365214Y68236D01*
X365317Y68219D01*
X365420Y68199D01*
X365521Y68175D01*
X365622Y68147D01*
X365721Y68115D01*
X365820Y68080D01*
X365917Y68042D01*
X366012Y67999D01*
X366106Y67954D01*
X366198Y67905D01*
X366288Y67852D01*
X366376Y67797D01*
X366463Y67738D01*
X366547Y67676D01*
X366628Y67611D01*
X366708Y67543D01*
X366784Y67472D01*
X366858Y67399D01*
X366930Y67322D01*
X366998Y67244D01*
X367064Y67163D01*
X367126Y67079D01*
X367186Y66993D01*
X367242Y66905D01*
X367295Y66816D01*
X367345Y66724D01*
X367391Y66630D01*
X367434Y66535D01*
X367474Y66439D01*
X367510Y66341D01*
X367542Y66241D01*
X367570Y66141D01*
X367595Y66040D01*
X367617Y65937D01*
X367634Y65835D01*
X367648Y65731D01*
X367658Y65627D01*
X364589Y68257D02*
X364471Y68246D01*
X364354Y68231D01*
X364237Y68213D01*
X364121Y68191D01*
X364005Y68164D01*
X363891Y68135D01*
X363777Y68101D01*
X363665Y68064D01*
X363554Y68024D01*
X363444Y67979D01*
X363336Y67932D01*
X363229Y67880D01*
X363124Y67826D01*
X363021Y67768D01*
X362920Y67706D01*
X362820Y67642D01*
X362723Y67574D01*
X362628Y67503D01*
X362536Y67429D01*
X362446Y67353D01*
X362358Y67273D01*
X362273Y67191D01*
X362191Y67106D01*
X362111Y67018D01*
X362035Y66928D01*
X361961Y66835D01*
X361890Y66740D01*
X361823Y66643D01*
X361759Y66543D01*
X361697Y66442D01*
X361640Y66339D01*
X361585Y66234D01*
X361534Y66127D01*
X361486Y66019D01*
X361442Y65909D01*
X361402Y65798D01*
X361365Y65685D01*
X361332Y65571D01*
X361302Y65457D01*
X366879Y63339D02*
X366950Y63420D01*
X367018Y63504D01*
X367083Y63590D01*
X367144Y63679D01*
X367203Y63770D01*
X367259Y63862D01*
X367311Y63957D01*
X367360Y64053D01*
X367405Y64151D01*
X367447Y64251D01*
X367485Y64352D01*
X367520Y64454D01*
X367551Y64558D01*
X367579Y64662D01*
X367603Y64768D01*
X367623Y64874D01*
X367639Y64981D01*
X367652Y65088D01*
X367661Y65196D01*
X367666Y65304D01*
X367667Y65412D01*
X367664Y65520D01*
X367658Y65627D01*
X366879Y63338D02*
X361984Y56593D01*
X368316Y57080D01*
D10*
X38100Y742950D02*
X38100Y755650D01*
X44450Y762000D01*
X57150Y762000D01*
X63500Y755650D01*
X57150Y736600D02*
X44450Y736600D01*
X38100Y742950D01*
X57150Y736600D02*
X63500Y742950D01*
X63500Y755650D01*
X44450Y762000D02*
X38100Y768350D01*
X38100Y781050D01*
X44450Y787400D01*
X57150Y787400D01*
X63500Y781050D01*
X63500Y768350D01*
X57150Y762000D01*
D11*
X29337Y740283D02*
X20447Y740283D01*
X29337Y740283D02*
X29437Y740281D01*
X29536Y740275D01*
X29636Y740265D01*
X29734Y740252D01*
X29833Y740234D01*
X29930Y740213D01*
X30026Y740188D01*
X30122Y740159D01*
X30216Y740126D01*
X30309Y740090D01*
X30400Y740050D01*
X30490Y740006D01*
X30578Y739959D01*
X30664Y739909D01*
X30748Y739855D01*
X30830Y739798D01*
X30909Y739738D01*
X30987Y739674D01*
X31061Y739608D01*
X31133Y739539D01*
X31202Y739467D01*
X31268Y739393D01*
X31332Y739315D01*
X31392Y739236D01*
X31449Y739154D01*
X31503Y739070D01*
X31553Y738984D01*
X31600Y738896D01*
X31644Y738806D01*
X31684Y738715D01*
X31720Y738622D01*
X31753Y738528D01*
X31782Y738432D01*
X31807Y738336D01*
X31828Y738239D01*
X31846Y738140D01*
X31859Y738042D01*
X31869Y737942D01*
X31875Y737843D01*
X31877Y737743D01*
X31877Y736473D01*
X31877Y746263D02*
X20447Y746263D01*
X20447Y749438D01*
X20449Y749549D01*
X20455Y749659D01*
X20464Y749770D01*
X20478Y749880D01*
X20495Y749989D01*
X20516Y750098D01*
X20541Y750206D01*
X20570Y750313D01*
X20602Y750419D01*
X20638Y750524D01*
X20678Y750627D01*
X20721Y750729D01*
X20768Y750830D01*
X20819Y750929D01*
X20872Y751026D01*
X20929Y751120D01*
X20990Y751213D01*
X21053Y751304D01*
X21120Y751393D01*
X21190Y751479D01*
X21263Y751562D01*
X21338Y751644D01*
X21416Y751722D01*
X21498Y751797D01*
X21581Y751870D01*
X21667Y751940D01*
X21756Y752007D01*
X21847Y752070D01*
X21940Y752131D01*
X22034Y752188D01*
X22131Y752241D01*
X22230Y752292D01*
X22331Y752339D01*
X22433Y752382D01*
X22536Y752422D01*
X22641Y752458D01*
X22747Y752490D01*
X22854Y752519D01*
X22962Y752544D01*
X23071Y752565D01*
X23180Y752582D01*
X23290Y752596D01*
X23401Y752605D01*
X23511Y752611D01*
X23622Y752613D01*
X23733Y752611D01*
X23843Y752605D01*
X23954Y752596D01*
X24064Y752582D01*
X24173Y752565D01*
X24282Y752544D01*
X24390Y752519D01*
X24497Y752490D01*
X24603Y752458D01*
X24708Y752422D01*
X24811Y752382D01*
X24913Y752339D01*
X25014Y752292D01*
X25113Y752241D01*
X25210Y752188D01*
X25304Y752131D01*
X25397Y752070D01*
X25488Y752007D01*
X25577Y751940D01*
X25663Y751870D01*
X25746Y751797D01*
X25828Y751722D01*
X25906Y751644D01*
X25981Y751562D01*
X26054Y751479D01*
X26124Y751393D01*
X26191Y751304D01*
X26254Y751213D01*
X26315Y751120D01*
X26372Y751026D01*
X26425Y750929D01*
X26476Y750830D01*
X26523Y750729D01*
X26566Y750627D01*
X26606Y750524D01*
X26642Y750419D01*
X26674Y750313D01*
X26703Y750206D01*
X26728Y750098D01*
X26749Y749989D01*
X26766Y749880D01*
X26780Y749770D01*
X26789Y749659D01*
X26795Y749549D01*
X26797Y749438D01*
X26797Y746263D01*
X29337Y757122D02*
X20447Y759662D01*
X29337Y757122D02*
X29337Y763472D01*
X26797Y761567D02*
X31877Y761567D01*
D10*
X101600Y755650D02*
X101600Y742950D01*
X101600Y755650D02*
X107950Y762000D01*
X120650Y762000D01*
X127000Y755650D01*
X120650Y736600D02*
X107950Y736600D01*
X101600Y742950D01*
X120650Y736600D02*
X127000Y742950D01*
X127000Y755650D01*
X107950Y762000D02*
X101600Y768350D01*
X101600Y781050D01*
X107950Y787400D01*
X120650Y787400D01*
X127000Y781050D01*
X127000Y768350D01*
X120650Y762000D01*
D11*
X92837Y740283D02*
X83947Y740283D01*
X92837Y740283D02*
X92937Y740281D01*
X93036Y740275D01*
X93136Y740265D01*
X93234Y740252D01*
X93333Y740234D01*
X93430Y740213D01*
X93526Y740188D01*
X93622Y740159D01*
X93716Y740126D01*
X93809Y740090D01*
X93900Y740050D01*
X93990Y740006D01*
X94078Y739959D01*
X94164Y739909D01*
X94248Y739855D01*
X94330Y739798D01*
X94409Y739738D01*
X94487Y739674D01*
X94561Y739608D01*
X94633Y739539D01*
X94702Y739467D01*
X94768Y739393D01*
X94832Y739315D01*
X94892Y739236D01*
X94949Y739154D01*
X95003Y739070D01*
X95053Y738984D01*
X95100Y738896D01*
X95144Y738806D01*
X95184Y738715D01*
X95220Y738622D01*
X95253Y738528D01*
X95282Y738432D01*
X95307Y738336D01*
X95328Y738239D01*
X95346Y738140D01*
X95359Y738042D01*
X95369Y737942D01*
X95375Y737843D01*
X95377Y737743D01*
X95377Y736473D01*
X95377Y746263D02*
X83947Y746263D01*
X83947Y749438D01*
X83949Y749549D01*
X83955Y749659D01*
X83964Y749770D01*
X83978Y749880D01*
X83995Y749989D01*
X84016Y750098D01*
X84041Y750206D01*
X84070Y750313D01*
X84102Y750419D01*
X84138Y750524D01*
X84178Y750627D01*
X84221Y750729D01*
X84268Y750830D01*
X84319Y750929D01*
X84372Y751026D01*
X84429Y751120D01*
X84490Y751213D01*
X84553Y751304D01*
X84620Y751393D01*
X84690Y751479D01*
X84763Y751562D01*
X84838Y751644D01*
X84916Y751722D01*
X84998Y751797D01*
X85081Y751870D01*
X85167Y751940D01*
X85256Y752007D01*
X85347Y752070D01*
X85440Y752131D01*
X85535Y752188D01*
X85631Y752241D01*
X85730Y752292D01*
X85831Y752339D01*
X85933Y752382D01*
X86036Y752422D01*
X86141Y752458D01*
X86247Y752490D01*
X86354Y752519D01*
X86462Y752544D01*
X86571Y752565D01*
X86680Y752582D01*
X86790Y752596D01*
X86901Y752605D01*
X87011Y752611D01*
X87122Y752613D01*
X87233Y752611D01*
X87343Y752605D01*
X87454Y752596D01*
X87564Y752582D01*
X87673Y752565D01*
X87782Y752544D01*
X87890Y752519D01*
X87997Y752490D01*
X88103Y752458D01*
X88208Y752422D01*
X88311Y752382D01*
X88413Y752339D01*
X88514Y752292D01*
X88613Y752241D01*
X88710Y752188D01*
X88804Y752131D01*
X88897Y752070D01*
X88988Y752007D01*
X89077Y751940D01*
X89163Y751870D01*
X89246Y751797D01*
X89328Y751722D01*
X89406Y751644D01*
X89481Y751562D01*
X89554Y751479D01*
X89624Y751393D01*
X89691Y751304D01*
X89754Y751213D01*
X89815Y751120D01*
X89872Y751026D01*
X89925Y750929D01*
X89976Y750830D01*
X90023Y750729D01*
X90066Y750627D01*
X90106Y750524D01*
X90142Y750419D01*
X90174Y750313D01*
X90203Y750206D01*
X90228Y750098D01*
X90249Y749989D01*
X90266Y749880D01*
X90280Y749770D01*
X90289Y749659D01*
X90295Y749549D01*
X90297Y749438D01*
X90297Y746263D01*
X95377Y757122D02*
X95377Y760932D01*
X95375Y761032D01*
X95369Y761131D01*
X95359Y761231D01*
X95346Y761329D01*
X95328Y761428D01*
X95307Y761525D01*
X95282Y761621D01*
X95253Y761717D01*
X95220Y761811D01*
X95184Y761904D01*
X95144Y761995D01*
X95100Y762085D01*
X95053Y762173D01*
X95003Y762259D01*
X94949Y762343D01*
X94892Y762425D01*
X94832Y762504D01*
X94768Y762582D01*
X94702Y762656D01*
X94633Y762728D01*
X94561Y762797D01*
X94487Y762863D01*
X94409Y762927D01*
X94330Y762987D01*
X94248Y763044D01*
X94164Y763098D01*
X94078Y763148D01*
X93990Y763195D01*
X93900Y763239D01*
X93809Y763279D01*
X93716Y763315D01*
X93622Y763348D01*
X93526Y763377D01*
X93430Y763402D01*
X93333Y763423D01*
X93234Y763441D01*
X93136Y763454D01*
X93036Y763464D01*
X92937Y763470D01*
X92837Y763472D01*
X91567Y763472D01*
X91467Y763470D01*
X91368Y763464D01*
X91268Y763454D01*
X91170Y763441D01*
X91071Y763423D01*
X90974Y763402D01*
X90878Y763377D01*
X90782Y763348D01*
X90688Y763315D01*
X90595Y763279D01*
X90504Y763239D01*
X90414Y763195D01*
X90326Y763148D01*
X90240Y763098D01*
X90156Y763044D01*
X90074Y762987D01*
X89995Y762927D01*
X89917Y762863D01*
X89843Y762797D01*
X89771Y762728D01*
X89702Y762656D01*
X89636Y762582D01*
X89572Y762504D01*
X89512Y762425D01*
X89455Y762343D01*
X89401Y762259D01*
X89351Y762173D01*
X89304Y762085D01*
X89260Y761995D01*
X89220Y761904D01*
X89184Y761811D01*
X89151Y761717D01*
X89122Y761621D01*
X89097Y761525D01*
X89076Y761428D01*
X89058Y761329D01*
X89045Y761231D01*
X89035Y761131D01*
X89029Y761032D01*
X89027Y760932D01*
X89027Y757122D01*
X83947Y757122D01*
X83947Y763472D01*
D10*
X152400Y755650D02*
X152400Y742950D01*
X152400Y755650D02*
X158750Y762000D01*
X171450Y762000D01*
X177800Y755650D01*
X171450Y736600D02*
X158750Y736600D01*
X152400Y742950D01*
X171450Y736600D02*
X177800Y742950D01*
X177800Y755650D01*
X158750Y762000D02*
X152400Y768350D01*
X152400Y781050D01*
X158750Y787400D01*
X171450Y787400D01*
X177800Y781050D01*
X177800Y768350D01*
X171450Y762000D01*
D11*
X143637Y740283D02*
X134747Y740283D01*
X143637Y740283D02*
X143737Y740281D01*
X143836Y740275D01*
X143936Y740265D01*
X144034Y740252D01*
X144133Y740234D01*
X144230Y740213D01*
X144326Y740188D01*
X144422Y740159D01*
X144516Y740126D01*
X144609Y740090D01*
X144700Y740050D01*
X144790Y740006D01*
X144878Y739959D01*
X144964Y739909D01*
X145048Y739855D01*
X145130Y739798D01*
X145209Y739738D01*
X145287Y739674D01*
X145361Y739608D01*
X145433Y739539D01*
X145502Y739467D01*
X145568Y739393D01*
X145632Y739315D01*
X145692Y739236D01*
X145749Y739154D01*
X145803Y739070D01*
X145853Y738984D01*
X145900Y738896D01*
X145944Y738806D01*
X145984Y738715D01*
X146020Y738622D01*
X146053Y738528D01*
X146082Y738432D01*
X146107Y738336D01*
X146128Y738239D01*
X146146Y738140D01*
X146159Y738042D01*
X146169Y737942D01*
X146175Y737843D01*
X146177Y737743D01*
X146177Y736473D01*
X146177Y746263D02*
X134747Y746263D01*
X134747Y749438D01*
X134749Y749549D01*
X134755Y749659D01*
X134764Y749770D01*
X134778Y749880D01*
X134795Y749989D01*
X134816Y750098D01*
X134841Y750206D01*
X134870Y750313D01*
X134902Y750419D01*
X134938Y750524D01*
X134978Y750627D01*
X135021Y750729D01*
X135068Y750830D01*
X135119Y750929D01*
X135172Y751026D01*
X135229Y751120D01*
X135290Y751213D01*
X135353Y751304D01*
X135420Y751393D01*
X135490Y751479D01*
X135563Y751562D01*
X135638Y751644D01*
X135716Y751722D01*
X135798Y751797D01*
X135881Y751870D01*
X135967Y751940D01*
X136056Y752007D01*
X136147Y752070D01*
X136240Y752131D01*
X136335Y752188D01*
X136431Y752241D01*
X136530Y752292D01*
X136631Y752339D01*
X136733Y752382D01*
X136836Y752422D01*
X136941Y752458D01*
X137047Y752490D01*
X137154Y752519D01*
X137262Y752544D01*
X137371Y752565D01*
X137480Y752582D01*
X137590Y752596D01*
X137701Y752605D01*
X137811Y752611D01*
X137922Y752613D01*
X138033Y752611D01*
X138143Y752605D01*
X138254Y752596D01*
X138364Y752582D01*
X138473Y752565D01*
X138582Y752544D01*
X138690Y752519D01*
X138797Y752490D01*
X138903Y752458D01*
X139008Y752422D01*
X139111Y752382D01*
X139213Y752339D01*
X139314Y752292D01*
X139413Y752241D01*
X139510Y752188D01*
X139604Y752131D01*
X139697Y752070D01*
X139788Y752007D01*
X139877Y751940D01*
X139963Y751870D01*
X140046Y751797D01*
X140128Y751722D01*
X140206Y751644D01*
X140281Y751562D01*
X140354Y751479D01*
X140424Y751393D01*
X140491Y751304D01*
X140554Y751213D01*
X140615Y751120D01*
X140672Y751026D01*
X140725Y750929D01*
X140776Y750830D01*
X140823Y750729D01*
X140866Y750627D01*
X140906Y750524D01*
X140942Y750419D01*
X140974Y750313D01*
X141003Y750206D01*
X141028Y750098D01*
X141049Y749989D01*
X141066Y749880D01*
X141080Y749770D01*
X141089Y749659D01*
X141095Y749549D01*
X141097Y749438D01*
X141097Y746263D01*
X139827Y757122D02*
X139827Y760932D01*
X139829Y761032D01*
X139835Y761131D01*
X139845Y761231D01*
X139858Y761329D01*
X139876Y761428D01*
X139897Y761525D01*
X139922Y761621D01*
X139951Y761717D01*
X139984Y761811D01*
X140020Y761904D01*
X140060Y761995D01*
X140104Y762085D01*
X140151Y762173D01*
X140201Y762259D01*
X140255Y762343D01*
X140312Y762425D01*
X140372Y762504D01*
X140436Y762582D01*
X140502Y762656D01*
X140571Y762728D01*
X140643Y762797D01*
X140717Y762863D01*
X140795Y762927D01*
X140874Y762987D01*
X140956Y763044D01*
X141040Y763098D01*
X141126Y763148D01*
X141214Y763195D01*
X141304Y763239D01*
X141395Y763279D01*
X141488Y763315D01*
X141582Y763348D01*
X141678Y763377D01*
X141774Y763402D01*
X141871Y763423D01*
X141970Y763441D01*
X142068Y763454D01*
X142168Y763464D01*
X142267Y763470D01*
X142367Y763472D01*
X143002Y763472D01*
X143113Y763470D01*
X143223Y763464D01*
X143334Y763455D01*
X143444Y763441D01*
X143553Y763424D01*
X143662Y763403D01*
X143770Y763378D01*
X143877Y763349D01*
X143983Y763317D01*
X144088Y763281D01*
X144191Y763241D01*
X144293Y763198D01*
X144394Y763151D01*
X144493Y763100D01*
X144590Y763047D01*
X144684Y762990D01*
X144777Y762929D01*
X144868Y762866D01*
X144957Y762799D01*
X145043Y762729D01*
X145126Y762656D01*
X145208Y762581D01*
X145286Y762503D01*
X145361Y762421D01*
X145434Y762338D01*
X145504Y762252D01*
X145571Y762163D01*
X145634Y762072D01*
X145695Y761979D01*
X145752Y761884D01*
X145805Y761788D01*
X145856Y761689D01*
X145903Y761588D01*
X145946Y761486D01*
X145986Y761383D01*
X146022Y761278D01*
X146054Y761172D01*
X146083Y761065D01*
X146108Y760957D01*
X146129Y760848D01*
X146146Y760739D01*
X146160Y760629D01*
X146169Y760518D01*
X146175Y760408D01*
X146177Y760297D01*
X146175Y760186D01*
X146169Y760076D01*
X146160Y759965D01*
X146146Y759855D01*
X146129Y759746D01*
X146108Y759637D01*
X146083Y759529D01*
X146054Y759422D01*
X146022Y759316D01*
X145986Y759211D01*
X145946Y759108D01*
X145903Y759006D01*
X145856Y758905D01*
X145805Y758806D01*
X145752Y758710D01*
X145695Y758615D01*
X145634Y758522D01*
X145571Y758431D01*
X145504Y758342D01*
X145434Y758256D01*
X145361Y758173D01*
X145286Y758091D01*
X145208Y758013D01*
X145126Y757938D01*
X145043Y757865D01*
X144957Y757795D01*
X144868Y757728D01*
X144777Y757665D01*
X144684Y757604D01*
X144589Y757547D01*
X144493Y757494D01*
X144394Y757443D01*
X144293Y757396D01*
X144191Y757353D01*
X144088Y757313D01*
X143983Y757277D01*
X143877Y757245D01*
X143770Y757216D01*
X143662Y757191D01*
X143553Y757170D01*
X143444Y757153D01*
X143334Y757139D01*
X143223Y757130D01*
X143113Y757124D01*
X143002Y757122D01*
X139827Y757122D01*
X139687Y757124D01*
X139547Y757130D01*
X139407Y757139D01*
X139268Y757153D01*
X139129Y757170D01*
X138991Y757191D01*
X138853Y757216D01*
X138716Y757245D01*
X138580Y757277D01*
X138445Y757314D01*
X138311Y757354D01*
X138178Y757397D01*
X138046Y757445D01*
X137915Y757495D01*
X137786Y757550D01*
X137659Y757608D01*
X137533Y757669D01*
X137409Y757734D01*
X137287Y757803D01*
X137167Y757874D01*
X137049Y757949D01*
X136932Y758027D01*
X136818Y758109D01*
X136707Y758193D01*
X136598Y758281D01*
X136491Y758371D01*
X136386Y758465D01*
X136285Y758561D01*
X136186Y758660D01*
X136090Y758761D01*
X135996Y758866D01*
X135906Y758973D01*
X135818Y759082D01*
X135734Y759193D01*
X135652Y759307D01*
X135574Y759424D01*
X135499Y759542D01*
X135428Y759662D01*
X135359Y759784D01*
X135294Y759908D01*
X135233Y760034D01*
X135175Y760161D01*
X135120Y760290D01*
X135070Y760421D01*
X135022Y760553D01*
X134979Y760686D01*
X134939Y760820D01*
X134902Y760955D01*
X134870Y761091D01*
X134841Y761228D01*
X134816Y761366D01*
X134795Y761504D01*
X134778Y761643D01*
X134764Y761782D01*
X134755Y761922D01*
X134749Y762062D01*
X134747Y762202D01*
D10*
X285750Y787400D02*
X298450Y787400D01*
X304800Y781050D01*
X304800Y768350D01*
X298450Y762000D01*
X279400Y768350D02*
X279400Y781050D01*
X285750Y787400D01*
X279400Y768350D02*
X285750Y762000D01*
X298450Y762000D01*
X304800Y781050D02*
X311150Y787400D01*
X323850Y787400D01*
X330200Y781050D01*
X330200Y768350D01*
X323850Y762000D01*
X311150Y762000D01*
X304800Y768350D01*
D11*
X295783Y754253D02*
X295783Y745363D01*
X295781Y745263D01*
X295775Y745164D01*
X295765Y745064D01*
X295752Y744966D01*
X295734Y744867D01*
X295713Y744770D01*
X295688Y744674D01*
X295659Y744578D01*
X295626Y744484D01*
X295590Y744391D01*
X295550Y744300D01*
X295506Y744210D01*
X295459Y744122D01*
X295409Y744036D01*
X295355Y743952D01*
X295298Y743870D01*
X295238Y743791D01*
X295174Y743713D01*
X295108Y743639D01*
X295039Y743567D01*
X294967Y743498D01*
X294893Y743432D01*
X294815Y743368D01*
X294736Y743308D01*
X294654Y743251D01*
X294570Y743197D01*
X294484Y743147D01*
X294396Y743100D01*
X294306Y743056D01*
X294215Y743016D01*
X294122Y742980D01*
X294028Y742947D01*
X293932Y742918D01*
X293836Y742893D01*
X293739Y742872D01*
X293640Y742854D01*
X293542Y742841D01*
X293442Y742831D01*
X293343Y742825D01*
X293243Y742823D01*
X291973Y742823D01*
X301763Y742823D02*
X301763Y754253D01*
X304938Y754253D01*
X305049Y754251D01*
X305159Y754245D01*
X305270Y754236D01*
X305380Y754222D01*
X305489Y754205D01*
X305598Y754184D01*
X305706Y754159D01*
X305813Y754130D01*
X305919Y754098D01*
X306024Y754062D01*
X306127Y754022D01*
X306229Y753979D01*
X306330Y753932D01*
X306429Y753881D01*
X306526Y753828D01*
X306620Y753771D01*
X306713Y753710D01*
X306804Y753647D01*
X306893Y753580D01*
X306979Y753510D01*
X307062Y753437D01*
X307144Y753362D01*
X307222Y753284D01*
X307297Y753202D01*
X307370Y753119D01*
X307440Y753033D01*
X307507Y752944D01*
X307570Y752853D01*
X307631Y752760D01*
X307688Y752665D01*
X307741Y752569D01*
X307792Y752470D01*
X307839Y752369D01*
X307882Y752267D01*
X307922Y752164D01*
X307958Y752059D01*
X307990Y751953D01*
X308019Y751846D01*
X308044Y751738D01*
X308065Y751629D01*
X308082Y751520D01*
X308096Y751410D01*
X308105Y751299D01*
X308111Y751189D01*
X308113Y751078D01*
X308111Y750967D01*
X308105Y750857D01*
X308096Y750746D01*
X308082Y750636D01*
X308065Y750527D01*
X308044Y750418D01*
X308019Y750310D01*
X307990Y750203D01*
X307958Y750097D01*
X307922Y749992D01*
X307882Y749889D01*
X307839Y749787D01*
X307792Y749686D01*
X307741Y749587D01*
X307688Y749491D01*
X307631Y749396D01*
X307570Y749303D01*
X307507Y749212D01*
X307440Y749123D01*
X307370Y749037D01*
X307297Y748954D01*
X307222Y748872D01*
X307144Y748794D01*
X307062Y748719D01*
X306979Y748646D01*
X306893Y748576D01*
X306804Y748509D01*
X306713Y748446D01*
X306620Y748385D01*
X306526Y748328D01*
X306429Y748275D01*
X306330Y748224D01*
X306229Y748177D01*
X306127Y748134D01*
X306024Y748094D01*
X305919Y748058D01*
X305813Y748026D01*
X305706Y747997D01*
X305598Y747972D01*
X305489Y747951D01*
X305380Y747934D01*
X305270Y747920D01*
X305159Y747911D01*
X305049Y747905D01*
X304938Y747903D01*
X301763Y747903D01*
X312622Y752983D02*
X312622Y754253D01*
X318972Y754253D01*
X315797Y742823D01*
D10*
X952500Y184150D02*
X952500Y171450D01*
X952500Y184150D02*
X958850Y190500D01*
X971550Y190500D02*
X977900Y184150D01*
X958850Y190500D02*
X952500Y196850D01*
X952500Y209550D01*
X958850Y215900D01*
X971550Y215900D02*
X977900Y209550D01*
X977900Y196850D01*
X971550Y190500D01*
X971550Y165100D02*
X958850Y165100D01*
X952500Y171450D01*
X971550Y165100D02*
X977900Y171450D01*
X977900Y184150D01*
X958850Y215900D02*
X952500Y222250D01*
X952500Y234950D01*
X958850Y241300D01*
X971550Y241300D02*
X977900Y234950D01*
X977900Y222250D01*
X971550Y215900D01*
X952500Y247650D02*
X952500Y260350D01*
X958850Y266700D01*
X971550Y266700D02*
X977900Y260350D01*
X958850Y266700D02*
X952500Y273050D01*
X952500Y285750D01*
X958850Y292100D01*
X971550Y292100D02*
X977900Y285750D01*
X977900Y273050D01*
X971550Y266700D01*
X952500Y247650D02*
X958850Y241300D01*
X971550Y241300D02*
X977900Y247650D01*
X977900Y260350D01*
X958850Y292100D02*
X952500Y298450D01*
X952500Y311150D01*
X958850Y317500D01*
X971550Y317500D02*
X977900Y311150D01*
X977900Y298450D01*
X971550Y292100D01*
X952500Y323850D02*
X952500Y336550D01*
X958850Y342900D01*
X971550Y342900D01*
X977900Y336550D01*
X958850Y317500D02*
X952500Y323850D01*
X971550Y317500D02*
X977900Y323850D01*
X977900Y336550D01*
D11*
X982345Y175260D02*
X984885Y172085D01*
X982345Y175260D02*
X993775Y175260D01*
X993775Y172085D02*
X993775Y178435D01*
X937895Y327025D02*
X936625Y327025D01*
X936625Y333375D01*
X948055Y330200D01*
X945515Y184785D02*
X945615Y184783D01*
X945714Y184777D01*
X945814Y184767D01*
X945912Y184754D01*
X946011Y184736D01*
X946108Y184715D01*
X946204Y184690D01*
X946300Y184661D01*
X946394Y184628D01*
X946487Y184592D01*
X946578Y184552D01*
X946668Y184508D01*
X946756Y184461D01*
X946842Y184411D01*
X946926Y184357D01*
X947008Y184300D01*
X947087Y184240D01*
X947165Y184176D01*
X947239Y184110D01*
X947311Y184041D01*
X947380Y183969D01*
X947446Y183895D01*
X947510Y183817D01*
X947570Y183738D01*
X947627Y183656D01*
X947681Y183572D01*
X947731Y183486D01*
X947778Y183398D01*
X947822Y183308D01*
X947862Y183217D01*
X947898Y183124D01*
X947931Y183030D01*
X947960Y182934D01*
X947985Y182838D01*
X948006Y182741D01*
X948024Y182642D01*
X948037Y182544D01*
X948047Y182444D01*
X948053Y182345D01*
X948055Y182245D01*
X948053Y182104D01*
X948048Y181963D01*
X948038Y181822D01*
X948025Y181681D01*
X948009Y181541D01*
X947988Y181401D01*
X947964Y181262D01*
X947936Y181123D01*
X947905Y180986D01*
X947870Y180849D01*
X947832Y180713D01*
X947790Y180578D01*
X947744Y180445D01*
X947695Y180312D01*
X947642Y180181D01*
X947586Y180052D01*
X947527Y179923D01*
X947464Y179797D01*
X947398Y179672D01*
X947329Y179549D01*
X947256Y179428D01*
X947180Y179309D01*
X947101Y179191D01*
X947020Y179076D01*
X946935Y178964D01*
X946847Y178853D01*
X946756Y178745D01*
X946663Y178639D01*
X946566Y178536D01*
X946467Y178435D01*
X939165Y178753D02*
X939065Y178755D01*
X938966Y178761D01*
X938866Y178771D01*
X938768Y178784D01*
X938669Y178802D01*
X938572Y178823D01*
X938476Y178848D01*
X938380Y178877D01*
X938286Y178910D01*
X938193Y178946D01*
X938102Y178986D01*
X938012Y179030D01*
X937924Y179077D01*
X937838Y179127D01*
X937754Y179181D01*
X937672Y179238D01*
X937593Y179298D01*
X937515Y179362D01*
X937441Y179428D01*
X937369Y179497D01*
X937300Y179569D01*
X937234Y179643D01*
X937170Y179721D01*
X937110Y179800D01*
X937053Y179882D01*
X936999Y179966D01*
X936949Y180052D01*
X936902Y180140D01*
X936858Y180230D01*
X936818Y180321D01*
X936782Y180414D01*
X936749Y180508D01*
X936720Y180604D01*
X936695Y180700D01*
X936674Y180797D01*
X936656Y180896D01*
X936643Y180994D01*
X936633Y181094D01*
X936627Y181193D01*
X936625Y181293D01*
X936627Y181426D01*
X936632Y181559D01*
X936642Y181692D01*
X936655Y181825D01*
X936672Y181957D01*
X936692Y182089D01*
X936716Y182220D01*
X936744Y182350D01*
X936775Y182480D01*
X936810Y182608D01*
X936849Y182736D01*
X936891Y182862D01*
X936937Y182987D01*
X936986Y183111D01*
X937038Y183234D01*
X937094Y183355D01*
X937154Y183474D01*
X937216Y183592D01*
X937282Y183707D01*
X937351Y183821D01*
X937424Y183933D01*
X937499Y184043D01*
X937578Y184151D01*
X941388Y180022D02*
X941336Y179938D01*
X941281Y179855D01*
X941222Y179775D01*
X941161Y179697D01*
X941097Y179622D01*
X941029Y179549D01*
X940959Y179478D01*
X940887Y179411D01*
X940812Y179346D01*
X940734Y179284D01*
X940654Y179225D01*
X940572Y179169D01*
X940488Y179117D01*
X940402Y179068D01*
X940314Y179022D01*
X940224Y178979D01*
X940133Y178940D01*
X940040Y178905D01*
X939946Y178873D01*
X939851Y178845D01*
X939755Y178820D01*
X939658Y178800D01*
X939560Y178782D01*
X939462Y178769D01*
X939363Y178760D01*
X939264Y178754D01*
X939165Y178752D01*
X943292Y183515D02*
X943344Y183599D01*
X943399Y183682D01*
X943458Y183762D01*
X943519Y183840D01*
X943583Y183915D01*
X943651Y183988D01*
X943721Y184059D01*
X943793Y184126D01*
X943868Y184191D01*
X943946Y184253D01*
X944026Y184312D01*
X944108Y184368D01*
X944192Y184420D01*
X944278Y184469D01*
X944366Y184515D01*
X944456Y184558D01*
X944547Y184597D01*
X944640Y184632D01*
X944734Y184664D01*
X944829Y184692D01*
X944925Y184717D01*
X945022Y184737D01*
X945120Y184755D01*
X945218Y184768D01*
X945317Y184777D01*
X945416Y184783D01*
X945515Y184785D01*
X943293Y183515D02*
X941388Y180023D01*
X936625Y188849D02*
X948055Y192659D01*
X936625Y196469D01*
X939165Y200914D02*
X936625Y204089D01*
X948055Y204089D01*
X948055Y200914D02*
X948055Y207264D01*
M02*
