G04 EAGLE Gerber RS-274X export*
G75*
%MOMM*%
%FSLAX34Y34*%
%LPD*%
%INSoldermask Top*%
%IPPOS*%
%AMOC8*
5,1,8,0,0,1.08239X$1,22.5*%
G01*
%ADD10C,1.524000*%
%ADD11C,1.727200*%
%ADD12C,0.959600*%


D10*
X571500Y31496D02*
X571500Y44704D01*
X596900Y44704D02*
X596900Y31496D01*
X723900Y31496D02*
X723900Y44704D01*
X723900Y107696D02*
X723900Y120904D01*
X622300Y44704D02*
X622300Y31496D01*
X647700Y31496D02*
X647700Y44704D01*
X698500Y44704D02*
X698500Y31496D01*
X673100Y31496D02*
X673100Y44704D01*
X698500Y107696D02*
X698500Y120904D01*
X673100Y120904D02*
X673100Y107696D01*
X647700Y107696D02*
X647700Y120904D01*
X622300Y120904D02*
X622300Y107696D01*
X596900Y107696D02*
X596900Y120904D01*
X571500Y120904D02*
X571500Y107696D01*
X349504Y508000D02*
X336296Y508000D01*
X336296Y482600D02*
X349504Y482600D01*
X349504Y355600D02*
X336296Y355600D01*
X336296Y330200D02*
X349504Y330200D01*
X349504Y457200D02*
X336296Y457200D01*
X336296Y431800D02*
X349504Y431800D01*
X349504Y381000D02*
X336296Y381000D01*
X336296Y406400D02*
X349504Y406400D01*
X412496Y330200D02*
X425704Y330200D01*
X425704Y355600D02*
X412496Y355600D01*
X412496Y381000D02*
X425704Y381000D01*
X425704Y406400D02*
X412496Y406400D01*
X412496Y431800D02*
X425704Y431800D01*
X425704Y457200D02*
X412496Y457200D01*
X412496Y482600D02*
X425704Y482600D01*
X425704Y508000D02*
X412496Y508000D01*
X729996Y546100D02*
X743204Y546100D01*
X743204Y520700D02*
X729996Y520700D01*
X729996Y393700D02*
X743204Y393700D01*
X743204Y368300D02*
X729996Y368300D01*
X729996Y495300D02*
X743204Y495300D01*
X743204Y469900D02*
X729996Y469900D01*
X729996Y419100D02*
X743204Y419100D01*
X743204Y444500D02*
X729996Y444500D01*
X806196Y368300D02*
X819404Y368300D01*
X819404Y393700D02*
X806196Y393700D01*
X806196Y419100D02*
X819404Y419100D01*
X819404Y444500D02*
X806196Y444500D01*
X806196Y469900D02*
X819404Y469900D01*
X819404Y495300D02*
X806196Y495300D01*
X806196Y520700D02*
X819404Y520700D01*
X819404Y546100D02*
X806196Y546100D01*
X349504Y736600D02*
X336296Y736600D01*
X336296Y711200D02*
X349504Y711200D01*
X349504Y584200D02*
X336296Y584200D01*
X412496Y584200D02*
X425704Y584200D01*
X349504Y685800D02*
X336296Y685800D01*
X336296Y660400D02*
X349504Y660400D01*
X349504Y609600D02*
X336296Y609600D01*
X336296Y635000D02*
X349504Y635000D01*
X412496Y609600D02*
X425704Y609600D01*
X425704Y635000D02*
X412496Y635000D01*
X412496Y660400D02*
X425704Y660400D01*
X425704Y685800D02*
X412496Y685800D01*
X412496Y711200D02*
X425704Y711200D01*
X425704Y736600D02*
X412496Y736600D01*
X336804Y254000D02*
X323596Y254000D01*
X323596Y228600D02*
X336804Y228600D01*
X336804Y101600D02*
X323596Y101600D01*
X399796Y101600D02*
X413004Y101600D01*
X336804Y203200D02*
X323596Y203200D01*
X323596Y177800D02*
X336804Y177800D01*
X336804Y127000D02*
X323596Y127000D01*
X323596Y152400D02*
X336804Y152400D01*
X399796Y127000D02*
X413004Y127000D01*
X413004Y152400D02*
X399796Y152400D01*
X399796Y177800D02*
X413004Y177800D01*
X413004Y203200D02*
X399796Y203200D01*
X399796Y228600D02*
X413004Y228600D01*
X413004Y254000D02*
X399796Y254000D01*
X602996Y533400D02*
X616204Y533400D01*
X616204Y508000D02*
X602996Y508000D01*
X602996Y381000D02*
X616204Y381000D01*
X679196Y381000D02*
X692404Y381000D01*
X616204Y482600D02*
X602996Y482600D01*
X602996Y457200D02*
X616204Y457200D01*
X616204Y406400D02*
X602996Y406400D01*
X602996Y431800D02*
X616204Y431800D01*
X679196Y406400D02*
X692404Y406400D01*
X692404Y431800D02*
X679196Y431800D01*
X679196Y457200D02*
X692404Y457200D01*
X692404Y482600D02*
X679196Y482600D01*
X679196Y508000D02*
X692404Y508000D01*
X692404Y533400D02*
X679196Y533400D01*
X704596Y330200D02*
X717804Y330200D01*
X717804Y304800D02*
X704596Y304800D01*
X704596Y177800D02*
X717804Y177800D01*
X780796Y177800D02*
X794004Y177800D01*
X717804Y279400D02*
X704596Y279400D01*
X704596Y254000D02*
X717804Y254000D01*
X717804Y203200D02*
X704596Y203200D01*
X704596Y228600D02*
X717804Y228600D01*
X780796Y203200D02*
X794004Y203200D01*
X794004Y228600D02*
X780796Y228600D01*
X780796Y254000D02*
X794004Y254000D01*
X794004Y279400D02*
X780796Y279400D01*
X780796Y304800D02*
X794004Y304800D01*
X794004Y330200D02*
X780796Y330200D01*
X616204Y762000D02*
X602996Y762000D01*
X602996Y736600D02*
X616204Y736600D01*
X616204Y609600D02*
X602996Y609600D01*
X679196Y609600D02*
X692404Y609600D01*
X616204Y711200D02*
X602996Y711200D01*
X602996Y685800D02*
X616204Y685800D01*
X616204Y635000D02*
X602996Y635000D01*
X602996Y660400D02*
X616204Y660400D01*
X679196Y635000D02*
X692404Y635000D01*
X692404Y660400D02*
X679196Y660400D01*
X679196Y685800D02*
X692404Y685800D01*
X692404Y711200D02*
X679196Y711200D01*
X679196Y736600D02*
X692404Y736600D01*
X692404Y762000D02*
X679196Y762000D01*
X476504Y533400D02*
X463296Y533400D01*
X463296Y508000D02*
X476504Y508000D01*
X476504Y381000D02*
X463296Y381000D01*
X539496Y381000D02*
X552704Y381000D01*
X476504Y482600D02*
X463296Y482600D01*
X463296Y457200D02*
X476504Y457200D01*
X476504Y406400D02*
X463296Y406400D01*
X463296Y431800D02*
X476504Y431800D01*
X539496Y406400D02*
X552704Y406400D01*
X552704Y431800D02*
X539496Y431800D01*
X539496Y457200D02*
X552704Y457200D01*
X552704Y482600D02*
X539496Y482600D01*
X539496Y508000D02*
X552704Y508000D01*
X552704Y533400D02*
X539496Y533400D01*
X869696Y571500D02*
X882904Y571500D01*
X882904Y546100D02*
X869696Y546100D01*
X869696Y419100D02*
X882904Y419100D01*
X945896Y419100D02*
X959104Y419100D01*
X882904Y520700D02*
X869696Y520700D01*
X869696Y495300D02*
X882904Y495300D01*
X882904Y444500D02*
X869696Y444500D01*
X869696Y469900D02*
X882904Y469900D01*
X945896Y444500D02*
X959104Y444500D01*
X959104Y469900D02*
X945896Y469900D01*
X945896Y495300D02*
X959104Y495300D01*
X959104Y520700D02*
X945896Y520700D01*
X945896Y546100D02*
X959104Y546100D01*
X959104Y571500D02*
X945896Y571500D01*
X743204Y762000D02*
X729996Y762000D01*
X729996Y736600D02*
X743204Y736600D01*
X743204Y609600D02*
X729996Y609600D01*
X806196Y609600D02*
X819404Y609600D01*
X743204Y711200D02*
X729996Y711200D01*
X729996Y685800D02*
X743204Y685800D01*
X743204Y635000D02*
X729996Y635000D01*
X729996Y660400D02*
X743204Y660400D01*
X806196Y635000D02*
X819404Y635000D01*
X819404Y660400D02*
X806196Y660400D01*
X806196Y685800D02*
X819404Y685800D01*
X819404Y711200D02*
X806196Y711200D01*
X806196Y736600D02*
X819404Y736600D01*
X819404Y762000D02*
X806196Y762000D01*
X70104Y685800D02*
X56896Y685800D01*
X56896Y660400D02*
X70104Y660400D01*
X70104Y533400D02*
X56896Y533400D01*
X133096Y533400D02*
X146304Y533400D01*
X70104Y635000D02*
X56896Y635000D01*
X56896Y609600D02*
X70104Y609600D01*
X70104Y558800D02*
X56896Y558800D01*
X56896Y584200D02*
X70104Y584200D01*
X133096Y558800D02*
X146304Y558800D01*
X146304Y584200D02*
X133096Y584200D01*
X133096Y609600D02*
X146304Y609600D01*
X146304Y635000D02*
X133096Y635000D01*
X133096Y660400D02*
X146304Y660400D01*
X146304Y685800D02*
X133096Y685800D01*
X450596Y292100D02*
X463804Y292100D01*
X463804Y266700D02*
X450596Y266700D01*
X450596Y139700D02*
X463804Y139700D01*
X526796Y139700D02*
X540004Y139700D01*
X463804Y241300D02*
X450596Y241300D01*
X450596Y215900D02*
X463804Y215900D01*
X463804Y165100D02*
X450596Y165100D01*
X450596Y190500D02*
X463804Y190500D01*
X526796Y165100D02*
X540004Y165100D01*
X540004Y190500D02*
X526796Y190500D01*
X526796Y215900D02*
X540004Y215900D01*
X540004Y241300D02*
X526796Y241300D01*
X526796Y266700D02*
X540004Y266700D01*
X540004Y292100D02*
X526796Y292100D01*
X800100Y44704D02*
X800100Y31496D01*
X825500Y31496D02*
X825500Y44704D01*
X952500Y44704D02*
X952500Y31496D01*
X952500Y107696D02*
X952500Y120904D01*
X850900Y44704D02*
X850900Y31496D01*
X876300Y31496D02*
X876300Y44704D01*
X927100Y44704D02*
X927100Y31496D01*
X901700Y31496D02*
X901700Y44704D01*
X927100Y107696D02*
X927100Y120904D01*
X901700Y120904D02*
X901700Y107696D01*
X876300Y107696D02*
X876300Y120904D01*
X850900Y120904D02*
X850900Y107696D01*
X825500Y107696D02*
X825500Y120904D01*
X800100Y120904D02*
X800100Y107696D01*
X489204Y749300D02*
X475996Y749300D01*
X475996Y723900D02*
X489204Y723900D01*
X489204Y596900D02*
X475996Y596900D01*
X552196Y596900D02*
X565404Y596900D01*
X489204Y698500D02*
X475996Y698500D01*
X475996Y673100D02*
X489204Y673100D01*
X489204Y622300D02*
X475996Y622300D01*
X475996Y647700D02*
X489204Y647700D01*
X552196Y622300D02*
X565404Y622300D01*
X565404Y647700D02*
X552196Y647700D01*
X552196Y673100D02*
X565404Y673100D01*
X565404Y698500D02*
X552196Y698500D01*
X552196Y723900D02*
X565404Y723900D01*
X565404Y749300D02*
X552196Y749300D01*
X831596Y317500D02*
X844804Y317500D01*
X844804Y292100D02*
X831596Y292100D01*
X831596Y165100D02*
X844804Y165100D01*
X907796Y165100D02*
X921004Y165100D01*
X844804Y266700D02*
X831596Y266700D01*
X831596Y241300D02*
X844804Y241300D01*
X844804Y190500D02*
X831596Y190500D01*
X831596Y215900D02*
X844804Y215900D01*
X907796Y190500D02*
X921004Y190500D01*
X921004Y215900D02*
X907796Y215900D01*
X907796Y241300D02*
X921004Y241300D01*
X921004Y266700D02*
X907796Y266700D01*
X907796Y292100D02*
X921004Y292100D01*
X921004Y317500D02*
X907796Y317500D01*
X209804Y723900D02*
X196596Y723900D01*
X196596Y698500D02*
X209804Y698500D01*
X209804Y571500D02*
X196596Y571500D01*
X272796Y571500D02*
X286004Y571500D01*
X209804Y673100D02*
X196596Y673100D01*
X196596Y647700D02*
X209804Y647700D01*
X209804Y596900D02*
X196596Y596900D01*
X196596Y622300D02*
X209804Y622300D01*
X272796Y596900D02*
X286004Y596900D01*
X286004Y622300D02*
X272796Y622300D01*
X272796Y647700D02*
X286004Y647700D01*
X286004Y673100D02*
X272796Y673100D01*
X272796Y698500D02*
X286004Y698500D01*
X286004Y723900D02*
X272796Y723900D01*
X70104Y457200D02*
X56896Y457200D01*
X56896Y431800D02*
X70104Y431800D01*
X70104Y304800D02*
X56896Y304800D01*
X56896Y279400D02*
X70104Y279400D01*
X70104Y406400D02*
X56896Y406400D01*
X56896Y381000D02*
X70104Y381000D01*
X70104Y330200D02*
X56896Y330200D01*
X56896Y355600D02*
X70104Y355600D01*
X133096Y279400D02*
X146304Y279400D01*
X146304Y304800D02*
X133096Y304800D01*
X133096Y330200D02*
X146304Y330200D01*
X146304Y355600D02*
X133096Y355600D01*
X133096Y381000D02*
X146304Y381000D01*
X146304Y406400D02*
X133096Y406400D01*
X133096Y431800D02*
X146304Y431800D01*
X146304Y457200D02*
X133096Y457200D01*
X196596Y495300D02*
X209804Y495300D01*
X209804Y469900D02*
X196596Y469900D01*
X196596Y342900D02*
X209804Y342900D01*
X209804Y317500D02*
X196596Y317500D01*
X196596Y444500D02*
X209804Y444500D01*
X209804Y419100D02*
X196596Y419100D01*
X196596Y368300D02*
X209804Y368300D01*
X209804Y393700D02*
X196596Y393700D01*
X272796Y317500D02*
X286004Y317500D01*
X286004Y342900D02*
X272796Y342900D01*
X272796Y368300D02*
X286004Y368300D01*
X286004Y393700D02*
X272796Y393700D01*
X272796Y419100D02*
X286004Y419100D01*
X286004Y444500D02*
X272796Y444500D01*
X272796Y469900D02*
X286004Y469900D01*
X286004Y495300D02*
X272796Y495300D01*
X70104Y228600D02*
X56896Y228600D01*
X56896Y203200D02*
X70104Y203200D01*
X70104Y76200D02*
X56896Y76200D01*
X56896Y50800D02*
X70104Y50800D01*
X70104Y177800D02*
X56896Y177800D01*
X56896Y152400D02*
X70104Y152400D01*
X70104Y101600D02*
X56896Y101600D01*
X56896Y127000D02*
X70104Y127000D01*
X133096Y50800D02*
X146304Y50800D01*
X146304Y76200D02*
X133096Y76200D01*
X133096Y101600D02*
X146304Y101600D01*
X146304Y127000D02*
X133096Y127000D01*
X133096Y152400D02*
X146304Y152400D01*
X146304Y177800D02*
X133096Y177800D01*
X133096Y203200D02*
X146304Y203200D01*
X146304Y228600D02*
X133096Y228600D01*
X183896Y241300D02*
X197104Y241300D01*
X197104Y215900D02*
X183896Y215900D01*
X183896Y88900D02*
X197104Y88900D01*
X197104Y63500D02*
X183896Y63500D01*
X183896Y190500D02*
X197104Y190500D01*
X197104Y165100D02*
X183896Y165100D01*
X183896Y114300D02*
X197104Y114300D01*
X197104Y139700D02*
X183896Y139700D01*
X260096Y63500D02*
X273304Y63500D01*
X273304Y88900D02*
X260096Y88900D01*
X260096Y114300D02*
X273304Y114300D01*
X273304Y139700D02*
X260096Y139700D01*
X260096Y165100D02*
X273304Y165100D01*
X273304Y190500D02*
X260096Y190500D01*
X260096Y215900D02*
X273304Y215900D01*
X273304Y241300D02*
X260096Y241300D01*
X856996Y774700D02*
X870204Y774700D01*
X870204Y749300D02*
X856996Y749300D01*
X856996Y622300D02*
X870204Y622300D01*
X933196Y622300D02*
X946404Y622300D01*
X870204Y723900D02*
X856996Y723900D01*
X856996Y698500D02*
X870204Y698500D01*
X870204Y647700D02*
X856996Y647700D01*
X856996Y673100D02*
X870204Y673100D01*
X933196Y647700D02*
X946404Y647700D01*
X946404Y673100D02*
X933196Y673100D01*
X933196Y698500D02*
X946404Y698500D01*
X946404Y723900D02*
X933196Y723900D01*
X933196Y749300D02*
X946404Y749300D01*
X946404Y774700D02*
X933196Y774700D01*
X590804Y330200D02*
X577596Y330200D01*
X577596Y304800D02*
X590804Y304800D01*
X590804Y177800D02*
X577596Y177800D01*
X577596Y152400D02*
X590804Y152400D01*
X590804Y279400D02*
X577596Y279400D01*
X577596Y254000D02*
X590804Y254000D01*
X590804Y203200D02*
X577596Y203200D01*
X577596Y228600D02*
X590804Y228600D01*
X653796Y152400D02*
X667004Y152400D01*
X667004Y177800D02*
X653796Y177800D01*
X653796Y203200D02*
X667004Y203200D01*
X667004Y228600D02*
X653796Y228600D01*
X653796Y254000D02*
X667004Y254000D01*
X667004Y279400D02*
X653796Y279400D01*
X653796Y304800D02*
X667004Y304800D01*
X667004Y330200D02*
X653796Y330200D01*
D11*
X457200Y83820D02*
X457200Y68580D01*
X482600Y68580D02*
X482600Y83820D01*
X355053Y44723D02*
X356222Y29528D01*
X381547Y31477D02*
X380378Y46672D01*
X58420Y749300D02*
X43180Y749300D01*
X43180Y774700D02*
X58420Y774700D01*
X106680Y749300D02*
X121920Y749300D01*
X121920Y774700D02*
X106680Y774700D01*
X157480Y749300D02*
X172720Y749300D01*
X172720Y774700D02*
X157480Y774700D01*
X292100Y767080D02*
X292100Y782320D01*
X317500Y782320D02*
X317500Y767080D01*
X957580Y177800D02*
X972820Y177800D01*
X972820Y203200D02*
X957580Y203200D01*
X957580Y228600D02*
X972820Y228600D01*
X972820Y254000D02*
X957580Y254000D01*
X957580Y279400D02*
X972820Y279400D01*
X972820Y304800D02*
X957580Y304800D01*
X957580Y330200D02*
X972820Y330200D01*
D12*
X528828Y335280D03*
X445008Y371856D03*
X632460Y131064D03*
X248412Y225552D03*
X527304Y551688D03*
X144780Y316992D03*
X615696Y196596D03*
X589788Y530352D03*
X390144Y516636D03*
X606552Y196596D03*
X323088Y658368D03*
X562356Y284988D03*
X536448Y307848D03*
X598932Y313944D03*
X525780Y313944D03*
X338328Y297180D03*
X560832Y19812D03*
X641604Y19812D03*
X798576Y67056D03*
X463296Y748284D03*
X580644Y571500D03*
X632460Y536448D03*
X714756Y451104D03*
X576072Y68580D03*
X752856Y181356D03*
X786384Y240792D03*
X795528Y487680D03*
X310896Y219456D03*
X504444Y231648D03*
X614172Y320040D03*
X696468Y320040D03*
X740664Y181356D03*
X364236Y121920D03*
X586740Y140208D03*
X635508Y184404D03*
X381000Y623316D03*
X583692Y537972D03*
X583692Y458724D03*
X630936Y143256D03*
X249936Y96012D03*
X509016Y105156D03*
X524256Y120396D03*
X557784Y120396D03*
X691896Y195072D03*
X345948Y195072D03*
X320040Y641604D03*
X882396Y210312D03*
X705612Y733044D03*
X891540Y324612D03*
X851916Y364236D03*
X836676Y364236D03*
X643128Y286512D03*
X376428Y339852D03*
X496824Y335280D03*
X441960Y400812D03*
X804672Y82296D03*
X719328Y240792D03*
X667512Y266700D03*
X629412Y341376D03*
X729996Y310896D03*
X772668Y448056D03*
X836676Y422148D03*
X856488Y248412D03*
X490728Y376428D03*
X422148Y621792D03*
X379476Y210312D03*
X373380Y228600D03*
X391668Y336804D03*
X979932Y216408D03*
X888492Y231648D03*
X635508Y527304D03*
X854964Y135636D03*
X768096Y274320D03*
X755904Y286512D03*
X691896Y306324D03*
X568452Y399288D03*
X457200Y394716D03*
X329184Y301752D03*
X254508Y256032D03*
X838200Y82296D03*
X373380Y237744D03*
X432816Y196596D03*
X547116Y175260D03*
X562356Y175260D03*
X728472Y196596D03*
X612648Y256032D03*
X661416Y685800D03*
X403860Y266700D03*
X961644Y696468D03*
X441960Y702564D03*
X804672Y574548D03*
X550164Y495300D03*
X720852Y676656D03*
X787908Y621792D03*
X946404Y213360D03*
X850392Y573024D03*
M02*
